<?xml version="1.0" encoding="utf-8" standalone="no"?>
<!DOCTYPE svg PUBLIC "-//W3C//DTD SVG 1.1//EN"
  "http://www.w3.org/Graphics/SVG/1.1/DTD/svg11.dtd">
<!-- Created with matplotlib (https://matplotlib.org/) -->
<svg height="288.024219pt" version="1.1" viewBox="0 0 389.974375 288.024219" width="389.974375pt" xmlns="http://www.w3.org/2000/svg" xmlns:xlink="http://www.w3.org/1999/xlink">
 <defs>
  <style type="text/css">
*{stroke-linecap:butt;stroke-linejoin:round;}
  </style>
 </defs>
 <g id="figure_1">
  <g id="patch_1">
   <path d="M 0 288.024219 
L 389.974375 288.024219 
L 389.974375 0 
L 0 0 
z
" style="fill:#ffffff;"/>
  </g>
  <g id="axes_1">
   <g id="patch_2">
    <path d="M 44.474375 246.596719 
L 379.274375 246.596719 
L 379.274375 29.156719 
L 44.474375 29.156719 
z
" style="fill:#ffffff;"/>
   </g>
   <g id="PolyCollection_1">
    <path clip-path="url(#p6ddc98eb5c)" d="M 45.872045 200.186633 
L 45.872045 215.598165 
L 48.567349 203.998543 
L 51.239373 203.436767 
L 53.963265 201.669407 
L 56.66107 207.027499 
L 59.290076 204.971957 
L 61.964783 205.301416 
L 64.570974 205.895698 
L 67.248404 204.737402 
L 69.98394 201.476403 
L 72.660454 206.171176 
L 75.302466 205.468499 
L 77.944892 205.774096 
L 80.62109 203.568211 
L 83.247971 208.10816 
L 85.854297 203.968396 
L 88.554317 203.721256 
L 91.258515 205.123947 
L 93.924795 203.589151 
L 96.621405 203.045243 
L 99.356587 204.675964 
L 102.018191 204.10361 
L 104.668396 205.297579 
L 107.3561 204.027616 
L 110.092415 201.805694 
L 112.777398 204.959247 
L 115.489161 201.372621 
L 118.216206 203.037284 
L 120.996031 203.644821 
L 123.742673 202.196678 
L 126.462274 204.409541 
L 129.09615 206.813016 
L 131.765528 201.87307 
L 134.501785 204.371516 
L 137.15277 208.009482 
L 139.702488 205.896869 
L 142.364432 202.73418 
L 145.065243 201.228499 
L 147.774625 204.965668 
L 150.510971 203.46862 
L 153.232314 202.457641 
L 155.920881 203.434405 
L 158.630202 202.592434 
L 161.391473 203.784716 
L 164.141142 200.497832 
L 166.857956 205.560648 
L 169.520073 207.354184 
L 172.134531 205.592472 
L 174.800671 203.731056 
L 177.510889 203.391963 
L 180.238776 204.445029 
L 182.94166 203.980797 
L 185.60143 205.768408 
L 188.228523 204.828433 
L 190.837879 205.258347 
L 193.480446 204.583352 
L 196.228699 200.411898 
L 198.978108 203.326285 
L 201.70695 202.559894 
L 204.444165 204.046039 
L 207.115175 206.262034 
L 209.753564 203.991791 
L 212.461416 204.51239 
L 215.142497 204.738202 
L 217.815556 202.652428 
L 220.548347 200.622266 
L 223.346257 205.182086 
L 226.040223 203.560432 
L 228.74076 203.754775 
L 231.453458 203.188586 
L 234.081929 205.75382 
L 236.726289 204.838287 
L 239.413187 203.218696 
L 242.180432 201.745193 
L 244.947288 202.162566 
L 247.685138 201.732389 
L 250.422638 203.555431 
L 253.149827 205.10814 
L 255.798079 205.310087 
L 258.451046 203.738969 
L 258.451046 198.419589 
L 258.451046 198.419589 
L 255.798079 200.32751 
L 253.149827 198.355057 
L 250.422638 197.878327 
L 247.685138 195.352568 
L 244.947288 197.386711 
L 242.180432 195.919604 
L 239.413187 196.910421 
L 236.726289 198.91483 
L 234.081929 200.608577 
L 231.453458 197.520372 
L 228.74076 198.258822 
L 226.040223 198.163246 
L 223.346257 199.440792 
L 220.548347 193.998371 
L 217.815556 197.766609 
L 215.142497 201.189316 
L 212.461416 198.660888 
L 209.753564 198.311726 
L 207.115175 201.549964 
L 204.444165 197.387718 
L 201.70695 196.844424 
L 198.978108 196.657873 
L 196.228699 195.94826 
L 193.480446 198.589926 
L 190.837879 200.52421 
L 188.228523 200.084364 
L 185.60143 201.75367 
L 182.94166 198.17776 
L 180.238776 196.988728 
L 177.510889 197.606915 
L 174.800671 198.427501 
L 172.134531 200.480006 
L 169.520073 200.022933 
L 166.857956 198.772309 
L 164.141142 195.137526 
L 161.391473 197.938962 
L 158.630202 195.797164 
L 155.920881 197.999352 
L 153.232314 198.396277 
L 150.510971 196.660498 
L 147.774625 198.207609 
L 145.065243 196.291339 
L 142.364432 197.829817 
L 139.702488 200.465529 
L 137.15277 201.976916 
L 134.501785 198.366882 
L 131.765528 196.516528 
L 129.09615 200.998981 
L 126.462274 198.908696 
L 123.742673 196.627799 
L 120.996031 196.919177 
L 118.216206 196.801914 
L 115.489161 194.552657 
L 112.777398 200.38843 
L 110.092415 196.728864 
L 107.3561 199.000701 
L 104.668396 199.470259 
L 102.018191 197.765028 
L 99.356587 198.787233 
L 96.621405 197.808675 
L 93.924795 197.989566 
L 91.258515 199.209011 
L 88.554317 197.422581 
L 85.854297 199.059921 
L 83.247971 202.603038 
L 80.62109 197.430666 
L 77.944892 199.428622 
L 75.302466 199.444299 
L 72.660454 200.916021 
L 69.98394 195.898475 
L 67.248404 197.566115 
L 64.570974 199.16206 
L 61.964783 200.046261 
L 59.290076 199.216041 
L 56.66107 200.494578 
L 53.963265 196.430271 
L 51.239373 199.01171 
L 48.567349 199.464654 
L 45.872045 200.186633 
z
" style="fill:#1f77b4;fill-opacity:0.3;"/>
   </g>
   <g id="PolyCollection_2">
    <path clip-path="url(#p6ddc98eb5c)" d="M 46.232247 168.656253 
L 46.232247 183.925985 
L 49.730504 184.823365 
L 53.066655 181.133603 
L 56.181925 195.146287 
L 58.964448 202.469628 
L 61.664922 201.501496 
L 64.481521 203.810688 
L 67.186208 205.566834 
L 69.929092 209.899832 
L 72.840938 220.230187 
L 75.440973 228.948648 
L 78.505801 202.026361 
L 81.489552 223.035413 
L 84.324066 218.192 
L 87.33758 216.942687 
L 90.193617 215.498771 
L 93.137569 212.879007 
L 95.982242 203.534742 
L 98.729882 200.396627 
L 101.503819 200.462402 
L 104.242417 201.113283 
L 107.176375 190.03101 
L 110.314534 188.530818 
L 113.343132 192.512909 
L 116.442211 188.561408 
L 119.576511 185.27391 
L 122.730603 183.022747 
L 125.965873 184.566237 
L 129.044801 208.934495 
L 132.025333 185.749114 
L 135.303575 179.991447 
L 138.820713 165.435633 
L 142.411572 167.909486 
L 145.968601 161.683976 
L 149.560259 159.302707 
L 153.239301 150.17925 
L 157.008383 153.980904 
L 160.75469 151.077213 
L 164.474327 142.016128 
L 168.399919 137.40624 
L 172.32095 137.217888 
L 176.16949 127.293367 
L 180.389786 119.402253 
L 184.633794 113.952893 
L 188.899992 112.417124 
L 193.254065 115.594496 
L 197.544474 105.934843 
L 202.081711 103.552588 
L 206.604836 100.413628 
L 211.099382 104.385381 
L 215.534782 102.742859 
L 220.055732 102.587568 
L 224.584141 102.228133 
L 229.157473 90.16353 
L 233.957013 88.442191 
L 238.699148 87.505789 
L 243.576018 80.768561 
L 248.756353 79.36073 
L 253.708481 86.344447 
L 258.740066 73.089118 
L 263.638321 92.185735 
L 268.400274 85.950367 
L 273.266371 82.61454 
L 278.136349 86.309509 
L 283.096034 78.046574 
L 288.094042 70.031208 
L 293.38774 69.740458 
L 298.515532 80.882402 
L 303.394113 76.116441 
L 308.467673 65.870719 
L 313.718963 70.777534 
L 318.819076 80.716276 
L 323.778349 77.154095 
L 328.858749 65.250757 
L 334.130593 66.20745 
L 339.323756 65.443676 
L 344.450241 72.512523 
L 349.617894 66.918122 
L 354.710052 76.149026 
L 359.572989 86.098707 
L 359.572989 67.308491 
L 359.572989 67.308491 
L 354.710052 56.238972 
L 349.617894 51.698675 
L 344.450241 55.526675 
L 339.323756 45.635201 
L 334.130593 53.134147 
L 328.858749 49.30716 
L 323.778349 62.336942 
L 318.819076 66.167722 
L 313.718963 51.028384 
L 308.467673 51.441438 
L 303.394113 63.229636 
L 298.515532 62.232635 
L 293.38774 54.96466 
L 288.094042 52.35455 
L 283.096034 62.024303 
L 278.136349 70.141848 
L 273.266371 68.328337 
L 268.400274 72.820351 
L 263.638321 75.717462 
L 258.740066 58.863999 
L 253.708481 73.00611 
L 248.756353 63.609347 
L 243.576018 60.896877 
L 238.699148 73.729249 
L 233.957013 73.517646 
L 229.157473 75.420307 
L 224.584141 86.984185 
L 220.055732 85.030189 
L 215.534782 88.788819 
L 211.099382 93.089657 
L 206.604836 87.059169 
L 202.081711 88.124049 
L 197.544474 92.844835 
L 193.254065 98.405981 
L 188.899992 97.089593 
L 184.633794 95.988705 
L 180.389786 104.165585 
L 176.16949 110.77047 
L 172.32095 124.184509 
L 168.399919 121.096958 
L 164.474327 130.548189 
L 160.75469 137.287745 
L 157.008383 138.297974 
L 153.239301 137.315947 
L 149.560259 146.457451 
L 145.968601 148.135062 
L 142.411572 157.565231 
L 138.820713 156.270125 
L 135.303575 167.372231 
L 132.025333 168.717603 
L 129.044801 194.238782 
L 125.965873 170.045441 
L 122.730603 172.74861 
L 119.576511 175.281128 
L 116.442211 178.226909 
L 113.343132 181.813329 
L 110.314534 179.417179 
L 107.176375 177.337148 
L 104.242417 190.753114 
L 101.503819 194.593115 
L 98.729882 193.499211 
L 95.982242 193.840136 
L 93.137569 199.861631 
L 90.193617 203.765067 
L 87.33758 204.64051 
L 84.324066 207.595037 
L 81.489552 211.594184 
L 78.505801 183.316837 
L 75.440973 213.94367 
L 72.840938 207.44133 
L 69.929092 196.897445 
L 67.186208 198.766124 
L 64.481521 193.70915 
L 61.664922 194.278821 
L 58.964448 196.49981 
L 56.181925 188.02251 
L 53.066655 168.839354 
L 49.730504 174.282072 
L 46.232247 168.656253 
z
" style="fill:#ff7f0e;fill-opacity:0.3;"/>
   </g>
   <g id="PolyCollection_3">
    <path clip-path="url(#p6ddc98eb5c)" d="M 45.989905 204.660174 
L 45.989905 215.618383 
L 48.844736 223.489509 
L 51.625101 221.642525 
L 54.569559 217.259993 
L 57.40161 220.608343 
L 60.317056 213.324463 
L 63.318493 212.005595 
L 66.332858 213.207551 
L 69.393635 210.268393 
L 72.45151 210.757738 
L 75.489534 211.184663 
L 78.673823 203.822313 
L 81.70327 213.518871 
L 84.779109 208.278018 
L 87.738497 212.551125 
L 90.786757 201.837724 
L 93.974709 206.275976 
L 97.158364 203.549636 
L 100.303341 207.072795 
L 103.524169 208.55497 
L 106.752276 196.107379 
L 110.079679 203.817584 
L 113.266265 205.242161 
L 116.537362 195.425002 
L 119.806611 200.923636 
L 122.981507 198.226713 
L 126.385429 188.340444 
L 129.848495 198.735757 
L 133.174749 195.572094 
L 136.584962 197.828534 
L 139.836353 193.842851 
L 143.407676 185.888288 
L 146.870492 195.868186 
L 150.337803 189.162839 
L 153.885582 193.613506 
L 157.314049 190.817354 
L 160.771102 195.273444 
L 164.102987 195.40349 
L 167.508607 193.585967 
L 170.965507 191.586927 
L 174.458506 188.170357 
L 177.960544 187.294098 
L 181.510921 182.447995 
L 185.101976 192.045726 
L 188.559362 187.230013 
L 192.033517 190.889677 
L 195.570647 184.803119 
L 199.20467 187.275493 
L 202.789961 186.881447 
L 206.25837 189.256734 
L 209.718765 185.129054 
L 213.268275 188.264384 
L 216.708544 190.656919 
L 220.156019 184.411186 
L 223.679662 189.756917 
L 227.198884 185.74939 
L 230.739567 190.816313 
L 234.226105 185.942524 
L 237.752444 192.312597 
L 241.218283 177.069455 
L 244.809034 187.357635 
L 248.288349 186.04518 
L 251.775763 186.445626 
L 255.354488 181.668901 
L 259.032441 181.838294 
L 262.763108 177.29068 
L 266.447749 183.076677 
L 269.956219 183.673775 
L 273.480421 183.242664 
L 277.153522 176.869305 
L 280.826273 181.792825 
L 284.485801 177.197582 
L 288.058669 182.950209 
L 291.651203 183.956933 
L 295.249205 181.831586 
L 299.027566 180.66391 
L 302.664142 178.399438 
L 306.420894 176.5622 
L 310.117791 180.306622 
L 313.758528 180.253788 
L 313.758528 169.86413 
L 313.758528 169.86413 
L 310.117791 167.057056 
L 306.420894 165.148038 
L 302.664142 164.470479 
L 299.027566 166.844728 
L 295.249205 163.937532 
L 291.651203 172.104345 
L 288.058669 169.776989 
L 284.485801 169.151375 
L 280.826273 168.615012 
L 277.153522 166.580453 
L 273.480421 170.354293 
L 269.956219 172.242542 
L 266.447749 165.44668 
L 262.763108 165.869157 
L 259.032441 169.874184 
L 255.354488 167.289337 
L 251.775763 173.094692 
L 248.288349 177.264097 
L 244.809034 173.777242 
L 241.218283 164.930702 
L 237.752444 175.055561 
L 234.226105 175.047394 
L 230.739567 175.247204 
L 227.198884 173.066127 
L 223.679662 177.611241 
L 220.156019 170.200492 
L 216.708544 178.740678 
L 213.268275 176.059613 
L 209.718765 174.411264 
L 206.25837 176.081983 
L 202.789961 172.223991 
L 199.20467 170.380344 
L 195.570647 168.938798 
L 192.033517 180.247441 
L 188.559362 171.585504 
L 185.101976 176.772032 
L 181.510921 167.669922 
L 177.960544 175.87022 
L 174.458506 173.54436 
L 170.965507 177.95563 
L 167.508607 177.261231 
L 164.102987 182.111867 
L 160.771102 179.197753 
L 157.314049 176.115923 
L 153.885582 177.813531 
L 150.337803 176.465799 
L 146.870492 180.777411 
L 143.407676 173.79699 
L 139.836353 180.048507 
L 136.584962 178.382184 
L 133.174749 181.943263 
L 129.848495 185.15784 
L 126.385429 176.128513 
L 122.981507 186.536644 
L 119.806611 192.102442 
L 116.537362 185.134516 
L 113.266265 189.378476 
L 110.079679 188.483694 
L 106.752276 182.277739 
L 103.524169 193.458627 
L 100.303341 190.302082 
L 97.158364 189.621401 
L 93.974709 191.678742 
L 90.786757 190.318593 
L 87.738497 200.189513 
L 84.779109 196.34486 
L 81.70327 203.135687 
L 78.673823 191.813044 
L 75.489534 200.251334 
L 72.45151 194.87986 
L 69.393635 200.152885 
L 66.332858 200.982686 
L 63.318493 199.575362 
L 60.317056 202.170415 
L 57.40161 208.077895 
L 54.569559 204.033285 
L 51.625101 211.682433 
L 48.844736 212.009848 
L 45.989905 204.660174 
z
" style="fill:#2ca02c;fill-opacity:0.3;"/>
   </g>
   <g id="PolyCollection_4">
    <path clip-path="url(#p6ddc98eb5c)" d="M 45.947506 209.682793 
L 45.947506 222.192564 
L 48.734129 218.95767 
L 51.61311 223.118253 
L 54.480287 219.365744 
L 57.371969 216.748723 
L 60.236074 222.15933 
L 63.031424 223.17935 
L 65.858405 216.527871 
L 68.728937 222.87587 
L 71.47867 224.200334 
L 74.213573 224.750445 
L 76.991409 221.95995 
L 79.834631 220.983841 
L 82.702235 220.775609 
L 85.511147 221.023641 
L 88.262956 218.861169 
L 91.107926 222.184223 
L 93.825256 221.586285 
L 96.735418 219.05894 
L 99.529793 221.312721 
L 102.363172 223.215728 
L 105.149432 219.167457 
L 107.968362 220.164934 
L 110.807121 220.372369 
L 113.658844 224.749096 
L 116.532677 220.954149 
L 119.333151 221.325011 
L 122.285183 216.980843 
L 125.115434 223.100422 
L 127.89695 222.793499 
L 130.579578 225.28657 
L 133.383818 216.364661 
L 136.421843 219.505468 
L 139.253321 219.933526 
L 142.139694 217.434648 
L 145.108633 221.506549 
L 147.828125 228.801258 
L 150.555201 219.839234 
L 153.463468 216.583379 
L 156.427759 220.835593 
L 159.301266 217.5661 
L 162.155163 223.475151 
L 164.932593 220.535868 
L 167.870659 215.26743 
L 170.808454 223.853489 
L 173.614992 222.421168 
L 176.420562 222.55463 
L 179.243332 216.940586 
L 182.136246 220.434337 
L 184.910652 219.855755 
L 187.820292 216.686505 
L 190.721621 218.769895 
L 193.725003 219.357273 
L 196.576816 223.205341 
L 199.419534 217.127538 
L 202.402065 216.783383 
L 205.262987 218.165477 
L 208.213813 214.954142 
L 211.070553 223.15252 
L 213.856476 220.799634 
L 216.755029 223.541957 
L 219.562391 222.087494 
L 222.436824 216.472805 
L 225.388662 219.98681 
L 228.206133 221.800661 
L 231.002408 220.06431 
L 233.796887 220.984909 
L 236.598819 225.016836 
L 239.344445 220.524955 
L 242.051856 223.372829 
L 244.915474 215.574312 
L 247.828251 217.11617 
L 250.746857 223.016095 
L 253.651353 218.724647 
L 256.56614 217.469577 
L 259.566567 219.92174 
L 262.448095 215.587345 
L 265.360677 221.457004 
L 268.131075 221.193328 
L 270.961144 218.070033 
L 270.961144 206.992205 
L 270.961144 206.992205 
L 268.131075 209.37739 
L 265.360677 208.968753 
L 262.448095 205.126093 
L 259.566567 210.938897 
L 256.56614 203.0989 
L 253.651353 206.627511 
L 250.746857 210.888703 
L 247.828251 206.641428 
L 244.915474 206.008885 
L 242.051856 212.851329 
L 239.344445 209.755842 
L 236.598819 211.352282 
L 233.796887 210.165648 
L 231.002408 210.071528 
L 228.206133 210.074696 
L 225.388662 206.525028 
L 222.436824 204.820473 
L 219.562391 208.918103 
L 216.755029 209.783 
L 213.856476 209.771083 
L 211.070553 213.071638 
L 208.213813 204.309695 
L 205.262987 206.027001 
L 202.402065 204.219975 
L 199.419534 208.80446 
L 196.576816 214.903296 
L 193.725003 205.415045 
L 190.721621 209.626423 
L 187.820292 203.447093 
L 184.910652 211.004882 
L 182.136246 210.57126 
L 179.243332 207.541811 
L 176.420562 212.654807 
L 173.614992 210.178989 
L 170.808454 212.225709 
L 167.870659 203.271607 
L 164.932593 209.165089 
L 162.155163 211.734286 
L 159.301266 205.176777 
L 156.427759 210.170004 
L 153.463468 205.289739 
L 150.555201 206.527643 
L 147.828125 216.8453 
L 145.108633 207.179689 
L 142.139694 204.438469 
L 139.253321 206.578312 
L 136.421843 207.29629 
L 133.383818 204.638696 
L 130.579578 216.301108 
L 127.89695 212.126019 
L 125.115434 212.833815 
L 122.285183 204.312434 
L 119.333151 209.970506 
L 116.532677 211.356089 
L 113.658844 212.634741 
L 110.807121 204.689868 
L 107.968362 208.376343 
L 105.149432 209.66374 
L 102.363172 212.283629 
L 99.529793 208.243277 
L 96.735418 208.322658 
L 93.825256 208.549553 
L 91.107926 213.315135 
L 88.262956 208.810349 
L 85.511147 209.112197 
L 82.702235 211.099749 
L 79.834631 208.137277 
L 76.991409 210.060367 
L 74.213573 211.908592 
L 71.47867 211.154063 
L 68.728937 208.854528 
L 65.858405 206.794846 
L 63.031424 210.435527 
L 60.236074 211.310587 
L 57.371969 205.269355 
L 54.480287 208.595694 
L 51.61311 210.641584 
L 48.734129 207.844087 
L 45.947506 209.682793 
z
" style="fill:#d62728;fill-opacity:0.3;"/>
   </g>
   <g id="PolyCollection_5">
    <path clip-path="url(#p6ddc98eb5c)" d="M 46.109984 193.470745 
L 46.109984 207.093253 
L 49.267867 203.146745 
L 52.720026 174.559958 
L 56.177519 188.711683 
L 59.46316 202.714812 
L 62.848298 185.119519 
L 66.009847 223.336012 
L 68.347538 241.648639 
L 70.897672 214.230108 
L 74.181709 190.76015 
L 77.308263 207.959803 
L 80.600332 179.828932 
L 84.01922 177.903668 
L 87.26143 186.29662 
L 90.280691 209.981388 
L 93.52434 194.800262 
L 96.767077 181.582658 
L 100.151856 176.959291 
L 103.673008 171.07347 
L 107.254613 165.115087 
L 110.895941 154.640773 
L 114.70776 155.920833 
L 118.541925 148.177711 
L 122.448537 148.261668 
L 126.21533 154.479852 
L 129.945013 151.21203 
L 133.779749 137.703598 
L 137.777985 141.911747 
L 141.529768 143.195259 
L 145.389725 132.395098 
L 149.514815 123.872835 
L 153.555347 130.770114 
L 157.73399 118.757082 
L 161.924461 120.49998 
L 166.182732 115.467111 
L 170.373066 116.771904 
L 174.561603 117.784406 
L 178.707701 111.900574 
L 183.032295 105.119917 
L 187.412641 112.247464 
L 191.545742 118.360595 
L 195.924866 104.396728 
L 200.43239 104.049344 
L 205.030716 91.197051 
L 209.621175 100.208229 
L 214.231415 93.47526 
L 218.969828 86.543135 
L 223.68606 94.210771 
L 228.296831 96.698226 
L 233.012888 88.17908 
L 237.700348 87.684639 
L 242.668299 81.897363 
L 247.621435 90.050803 
L 252.143446 102.257335 
L 256.781821 87.751083 
L 261.71674 72.997597 
L 266.760071 76.4753 
L 271.599072 88.300918 
L 276.262157 92.437293 
L 281.165121 75.630452 
L 285.896585 93.544629 
L 290.666036 80.1073 
L 295.642422 80.340151 
L 300.721698 73.631521 
L 305.752305 78.370321 
L 310.813921 77.158098 
L 315.838389 73.094503 
L 321.087506 68.467247 
L 326.187636 67.822341 
L 331.443676 64.599884 
L 336.569765 73.348624 
L 341.545866 85.358339 
L 346.43019 68.547881 
L 351.5946 64.490638 
L 356.743441 75.040249 
L 361.797206 64.611356 
L 367.039059 69.826996 
L 372.169108 68.150285 
L 377.197188 69.806148 
L 382.267569 76.22367 
L 382.267569 63.702247 
L 382.267569 63.702247 
L 377.197188 55.188889 
L 372.169108 53.800592 
L 367.039059 56.762601 
L 361.797206 49.946562 
L 356.743441 59.377189 
L 351.5946 50.792079 
L 346.43019 53.837876 
L 341.545866 69.643418 
L 336.569765 60.054093 
L 331.443676 49.958034 
L 326.187636 52.244057 
L 321.087506 52.613871 
L 315.838389 55.089654 
L 310.813921 61.608139 
L 305.752305 61.845517 
L 300.721698 57.596796 
L 295.642422 65.529126 
L 290.666036 64.747257 
L 285.896585 80.012009 
L 281.165121 61.396266 
L 276.262157 78.799985 
L 271.599072 74.52868 
L 266.760071 62.145977 
L 261.71674 57.360961 
L 256.781821 71.019634 
L 252.143446 86.375143 
L 247.621435 73.938475 
L 242.668299 66.871114 
L 237.700348 74.710079 
L 233.012888 72.476118 
L 228.296831 82.076971 
L 223.68606 79.490827 
L 218.969828 71.212863 
L 214.231415 80.516258 
L 209.621175 83.205688 
L 205.030716 76.851107 
L 200.43239 87.337373 
L 195.924866 88.584549 
L 191.545742 102.887882 
L 187.412641 96.824374 
L 183.032295 91.77528 
L 178.707701 99.055744 
L 174.561603 106.508232 
L 170.373066 102.882013 
L 166.182732 100.852727 
L 161.924461 106.981778 
L 157.73399 104.810755 
L 153.555347 116.861083 
L 149.514815 109.262363 
L 145.389725 116.83066 
L 141.529768 130.093858 
L 137.777985 128.333211 
L 133.779749 123.553839 
L 129.945013 137.877727 
L 126.21533 141.133105 
L 122.448537 134.014969 
L 118.541925 136.273326 
L 114.70776 140.561885 
L 110.895941 140.537305 
L 107.254613 152.531791 
L 103.673008 155.850848 
L 100.151856 163.011427 
L 96.767077 168.535259 
L 93.52434 179.381015 
L 90.280691 193.336849 
L 87.26143 172.373938 
L 84.01922 164.96625 
L 80.600332 166.520025 
L 77.308263 194.343714 
L 74.181709 175.593288 
L 70.897672 199.235329 
L 68.347538 233.279838 
L 66.009847 206.944785 
L 62.848298 173.261118 
L 59.46316 190.601186 
L 56.177519 174.887514 
L 52.720026 164.396039 
L 49.267867 189.879333 
L 46.109984 193.470745 
z
" style="fill:#9467bd;fill-opacity:0.3;"/>
   </g>
   <g id="matplotlib.axis_1">
    <g id="xtick_1">
     <g id="line2d_1">
      <path clip-path="url(#p6ddc98eb5c)" d="M 44.474375 246.596719 
L 44.474375 29.156719 
" style="fill:none;stroke:#b0b0b0;stroke-linecap:square;stroke-width:0.8;"/>
     </g>
     <g id="line2d_2">
      <defs>
       <path d="M 0 0 
L 0 3.5 
" id="me48f22ee8f" style="stroke:#000000;stroke-width:0.8;"/>
      </defs>
      <g>
       <use style="stroke:#000000;stroke-width:0.8;" x="44.474375" xlink:href="#me48f22ee8f" y="246.596719"/>
      </g>
     </g>
     <g id="text_1">
      <!-- 0.00 -->
      <defs>
       <path d="M 31.78125 66.40625 
Q 24.171875 66.40625 20.328125 58.90625 
Q 16.5 51.421875 16.5 36.375 
Q 16.5 21.390625 20.328125 13.890625 
Q 24.171875 6.390625 31.78125 6.390625 
Q 39.453125 6.390625 43.28125 13.890625 
Q 47.125 21.390625 47.125 36.375 
Q 47.125 51.421875 43.28125 58.90625 
Q 39.453125 66.40625 31.78125 66.40625 
z
M 31.78125 74.21875 
Q 44.046875 74.21875 50.515625 64.515625 
Q 56.984375 54.828125 56.984375 36.375 
Q 56.984375 17.96875 50.515625 8.265625 
Q 44.046875 -1.421875 31.78125 -1.421875 
Q 19.53125 -1.421875 13.0625 8.265625 
Q 6.59375 17.96875 6.59375 36.375 
Q 6.59375 54.828125 13.0625 64.515625 
Q 19.53125 74.21875 31.78125 74.21875 
z
" id="DejaVuSans-48"/>
       <path d="M 10.6875 12.40625 
L 21 12.40625 
L 21 0 
L 10.6875 0 
z
" id="DejaVuSans-46"/>
      </defs>
      <g transform="translate(33.341563 261.195156)scale(0.1 -0.1)">
       <use xlink:href="#DejaVuSans-48"/>
       <use x="63.623047" xlink:href="#DejaVuSans-46"/>
       <use x="95.410156" xlink:href="#DejaVuSans-48"/>
       <use x="159.033203" xlink:href="#DejaVuSans-48"/>
      </g>
     </g>
    </g>
    <g id="xtick_2">
     <g id="line2d_3">
      <path clip-path="url(#p6ddc98eb5c)" d="M 82.51983 246.596719 
L 82.51983 29.156719 
" style="fill:none;stroke:#b0b0b0;stroke-linecap:square;stroke-width:0.8;"/>
     </g>
     <g id="line2d_4">
      <g>
       <use style="stroke:#000000;stroke-width:0.8;" x="82.51983" xlink:href="#me48f22ee8f" y="246.596719"/>
      </g>
     </g>
     <g id="text_2">
      <!-- 0.25 -->
      <defs>
       <path d="M 19.1875 8.296875 
L 53.609375 8.296875 
L 53.609375 0 
L 7.328125 0 
L 7.328125 8.296875 
Q 12.9375 14.109375 22.625 23.890625 
Q 32.328125 33.6875 34.8125 36.53125 
Q 39.546875 41.84375 41.421875 45.53125 
Q 43.3125 49.21875 43.3125 52.78125 
Q 43.3125 58.59375 39.234375 62.25 
Q 35.15625 65.921875 28.609375 65.921875 
Q 23.96875 65.921875 18.8125 64.3125 
Q 13.671875 62.703125 7.8125 59.421875 
L 7.8125 69.390625 
Q 13.765625 71.78125 18.9375 73 
Q 24.125 74.21875 28.421875 74.21875 
Q 39.75 74.21875 46.484375 68.546875 
Q 53.21875 62.890625 53.21875 53.421875 
Q 53.21875 48.921875 51.53125 44.890625 
Q 49.859375 40.875 45.40625 35.40625 
Q 44.1875 33.984375 37.640625 27.21875 
Q 31.109375 20.453125 19.1875 8.296875 
z
" id="DejaVuSans-50"/>
       <path d="M 10.796875 72.90625 
L 49.515625 72.90625 
L 49.515625 64.59375 
L 19.828125 64.59375 
L 19.828125 46.734375 
Q 21.96875 47.46875 24.109375 47.828125 
Q 26.265625 48.1875 28.421875 48.1875 
Q 40.625 48.1875 47.75 41.5 
Q 54.890625 34.8125 54.890625 23.390625 
Q 54.890625 11.625 47.5625 5.09375 
Q 40.234375 -1.421875 26.90625 -1.421875 
Q 22.3125 -1.421875 17.546875 -0.640625 
Q 12.796875 0.140625 7.71875 1.703125 
L 7.71875 11.625 
Q 12.109375 9.234375 16.796875 8.0625 
Q 21.484375 6.890625 26.703125 6.890625 
Q 35.15625 6.890625 40.078125 11.328125 
Q 45.015625 15.765625 45.015625 23.390625 
Q 45.015625 31 40.078125 35.4375 
Q 35.15625 39.890625 26.703125 39.890625 
Q 22.75 39.890625 18.8125 39.015625 
Q 14.890625 38.140625 10.796875 36.28125 
z
" id="DejaVuSans-53"/>
      </defs>
      <g transform="translate(71.387017 261.195156)scale(0.1 -0.1)">
       <use xlink:href="#DejaVuSans-48"/>
       <use x="63.623047" xlink:href="#DejaVuSans-46"/>
       <use x="95.410156" xlink:href="#DejaVuSans-50"/>
       <use x="159.033203" xlink:href="#DejaVuSans-53"/>
      </g>
     </g>
    </g>
    <g id="xtick_3">
     <g id="line2d_5">
      <path clip-path="url(#p6ddc98eb5c)" d="M 120.565284 246.596719 
L 120.565284 29.156719 
" style="fill:none;stroke:#b0b0b0;stroke-linecap:square;stroke-width:0.8;"/>
     </g>
     <g id="line2d_6">
      <g>
       <use style="stroke:#000000;stroke-width:0.8;" x="120.565284" xlink:href="#me48f22ee8f" y="246.596719"/>
      </g>
     </g>
     <g id="text_3">
      <!-- 0.50 -->
      <g transform="translate(109.432472 261.195156)scale(0.1 -0.1)">
       <use xlink:href="#DejaVuSans-48"/>
       <use x="63.623047" xlink:href="#DejaVuSans-46"/>
       <use x="95.410156" xlink:href="#DejaVuSans-53"/>
       <use x="159.033203" xlink:href="#DejaVuSans-48"/>
      </g>
     </g>
    </g>
    <g id="xtick_4">
     <g id="line2d_7">
      <path clip-path="url(#p6ddc98eb5c)" d="M 158.610739 246.596719 
L 158.610739 29.156719 
" style="fill:none;stroke:#b0b0b0;stroke-linecap:square;stroke-width:0.8;"/>
     </g>
     <g id="line2d_8">
      <g>
       <use style="stroke:#000000;stroke-width:0.8;" x="158.610739" xlink:href="#me48f22ee8f" y="246.596719"/>
      </g>
     </g>
     <g id="text_4">
      <!-- 0.75 -->
      <defs>
       <path d="M 8.203125 72.90625 
L 55.078125 72.90625 
L 55.078125 68.703125 
L 28.609375 0 
L 18.3125 0 
L 43.21875 64.59375 
L 8.203125 64.59375 
z
" id="DejaVuSans-55"/>
      </defs>
      <g transform="translate(147.477926 261.195156)scale(0.1 -0.1)">
       <use xlink:href="#DejaVuSans-48"/>
       <use x="63.623047" xlink:href="#DejaVuSans-46"/>
       <use x="95.410156" xlink:href="#DejaVuSans-55"/>
       <use x="159.033203" xlink:href="#DejaVuSans-53"/>
      </g>
     </g>
    </g>
    <g id="xtick_5">
     <g id="line2d_9">
      <path clip-path="url(#p6ddc98eb5c)" d="M 196.656193 246.596719 
L 196.656193 29.156719 
" style="fill:none;stroke:#b0b0b0;stroke-linecap:square;stroke-width:0.8;"/>
     </g>
     <g id="line2d_10">
      <g>
       <use style="stroke:#000000;stroke-width:0.8;" x="196.656193" xlink:href="#me48f22ee8f" y="246.596719"/>
      </g>
     </g>
     <g id="text_5">
      <!-- 1.00 -->
      <defs>
       <path d="M 12.40625 8.296875 
L 28.515625 8.296875 
L 28.515625 63.921875 
L 10.984375 60.40625 
L 10.984375 69.390625 
L 28.421875 72.90625 
L 38.28125 72.90625 
L 38.28125 8.296875 
L 54.390625 8.296875 
L 54.390625 0 
L 12.40625 0 
z
" id="DejaVuSans-49"/>
      </defs>
      <g transform="translate(185.523381 261.195156)scale(0.1 -0.1)">
       <use xlink:href="#DejaVuSans-49"/>
       <use x="63.623047" xlink:href="#DejaVuSans-46"/>
       <use x="95.410156" xlink:href="#DejaVuSans-48"/>
       <use x="159.033203" xlink:href="#DejaVuSans-48"/>
      </g>
     </g>
    </g>
    <g id="xtick_6">
     <g id="line2d_11">
      <path clip-path="url(#p6ddc98eb5c)" d="M 234.701648 246.596719 
L 234.701648 29.156719 
" style="fill:none;stroke:#b0b0b0;stroke-linecap:square;stroke-width:0.8;"/>
     </g>
     <g id="line2d_12">
      <g>
       <use style="stroke:#000000;stroke-width:0.8;" x="234.701648" xlink:href="#me48f22ee8f" y="246.596719"/>
      </g>
     </g>
     <g id="text_6">
      <!-- 1.25 -->
      <g transform="translate(223.568835 261.195156)scale(0.1 -0.1)">
       <use xlink:href="#DejaVuSans-49"/>
       <use x="63.623047" xlink:href="#DejaVuSans-46"/>
       <use x="95.410156" xlink:href="#DejaVuSans-50"/>
       <use x="159.033203" xlink:href="#DejaVuSans-53"/>
      </g>
     </g>
    </g>
    <g id="xtick_7">
     <g id="line2d_13">
      <path clip-path="url(#p6ddc98eb5c)" d="M 272.747102 246.596719 
L 272.747102 29.156719 
" style="fill:none;stroke:#b0b0b0;stroke-linecap:square;stroke-width:0.8;"/>
     </g>
     <g id="line2d_14">
      <g>
       <use style="stroke:#000000;stroke-width:0.8;" x="272.747102" xlink:href="#me48f22ee8f" y="246.596719"/>
      </g>
     </g>
     <g id="text_7">
      <!-- 1.50 -->
      <g transform="translate(261.61429 261.195156)scale(0.1 -0.1)">
       <use xlink:href="#DejaVuSans-49"/>
       <use x="63.623047" xlink:href="#DejaVuSans-46"/>
       <use x="95.410156" xlink:href="#DejaVuSans-53"/>
       <use x="159.033203" xlink:href="#DejaVuSans-48"/>
      </g>
     </g>
    </g>
    <g id="xtick_8">
     <g id="line2d_15">
      <path clip-path="url(#p6ddc98eb5c)" d="M 310.792557 246.596719 
L 310.792557 29.156719 
" style="fill:none;stroke:#b0b0b0;stroke-linecap:square;stroke-width:0.8;"/>
     </g>
     <g id="line2d_16">
      <g>
       <use style="stroke:#000000;stroke-width:0.8;" x="310.792557" xlink:href="#me48f22ee8f" y="246.596719"/>
      </g>
     </g>
     <g id="text_8">
      <!-- 1.75 -->
      <g transform="translate(299.659744 261.195156)scale(0.1 -0.1)">
       <use xlink:href="#DejaVuSans-49"/>
       <use x="63.623047" xlink:href="#DejaVuSans-46"/>
       <use x="95.410156" xlink:href="#DejaVuSans-55"/>
       <use x="159.033203" xlink:href="#DejaVuSans-53"/>
      </g>
     </g>
    </g>
    <g id="xtick_9">
     <g id="line2d_17">
      <path clip-path="url(#p6ddc98eb5c)" d="M 348.838011 246.596719 
L 348.838011 29.156719 
" style="fill:none;stroke:#b0b0b0;stroke-linecap:square;stroke-width:0.8;"/>
     </g>
     <g id="line2d_18">
      <g>
       <use style="stroke:#000000;stroke-width:0.8;" x="348.838011" xlink:href="#me48f22ee8f" y="246.596719"/>
      </g>
     </g>
     <g id="text_9">
      <!-- 2.00 -->
      <g transform="translate(337.705199 261.195156)scale(0.1 -0.1)">
       <use xlink:href="#DejaVuSans-50"/>
       <use x="63.623047" xlink:href="#DejaVuSans-46"/>
       <use x="95.410156" xlink:href="#DejaVuSans-48"/>
       <use x="159.033203" xlink:href="#DejaVuSans-48"/>
      </g>
     </g>
    </g>
    <g id="text_10">
     <!-- Rendered frames -->
     <defs>
      <path d="M 44.390625 34.1875 
Q 47.5625 33.109375 50.5625 29.59375 
Q 53.5625 26.078125 56.59375 19.921875 
L 66.609375 0 
L 56 0 
L 46.6875 18.703125 
Q 43.0625 26.03125 39.671875 28.421875 
Q 36.28125 30.8125 30.421875 30.8125 
L 19.671875 30.8125 
L 19.671875 0 
L 9.8125 0 
L 9.8125 72.90625 
L 32.078125 72.90625 
Q 44.578125 72.90625 50.734375 67.671875 
Q 56.890625 62.453125 56.890625 51.90625 
Q 56.890625 45.015625 53.6875 40.46875 
Q 50.484375 35.9375 44.390625 34.1875 
z
M 19.671875 64.796875 
L 19.671875 38.921875 
L 32.078125 38.921875 
Q 39.203125 38.921875 42.84375 42.21875 
Q 46.484375 45.515625 46.484375 51.90625 
Q 46.484375 58.296875 42.84375 61.546875 
Q 39.203125 64.796875 32.078125 64.796875 
z
" id="DejaVuSans-82"/>
      <path d="M 56.203125 29.59375 
L 56.203125 25.203125 
L 14.890625 25.203125 
Q 15.484375 15.921875 20.484375 11.0625 
Q 25.484375 6.203125 34.421875 6.203125 
Q 39.59375 6.203125 44.453125 7.46875 
Q 49.3125 8.734375 54.109375 11.28125 
L 54.109375 2.78125 
Q 49.265625 0.734375 44.1875 -0.34375 
Q 39.109375 -1.421875 33.890625 -1.421875 
Q 20.796875 -1.421875 13.15625 6.1875 
Q 5.515625 13.8125 5.515625 26.8125 
Q 5.515625 40.234375 12.765625 48.109375 
Q 20.015625 56 32.328125 56 
Q 43.359375 56 49.78125 48.890625 
Q 56.203125 41.796875 56.203125 29.59375 
z
M 47.21875 32.234375 
Q 47.125 39.59375 43.09375 43.984375 
Q 39.0625 48.390625 32.421875 48.390625 
Q 24.90625 48.390625 20.390625 44.140625 
Q 15.875 39.890625 15.1875 32.171875 
z
" id="DejaVuSans-101"/>
      <path d="M 54.890625 33.015625 
L 54.890625 0 
L 45.90625 0 
L 45.90625 32.71875 
Q 45.90625 40.484375 42.875 44.328125 
Q 39.84375 48.1875 33.796875 48.1875 
Q 26.515625 48.1875 22.3125 43.546875 
Q 18.109375 38.921875 18.109375 30.90625 
L 18.109375 0 
L 9.078125 0 
L 9.078125 54.6875 
L 18.109375 54.6875 
L 18.109375 46.1875 
Q 21.34375 51.125 25.703125 53.5625 
Q 30.078125 56 35.796875 56 
Q 45.21875 56 50.046875 50.171875 
Q 54.890625 44.34375 54.890625 33.015625 
z
" id="DejaVuSans-110"/>
      <path d="M 45.40625 46.390625 
L 45.40625 75.984375 
L 54.390625 75.984375 
L 54.390625 0 
L 45.40625 0 
L 45.40625 8.203125 
Q 42.578125 3.328125 38.25 0.953125 
Q 33.9375 -1.421875 27.875 -1.421875 
Q 17.96875 -1.421875 11.734375 6.484375 
Q 5.515625 14.40625 5.515625 27.296875 
Q 5.515625 40.1875 11.734375 48.09375 
Q 17.96875 56 27.875 56 
Q 33.9375 56 38.25 53.625 
Q 42.578125 51.265625 45.40625 46.390625 
z
M 14.796875 27.296875 
Q 14.796875 17.390625 18.875 11.75 
Q 22.953125 6.109375 30.078125 6.109375 
Q 37.203125 6.109375 41.296875 11.75 
Q 45.40625 17.390625 45.40625 27.296875 
Q 45.40625 37.203125 41.296875 42.84375 
Q 37.203125 48.484375 30.078125 48.484375 
Q 22.953125 48.484375 18.875 42.84375 
Q 14.796875 37.203125 14.796875 27.296875 
z
" id="DejaVuSans-100"/>
      <path d="M 41.109375 46.296875 
Q 39.59375 47.171875 37.8125 47.578125 
Q 36.03125 48 33.890625 48 
Q 26.265625 48 22.1875 43.046875 
Q 18.109375 38.09375 18.109375 28.8125 
L 18.109375 0 
L 9.078125 0 
L 9.078125 54.6875 
L 18.109375 54.6875 
L 18.109375 46.1875 
Q 20.953125 51.171875 25.484375 53.578125 
Q 30.03125 56 36.53125 56 
Q 37.453125 56 38.578125 55.875 
Q 39.703125 55.765625 41.0625 55.515625 
z
" id="DejaVuSans-114"/>
      <path id="DejaVuSans-32"/>
      <path d="M 37.109375 75.984375 
L 37.109375 68.5 
L 28.515625 68.5 
Q 23.6875 68.5 21.796875 66.546875 
Q 19.921875 64.59375 19.921875 59.515625 
L 19.921875 54.6875 
L 34.71875 54.6875 
L 34.71875 47.703125 
L 19.921875 47.703125 
L 19.921875 0 
L 10.890625 0 
L 10.890625 47.703125 
L 2.296875 47.703125 
L 2.296875 54.6875 
L 10.890625 54.6875 
L 10.890625 58.5 
Q 10.890625 67.625 15.140625 71.796875 
Q 19.390625 75.984375 28.609375 75.984375 
z
" id="DejaVuSans-102"/>
      <path d="M 34.28125 27.484375 
Q 23.390625 27.484375 19.1875 25 
Q 14.984375 22.515625 14.984375 16.5 
Q 14.984375 11.71875 18.140625 8.90625 
Q 21.296875 6.109375 26.703125 6.109375 
Q 34.1875 6.109375 38.703125 11.40625 
Q 43.21875 16.703125 43.21875 25.484375 
L 43.21875 27.484375 
z
M 52.203125 31.203125 
L 52.203125 0 
L 43.21875 0 
L 43.21875 8.296875 
Q 40.140625 3.328125 35.546875 0.953125 
Q 30.953125 -1.421875 24.3125 -1.421875 
Q 15.921875 -1.421875 10.953125 3.296875 
Q 6 8.015625 6 15.921875 
Q 6 25.140625 12.171875 29.828125 
Q 18.359375 34.515625 30.609375 34.515625 
L 43.21875 34.515625 
L 43.21875 35.40625 
Q 43.21875 41.609375 39.140625 45 
Q 35.0625 48.390625 27.6875 48.390625 
Q 23 48.390625 18.546875 47.265625 
Q 14.109375 46.140625 10.015625 43.890625 
L 10.015625 52.203125 
Q 14.9375 54.109375 19.578125 55.046875 
Q 24.21875 56 28.609375 56 
Q 40.484375 56 46.34375 49.84375 
Q 52.203125 43.703125 52.203125 31.203125 
z
" id="DejaVuSans-97"/>
      <path d="M 52 44.1875 
Q 55.375 50.25 60.0625 53.125 
Q 64.75 56 71.09375 56 
Q 79.640625 56 84.28125 50.015625 
Q 88.921875 44.046875 88.921875 33.015625 
L 88.921875 0 
L 79.890625 0 
L 79.890625 32.71875 
Q 79.890625 40.578125 77.09375 44.375 
Q 74.3125 48.1875 68.609375 48.1875 
Q 61.625 48.1875 57.5625 43.546875 
Q 53.515625 38.921875 53.515625 30.90625 
L 53.515625 0 
L 44.484375 0 
L 44.484375 32.71875 
Q 44.484375 40.625 41.703125 44.40625 
Q 38.921875 48.1875 33.109375 48.1875 
Q 26.21875 48.1875 22.15625 43.53125 
Q 18.109375 38.875 18.109375 30.90625 
L 18.109375 0 
L 9.078125 0 
L 9.078125 54.6875 
L 18.109375 54.6875 
L 18.109375 46.1875 
Q 21.1875 51.21875 25.484375 53.609375 
Q 29.78125 56 35.6875 56 
Q 41.65625 56 45.828125 52.96875 
Q 50 49.953125 52 44.1875 
z
" id="DejaVuSans-109"/>
      <path d="M 44.28125 53.078125 
L 44.28125 44.578125 
Q 40.484375 46.53125 36.375 47.5 
Q 32.28125 48.484375 27.875 48.484375 
Q 21.1875 48.484375 17.84375 46.4375 
Q 14.5 44.390625 14.5 40.28125 
Q 14.5 37.15625 16.890625 35.375 
Q 19.28125 33.59375 26.515625 31.984375 
L 29.59375 31.296875 
Q 39.15625 29.25 43.1875 25.515625 
Q 47.21875 21.78125 47.21875 15.09375 
Q 47.21875 7.46875 41.1875 3.015625 
Q 35.15625 -1.421875 24.609375 -1.421875 
Q 20.21875 -1.421875 15.453125 -0.5625 
Q 10.6875 0.296875 5.421875 2 
L 5.421875 11.28125 
Q 10.40625 8.6875 15.234375 7.390625 
Q 20.0625 6.109375 24.8125 6.109375 
Q 31.15625 6.109375 34.5625 8.28125 
Q 37.984375 10.453125 37.984375 14.40625 
Q 37.984375 18.0625 35.515625 20.015625 
Q 33.0625 21.96875 24.703125 23.78125 
L 21.578125 24.515625 
Q 13.234375 26.265625 9.515625 29.90625 
Q 5.8125 33.546875 5.8125 39.890625 
Q 5.8125 47.609375 11.28125 51.796875 
Q 16.75 56 26.8125 56 
Q 31.78125 56 36.171875 55.265625 
Q 40.578125 54.546875 44.28125 53.078125 
z
" id="DejaVuSans-115"/>
     </defs>
     <g transform="translate(151.265312 277.912656)scale(0.14 -0.14)">
      <use xlink:href="#DejaVuSans-82"/>
      <use x="69.419922" xlink:href="#DejaVuSans-101"/>
      <use x="130.943359" xlink:href="#DejaVuSans-110"/>
      <use x="194.322266" xlink:href="#DejaVuSans-100"/>
      <use x="257.798828" xlink:href="#DejaVuSans-101"/>
      <use x="319.322266" xlink:href="#DejaVuSans-114"/>
      <use x="360.404297" xlink:href="#DejaVuSans-101"/>
      <use x="421.927734" xlink:href="#DejaVuSans-100"/>
      <use x="485.404297" xlink:href="#DejaVuSans-32"/>
      <use x="517.191406" xlink:href="#DejaVuSans-102"/>
      <use x="552.396484" xlink:href="#DejaVuSans-114"/>
      <use x="593.509766" xlink:href="#DejaVuSans-97"/>
      <use x="654.789062" xlink:href="#DejaVuSans-109"/>
      <use x="752.201172" xlink:href="#DejaVuSans-101"/>
      <use x="813.724609" xlink:href="#DejaVuSans-115"/>
     </g>
    </g>
    <g id="text_11">
     <!-- 1e6 -->
     <defs>
      <path d="M 33.015625 40.375 
Q 26.375 40.375 22.484375 35.828125 
Q 18.609375 31.296875 18.609375 23.390625 
Q 18.609375 15.53125 22.484375 10.953125 
Q 26.375 6.390625 33.015625 6.390625 
Q 39.65625 6.390625 43.53125 10.953125 
Q 47.40625 15.53125 47.40625 23.390625 
Q 47.40625 31.296875 43.53125 35.828125 
Q 39.65625 40.375 33.015625 40.375 
z
M 52.59375 71.296875 
L 52.59375 62.3125 
Q 48.875 64.0625 45.09375 64.984375 
Q 41.3125 65.921875 37.59375 65.921875 
Q 27.828125 65.921875 22.671875 59.328125 
Q 17.53125 52.734375 16.796875 39.40625 
Q 19.671875 43.65625 24.015625 45.921875 
Q 28.375 48.1875 33.59375 48.1875 
Q 44.578125 48.1875 50.953125 41.515625 
Q 57.328125 34.859375 57.328125 23.390625 
Q 57.328125 12.15625 50.6875 5.359375 
Q 44.046875 -1.421875 33.015625 -1.421875 
Q 20.359375 -1.421875 13.671875 8.265625 
Q 6.984375 17.96875 6.984375 36.375 
Q 6.984375 53.65625 15.1875 63.9375 
Q 23.390625 74.21875 37.203125 74.21875 
Q 40.921875 74.21875 44.703125 73.484375 
Q 48.484375 72.75 52.59375 71.296875 
z
" id="DejaVuSans-54"/>
     </defs>
     <g transform="translate(360.39625 273.873281)scale(0.1 -0.1)">
      <use xlink:href="#DejaVuSans-49"/>
      <use x="63.623047" xlink:href="#DejaVuSans-101"/>
      <use x="125.146484" xlink:href="#DejaVuSans-54"/>
     </g>
    </g>
   </g>
   <g id="matplotlib.axis_2">
    <g id="ytick_1">
     <g id="line2d_19">
      <path clip-path="url(#p6ddc98eb5c)" d="M 44.474375 246.596719 
L 379.274375 246.596719 
" style="fill:none;stroke:#b0b0b0;stroke-linecap:square;stroke-width:0.8;"/>
     </g>
     <g id="line2d_20">
      <defs>
       <path d="M 0 0 
L -3.5 0 
" id="m6239efb6c4" style="stroke:#000000;stroke-width:0.8;"/>
      </defs>
      <g>
       <use style="stroke:#000000;stroke-width:0.8;" x="44.474375" xlink:href="#m6239efb6c4" y="246.596719"/>
      </g>
     </g>
     <g id="text_12">
      <!-- 5 -->
      <g transform="translate(31.111875 250.395937)scale(0.1 -0.1)">
       <use xlink:href="#DejaVuSans-53"/>
      </g>
     </g>
    </g>
    <g id="ytick_2">
     <g id="line2d_21">
      <path clip-path="url(#p6ddc98eb5c)" d="M 44.474375 210.356719 
L 379.274375 210.356719 
" style="fill:none;stroke:#b0b0b0;stroke-linecap:square;stroke-width:0.8;"/>
     </g>
     <g id="line2d_22">
      <g>
       <use style="stroke:#000000;stroke-width:0.8;" x="44.474375" xlink:href="#m6239efb6c4" y="210.356719"/>
      </g>
     </g>
     <g id="text_13">
      <!-- 10 -->
      <g transform="translate(24.749375 214.155937)scale(0.1 -0.1)">
       <use xlink:href="#DejaVuSans-49"/>
       <use x="63.623047" xlink:href="#DejaVuSans-48"/>
      </g>
     </g>
    </g>
    <g id="ytick_3">
     <g id="line2d_23">
      <path clip-path="url(#p6ddc98eb5c)" d="M 44.474375 174.116719 
L 379.274375 174.116719 
" style="fill:none;stroke:#b0b0b0;stroke-linecap:square;stroke-width:0.8;"/>
     </g>
     <g id="line2d_24">
      <g>
       <use style="stroke:#000000;stroke-width:0.8;" x="44.474375" xlink:href="#m6239efb6c4" y="174.116719"/>
      </g>
     </g>
     <g id="text_14">
      <!-- 15 -->
      <g transform="translate(24.749375 177.915937)scale(0.1 -0.1)">
       <use xlink:href="#DejaVuSans-49"/>
       <use x="63.623047" xlink:href="#DejaVuSans-53"/>
      </g>
     </g>
    </g>
    <g id="ytick_4">
     <g id="line2d_25">
      <path clip-path="url(#p6ddc98eb5c)" d="M 44.474375 137.876719 
L 379.274375 137.876719 
" style="fill:none;stroke:#b0b0b0;stroke-linecap:square;stroke-width:0.8;"/>
     </g>
     <g id="line2d_26">
      <g>
       <use style="stroke:#000000;stroke-width:0.8;" x="44.474375" xlink:href="#m6239efb6c4" y="137.876719"/>
      </g>
     </g>
     <g id="text_15">
      <!-- 20 -->
      <g transform="translate(24.749375 141.675937)scale(0.1 -0.1)">
       <use xlink:href="#DejaVuSans-50"/>
       <use x="63.623047" xlink:href="#DejaVuSans-48"/>
      </g>
     </g>
    </g>
    <g id="ytick_5">
     <g id="line2d_27">
      <path clip-path="url(#p6ddc98eb5c)" d="M 44.474375 101.636719 
L 379.274375 101.636719 
" style="fill:none;stroke:#b0b0b0;stroke-linecap:square;stroke-width:0.8;"/>
     </g>
     <g id="line2d_28">
      <g>
       <use style="stroke:#000000;stroke-width:0.8;" x="44.474375" xlink:href="#m6239efb6c4" y="101.636719"/>
      </g>
     </g>
     <g id="text_16">
      <!-- 25 -->
      <g transform="translate(24.749375 105.435937)scale(0.1 -0.1)">
       <use xlink:href="#DejaVuSans-50"/>
       <use x="63.623047" xlink:href="#DejaVuSans-53"/>
      </g>
     </g>
    </g>
    <g id="ytick_6">
     <g id="line2d_29">
      <path clip-path="url(#p6ddc98eb5c)" d="M 44.474375 65.396719 
L 379.274375 65.396719 
" style="fill:none;stroke:#b0b0b0;stroke-linecap:square;stroke-width:0.8;"/>
     </g>
     <g id="line2d_30">
      <g>
       <use style="stroke:#000000;stroke-width:0.8;" x="44.474375" xlink:href="#m6239efb6c4" y="65.396719"/>
      </g>
     </g>
     <g id="text_17">
      <!-- 30 -->
      <defs>
       <path d="M 40.578125 39.3125 
Q 47.65625 37.796875 51.625 33 
Q 55.609375 28.21875 55.609375 21.1875 
Q 55.609375 10.40625 48.1875 4.484375 
Q 40.765625 -1.421875 27.09375 -1.421875 
Q 22.515625 -1.421875 17.65625 -0.515625 
Q 12.796875 0.390625 7.625 2.203125 
L 7.625 11.71875 
Q 11.71875 9.328125 16.59375 8.109375 
Q 21.484375 6.890625 26.8125 6.890625 
Q 36.078125 6.890625 40.9375 10.546875 
Q 45.796875 14.203125 45.796875 21.1875 
Q 45.796875 27.640625 41.28125 31.265625 
Q 36.765625 34.90625 28.71875 34.90625 
L 20.21875 34.90625 
L 20.21875 43.015625 
L 29.109375 43.015625 
Q 36.375 43.015625 40.234375 45.921875 
Q 44.09375 48.828125 44.09375 54.296875 
Q 44.09375 59.90625 40.109375 62.90625 
Q 36.140625 65.921875 28.71875 65.921875 
Q 24.65625 65.921875 20.015625 65.03125 
Q 15.375 64.15625 9.8125 62.3125 
L 9.8125 71.09375 
Q 15.4375 72.65625 20.34375 73.4375 
Q 25.25 74.21875 29.59375 74.21875 
Q 40.828125 74.21875 47.359375 69.109375 
Q 53.90625 64.015625 53.90625 55.328125 
Q 53.90625 49.265625 50.4375 45.09375 
Q 46.96875 40.921875 40.578125 39.3125 
z
" id="DejaVuSans-51"/>
      </defs>
      <g transform="translate(24.749375 69.195937)scale(0.1 -0.1)">
       <use xlink:href="#DejaVuSans-51"/>
       <use x="63.623047" xlink:href="#DejaVuSans-48"/>
      </g>
     </g>
    </g>
    <g id="ytick_7">
     <g id="line2d_31">
      <path clip-path="url(#p6ddc98eb5c)" d="M 44.474375 29.156719 
L 379.274375 29.156719 
" style="fill:none;stroke:#b0b0b0;stroke-linecap:square;stroke-width:0.8;"/>
     </g>
     <g id="line2d_32">
      <g>
       <use style="stroke:#000000;stroke-width:0.8;" x="44.474375" xlink:href="#m6239efb6c4" y="29.156719"/>
      </g>
     </g>
     <g id="text_18">
      <!-- 35 -->
      <g transform="translate(24.749375 32.955937)scale(0.1 -0.1)">
       <use xlink:href="#DejaVuSans-51"/>
       <use x="63.623047" xlink:href="#DejaVuSans-53"/>
      </g>
     </g>
    </g>
    <g id="text_19">
     <!-- Average kills -->
     <defs>
      <path d="M 34.1875 63.1875 
L 20.796875 26.90625 
L 47.609375 26.90625 
z
M 28.609375 72.90625 
L 39.796875 72.90625 
L 67.578125 0 
L 57.328125 0 
L 50.6875 18.703125 
L 17.828125 18.703125 
L 11.1875 0 
L 0.78125 0 
z
" id="DejaVuSans-65"/>
      <path d="M 2.984375 54.6875 
L 12.5 54.6875 
L 29.59375 8.796875 
L 46.6875 54.6875 
L 56.203125 54.6875 
L 35.6875 0 
L 23.484375 0 
z
" id="DejaVuSans-118"/>
      <path d="M 45.40625 27.984375 
Q 45.40625 37.75 41.375 43.109375 
Q 37.359375 48.484375 30.078125 48.484375 
Q 22.859375 48.484375 18.828125 43.109375 
Q 14.796875 37.75 14.796875 27.984375 
Q 14.796875 18.265625 18.828125 12.890625 
Q 22.859375 7.515625 30.078125 7.515625 
Q 37.359375 7.515625 41.375 12.890625 
Q 45.40625 18.265625 45.40625 27.984375 
z
M 54.390625 6.78125 
Q 54.390625 -7.171875 48.1875 -13.984375 
Q 42 -20.796875 29.203125 -20.796875 
Q 24.46875 -20.796875 20.265625 -20.09375 
Q 16.0625 -19.390625 12.109375 -17.921875 
L 12.109375 -9.1875 
Q 16.0625 -11.328125 19.921875 -12.34375 
Q 23.78125 -13.375 27.78125 -13.375 
Q 36.625 -13.375 41.015625 -8.765625 
Q 45.40625 -4.15625 45.40625 5.171875 
L 45.40625 9.625 
Q 42.625 4.78125 38.28125 2.390625 
Q 33.9375 0 27.875 0 
Q 17.828125 0 11.671875 7.65625 
Q 5.515625 15.328125 5.515625 27.984375 
Q 5.515625 40.671875 11.671875 48.328125 
Q 17.828125 56 27.875 56 
Q 33.9375 56 38.28125 53.609375 
Q 42.625 51.21875 45.40625 46.390625 
L 45.40625 54.6875 
L 54.390625 54.6875 
z
" id="DejaVuSans-103"/>
      <path d="M 9.078125 75.984375 
L 18.109375 75.984375 
L 18.109375 31.109375 
L 44.921875 54.6875 
L 56.390625 54.6875 
L 27.390625 29.109375 
L 57.625 0 
L 45.90625 0 
L 18.109375 26.703125 
L 18.109375 0 
L 9.078125 0 
z
" id="DejaVuSans-107"/>
      <path d="M 9.421875 54.6875 
L 18.40625 54.6875 
L 18.40625 0 
L 9.421875 0 
z
M 9.421875 75.984375 
L 18.40625 75.984375 
L 18.40625 64.59375 
L 9.421875 64.59375 
z
" id="DejaVuSans-105"/>
      <path d="M 9.421875 75.984375 
L 18.40625 75.984375 
L 18.40625 0 
L 9.421875 0 
z
" id="DejaVuSans-108"/>
     </defs>
     <g transform="translate(17.837813 182.787187)rotate(-90)scale(0.14 -0.14)">
      <use xlink:href="#DejaVuSans-65"/>
      <use x="68.330078" xlink:href="#DejaVuSans-118"/>
      <use x="127.509766" xlink:href="#DejaVuSans-101"/>
      <use x="189.033203" xlink:href="#DejaVuSans-114"/>
      <use x="230.146484" xlink:href="#DejaVuSans-97"/>
      <use x="291.425781" xlink:href="#DejaVuSans-103"/>
      <use x="354.902344" xlink:href="#DejaVuSans-101"/>
      <use x="416.425781" xlink:href="#DejaVuSans-32"/>
      <use x="448.212891" xlink:href="#DejaVuSans-107"/>
      <use x="506.123047" xlink:href="#DejaVuSans-105"/>
      <use x="533.90625" xlink:href="#DejaVuSans-108"/>
      <use x="561.689453" xlink:href="#DejaVuSans-108"/>
      <use x="589.472656" xlink:href="#DejaVuSans-115"/>
     </g>
    </g>
   </g>
   <g id="line2d_33">
    <path clip-path="url(#p6ddc98eb5c)" d="M 45.872045 207.892399 
L 48.567349 201.731599 
L 51.239373 201.224239 
L 53.963265 199.049839 
L 56.66107 203.761039 
L 59.290076 202.093999 
L 61.964783 202.673839 
L 64.570974 202.528879 
L 67.248404 201.151759 
L 69.98394 198.687439 
L 72.660454 203.543599 
L 75.302466 202.456399 
L 77.944892 202.601359 
L 80.62109 200.499439 
L 83.247971 205.355599 
L 85.854297 201.514159 
L 88.554317 200.571919 
L 91.258515 202.166479 
L 93.924795 200.789359 
L 96.621405 200.426959 
L 99.356587 201.731599 
L 102.018191 200.934319 
L 104.668396 202.383919 
L 107.3561 201.514159 
L 110.092415 199.267279 
L 112.777398 202.673839 
L 115.489161 197.962639 
L 118.216206 199.919599 
L 120.996031 200.281999 
L 123.742673 199.412239 
L 126.462274 201.659119 
L 129.09615 203.905999 
L 131.765528 199.194799 
L 134.501785 201.369199 
L 137.15277 204.993199 
L 139.702488 203.181199 
L 142.364432 200.281999 
L 145.065243 198.759919 
L 147.774625 201.586639 
L 150.510971 200.064559 
L 153.232314 200.426959 
L 155.920881 200.716879 
L 158.630202 199.194799 
L 161.391473 200.861839 
L 164.141142 197.817679 
L 166.857956 202.166479 
L 169.520073 203.688559 
L 172.134531 203.036239 
L 174.800671 201.079279 
L 177.510889 200.499439 
L 180.238776 200.716879 
L 182.94166 201.079279 
L 185.60143 203.761039 
L 188.228523 202.456399 
L 190.837879 202.891279 
L 193.480446 201.586639 
L 196.228699 198.180079 
L 198.978108 199.992079 
L 201.70695 199.702159 
L 204.444165 200.716879 
L 207.115175 203.905999 
L 209.753564 201.151759 
L 212.461416 201.586639 
L 215.142497 202.963759 
L 217.815556 200.209519 
L 220.548347 197.310319 
L 223.346257 202.311439 
L 226.040223 200.861839 
L 228.74076 201.006799 
L 231.453458 200.354479 
L 234.081929 203.181199 
L 236.726289 201.876559 
L 239.413187 200.064559 
L 242.180432 198.832399 
L 244.947288 199.774639 
L 247.685138 198.542479 
L 250.422638 200.716879 
L 253.149827 201.731599 
L 255.798079 202.818799 
L 258.451046 201.079279 
" style="fill:none;stroke:#1f77b4;stroke-linecap:square;stroke-width:1.5;"/>
   </g>
   <g id="line2d_34">
    <path clip-path="url(#p6ddc98eb5c)" d="M 46.232247 176.291119 
L 49.730504 179.552719 
L 53.066655 174.986479 
L 56.181925 191.584399 
L 58.964448 199.484719 
L 61.664922 197.890159 
L 64.481521 198.759919 
L 67.186208 202.166479 
L 69.929092 203.398639 
L 72.840938 213.835759 
L 75.440973 221.446159 
L 78.505801 192.671599 
L 81.489552 217.314799 
L 84.324066 212.893519 
L 87.33758 210.791599 
L 90.193617 209.631919 
L 93.137569 206.370319 
L 95.982242 198.687439 
L 98.729882 196.947919 
L 101.503819 197.527759 
L 104.242417 195.933199 
L 107.176375 183.684079 
L 110.314534 183.973999 
L 113.343132 187.163119 
L 116.442211 183.394159 
L 119.576511 180.277519 
L 122.730603 177.885679 
L 125.965873 177.305839 
L 129.044801 201.586639 
L 132.025333 177.233359 
L 135.303575 173.681839 
L 138.820713 160.852879 
L 142.411572 162.737359 
L 145.968601 154.909519 
L 149.560259 152.880079 
L 153.239301 143.747599 
L 157.008383 146.139439 
L 160.75469 144.182479 
L 164.474327 136.282159 
L 168.399919 129.251599 
L 172.32095 130.701199 
L 176.16949 119.031919 
L 180.389786 111.783919 
L 184.633794 104.970799 
L 188.899992 104.753359 
L 193.254065 107.000239 
L 197.544474 99.389839 
L 202.081711 95.838319 
L 206.604836 93.736399 
L 211.099382 98.737519 
L 215.534782 95.765839 
L 220.055732 93.808879 
L 224.584141 94.606159 
L 229.157473 82.791919 
L 233.957013 80.979919 
L 238.699148 80.617519 
L 243.576018 70.832719 
L 248.756353 71.485039 
L 253.708481 79.675279 
L 258.740066 65.976559 
L 263.638321 83.951599 
L 268.400274 79.385359 
L 273.266371 75.471439 
L 278.136349 78.225679 
L 283.096034 70.035439 
L 288.094042 61.192879 
L 293.38774 62.352559 
L 298.515532 71.557519 
L 303.394113 69.673039 
L 308.467673 58.656079 
L 313.718963 60.902959 
L 318.819076 73.441999 
L 323.778349 69.745519 
L 328.858749 57.278959 
L 334.130593 59.670799 
L 339.323756 55.539439 
L 344.450241 64.019599 
L 349.617894 59.308399 
L 354.710052 66.193999 
L 359.572989 76.703599 
" style="fill:none;stroke:#ff7f0e;stroke-linecap:square;stroke-width:1.5;"/>
   </g>
   <g id="line2d_35">
    <path clip-path="url(#p6ddc98eb5c)" d="M 45.989905 210.139279 
L 48.844736 217.749679 
L 51.625101 216.662479 
L 54.569559 210.646639 
L 57.40161 214.343119 
L 60.317056 207.747439 
L 63.318493 205.790479 
L 66.332858 207.095119 
L 69.393635 205.210639 
L 72.45151 202.818799 
L 75.489534 205.717999 
L 78.673823 197.817679 
L 81.70327 208.327279 
L 84.779109 202.311439 
L 87.738497 206.370319 
L 90.786757 196.078159 
L 93.974709 198.977359 
L 97.158364 196.585519 
L 100.303341 198.687439 
L 103.524169 201.006799 
L 106.752276 189.192559 
L 110.079679 196.150639 
L 113.266265 197.310319 
L 116.537362 190.279759 
L 119.806611 196.513039 
L 122.981507 192.381679 
L 126.385429 182.234479 
L 129.848495 191.946799 
L 133.174749 188.757679 
L 136.584962 188.105359 
L 139.836353 186.945679 
L 143.407676 179.842639 
L 146.870492 188.322799 
L 150.337803 182.814319 
L 153.885582 185.713519 
L 157.314049 183.466639 
L 160.771102 187.235599 
L 164.102987 188.757679 
L 167.508607 185.423599 
L 170.965507 184.771279 
L 174.458506 180.857359 
L 177.960544 181.582159 
L 181.510921 175.058959 
L 185.101976 184.408879 
L 188.559362 179.407759 
L 192.033517 185.568559 
L 195.570647 176.870959 
L 199.20467 178.827919 
L 202.789961 179.552719 
L 206.25837 182.669359 
L 209.718765 179.770159 
L 213.268275 182.161999 
L 216.708544 184.698799 
L 220.156019 177.305839 
L 223.679662 183.684079 
L 227.198884 179.407759 
L 230.739567 183.031759 
L 234.226105 180.494959 
L 237.752444 183.684079 
L 241.218283 171.000079 
L 244.809034 180.567439 
L 248.288349 181.654639 
L 251.775763 179.770159 
L 255.354488 174.479119 
L 259.032441 175.856239 
L 262.763108 171.579919 
L 266.447749 174.261679 
L 269.956219 177.958159 
L 273.480421 176.798479 
L 277.153522 171.724879 
L 280.826273 175.203919 
L 284.485801 173.174479 
L 288.058669 176.363599 
L 291.651203 178.030639 
L 295.249205 172.884559 
L 299.027566 173.754319 
L 302.664142 171.434959 
L 306.420894 170.855119 
L 310.117791 173.681839 
L 313.758528 175.058959 
" style="fill:none;stroke:#2ca02c;stroke-linecap:square;stroke-width:1.5;"/>
   </g>
   <g id="line2d_36">
    <path clip-path="url(#p6ddc98eb5c)" d="M 45.947506 215.937679 
L 48.734129 213.400879 
L 51.61311 216.879919 
L 54.480287 213.980719 
L 57.371969 211.009039 
L 60.236074 216.734959 
L 63.031424 216.807439 
L 65.858405 211.661359 
L 68.728937 215.865199 
L 71.47867 217.677199 
L 74.213573 218.329519 
L 76.991409 216.010159 
L 79.834631 214.560559 
L 82.702235 215.937679 
L 85.511147 215.067919 
L 88.262956 213.835759 
L 91.107926 217.749679 
L 93.825256 215.067919 
L 96.735418 213.690799 
L 99.529793 214.777999 
L 102.363172 217.749679 
L 105.149432 214.415599 
L 107.968362 214.270639 
L 110.807121 212.531119 
L 113.658844 218.691919 
L 116.532677 216.155119 
L 119.333151 215.647759 
L 122.285183 210.646639 
L 125.115434 217.967119 
L 127.89695 217.459759 
L 130.579578 220.793839 
L 133.383818 210.501679 
L 136.421843 213.400879 
L 139.253321 213.255919 
L 142.139694 210.936559 
L 145.108633 214.343119 
L 147.828125 222.823279 
L 150.555201 213.183439 
L 153.463468 210.936559 
L 156.427759 215.502799 
L 159.301266 211.371439 
L 162.155163 217.604719 
L 164.932593 214.850479 
L 167.870659 209.269519 
L 170.808454 218.039599 
L 173.614992 216.300079 
L 176.420562 217.604719 
L 179.243332 212.241199 
L 182.136246 215.502799 
L 184.910652 215.430319 
L 187.820292 210.066799 
L 190.721621 214.198159 
L 193.725003 212.386159 
L 196.576816 219.054319 
L 199.419534 212.965999 
L 202.402065 210.501679 
L 205.262987 212.096239 
L 208.213813 209.631919 
L 211.070553 218.112079 
L 213.856476 215.285359 
L 216.755029 216.662479 
L 219.562391 215.502799 
L 222.436824 210.646639 
L 225.388662 213.255919 
L 228.206133 215.937679 
L 231.002408 215.067919 
L 233.796887 215.575279 
L 236.598819 218.184559 
L 239.344445 215.140399 
L 242.051856 218.112079 
L 244.915474 210.791599 
L 247.828251 211.878799 
L 250.746857 216.952399 
L 253.651353 212.676079 
L 256.56614 210.284239 
L 259.566567 215.430319 
L 262.448095 210.356719 
L 265.360677 215.212879 
L 268.131075 215.285359 
L 270.961144 212.531119 
" style="fill:none;stroke:#d62728;stroke-linecap:square;stroke-width:1.5;"/>
   </g>
   <g id="line2d_37">
    <path clip-path="url(#p6ddc98eb5c)" d="M 46.109984 200.281999 
L 49.267867 196.513039 
L 52.720026 169.477999 
L 56.177519 181.799599 
L 59.46316 196.657999 
L 62.848298 179.190319 
L 66.009847 215.140399 
L 68.347538 237.464239 
L 70.897672 206.732719 
L 74.181709 183.176719 
L 77.308263 201.151759 
L 80.600332 173.174479 
L 84.01922 171.434959 
L 87.26143 179.335279 
L 90.280691 201.659119 
L 93.52434 187.090639 
L 96.767077 175.058959 
L 100.151856 169.985359 
L 103.673008 163.462159 
L 107.254613 158.823439 
L 110.895941 147.589039 
L 114.70776 148.241359 
L 118.541925 142.225519 
L 122.448537 141.138319 
L 126.21533 147.806479 
L 129.945013 144.544879 
L 133.779749 130.628719 
L 137.777985 135.122479 
L 141.529768 136.644559 
L 145.389725 124.612879 
L 149.514815 116.567599 
L 153.555347 123.815599 
L 157.73399 111.783919 
L 161.924461 113.740879 
L 166.182732 108.159919 
L 170.373066 109.826959 
L 174.561603 112.146319 
L 178.707701 105.478159 
L 183.032295 98.447599 
L 187.412641 104.535919 
L 191.545742 110.624239 
L 195.924866 96.490639 
L 200.43239 95.693359 
L 205.030716 84.024079 
L 209.621175 91.706959 
L 214.231415 86.995759 
L 218.969828 78.877999 
L 223.68606 86.850799 
L 228.296831 89.387599 
L 233.012888 80.327599 
L 237.700348 81.197359 
L 242.668299 74.384239 
L 247.621435 81.994639 
L 252.143446 94.316239 
L 256.781821 79.385359 
L 261.71674 65.179279 
L 266.760071 69.310639 
L 271.599072 81.414799 
L 276.262157 85.618639 
L 281.165121 68.513359 
L 285.896585 86.778319 
L 290.666036 72.427279 
L 295.642422 72.934639 
L 300.721698 65.614159 
L 305.752305 70.107919 
L 310.813921 69.383119 
L 315.838389 64.092079 
L 321.087506 60.540559 
L 326.187636 60.033199 
L 331.443676 57.278959 
L 336.569765 66.701359 
L 341.545866 77.500879 
L 346.43019 61.192879 
L 351.5946 57.641359 
L 356.743441 67.208719 
L 361.797206 57.278959 
L 367.039059 63.294799 
L 372.169108 60.975439 
L 377.197188 62.497519 
L 382.267569 69.962959 
" style="fill:none;stroke:#9467bd;stroke-linecap:square;stroke-width:1.5;"/>
   </g>
   <g id="line2d_38">
    <path clip-path="url(#p6ddc98eb5c)" d="M 46.109984 202.108495 
L 49.267867 202.108495 
L 52.720026 202.108495 
L 56.177519 202.108495 
L 59.46316 202.108495 
L 62.848298 202.108495 
L 66.009847 202.108495 
L 68.347538 202.108495 
L 70.897672 202.108495 
L 74.181709 202.108495 
L 77.308263 202.108495 
L 80.600332 202.108495 
L 84.01922 202.108495 
L 87.26143 202.108495 
L 90.280691 202.108495 
L 93.52434 202.108495 
L 96.767077 202.108495 
L 100.151856 202.108495 
L 103.673008 202.108495 
L 107.254613 202.108495 
L 110.895941 202.108495 
L 114.70776 202.108495 
L 118.541925 202.108495 
L 122.448537 202.108495 
L 126.21533 202.108495 
L 129.945013 202.108495 
L 133.779749 202.108495 
L 137.777985 202.108495 
L 141.529768 202.108495 
L 145.389725 202.108495 
L 149.514815 202.108495 
L 153.555347 202.108495 
L 157.73399 202.108495 
L 161.924461 202.108495 
L 166.182732 202.108495 
L 170.373066 202.108495 
L 174.561603 202.108495 
L 178.707701 202.108495 
L 183.032295 202.108495 
L 187.412641 202.108495 
L 191.545742 202.108495 
L 195.924866 202.108495 
L 200.43239 202.108495 
L 205.030716 202.108495 
L 209.621175 202.108495 
L 214.231415 202.108495 
L 218.969828 202.108495 
L 223.68606 202.108495 
L 228.296831 202.108495 
L 233.012888 202.108495 
L 237.700348 202.108495 
L 242.668299 202.108495 
L 247.621435 202.108495 
L 252.143446 202.108495 
L 256.781821 202.108495 
L 261.71674 202.108495 
L 266.760071 202.108495 
L 271.599072 202.108495 
L 276.262157 202.108495 
L 281.165121 202.108495 
L 285.896585 202.108495 
L 290.666036 202.108495 
L 295.642422 202.108495 
L 300.721698 202.108495 
L 305.752305 202.108495 
L 310.813921 202.108495 
L 315.838389 202.108495 
L 321.087506 202.108495 
L 326.187636 202.108495 
L 331.443676 202.108495 
L 336.569765 202.108495 
L 341.545866 202.108495 
L 346.43019 202.108495 
L 351.5946 202.108495 
L 356.743441 202.108495 
L 361.797206 202.108495 
L 367.039059 202.108495 
L 372.169108 202.108495 
L 377.197188 202.108495 
L 382.267569 202.108495 
" style="fill:none;stroke:#000000;stroke-linecap:square;stroke-width:1.5;"/>
   </g>
   <g id="patch_3">
    <path d="M 44.474375 246.596719 
L 44.474375 29.156719 
" style="fill:none;stroke:#000000;stroke-linecap:square;stroke-linejoin:miter;stroke-width:0.8;"/>
   </g>
   <g id="patch_4">
    <path d="M 379.274375 246.596719 
L 379.274375 29.156719 
" style="fill:none;stroke:#000000;stroke-linecap:square;stroke-linejoin:miter;stroke-width:0.8;"/>
   </g>
   <g id="patch_5">
    <path d="M 44.474375 246.596719 
L 379.274375 246.596719 
" style="fill:none;stroke:#000000;stroke-linecap:square;stroke-linejoin:miter;stroke-width:0.8;"/>
   </g>
   <g id="patch_6">
    <path d="M 44.474375 29.156719 
L 379.274375 29.156719 
" style="fill:none;stroke:#000000;stroke-linecap:square;stroke-linejoin:miter;stroke-width:0.8;"/>
   </g>
   <g id="text_20">
    <!-- Defend the Line -->
    <defs>
     <path d="M 19.671875 64.796875 
L 19.671875 8.109375 
L 31.59375 8.109375 
Q 46.6875 8.109375 53.6875 14.9375 
Q 60.6875 21.78125 60.6875 36.53125 
Q 60.6875 51.171875 53.6875 57.984375 
Q 46.6875 64.796875 31.59375 64.796875 
z
M 9.8125 72.90625 
L 30.078125 72.90625 
Q 51.265625 72.90625 61.171875 64.09375 
Q 71.09375 55.28125 71.09375 36.53125 
Q 71.09375 17.671875 61.125 8.828125 
Q 51.171875 0 30.078125 0 
L 9.8125 0 
z
" id="DejaVuSans-68"/>
     <path d="M 18.3125 70.21875 
L 18.3125 54.6875 
L 36.8125 54.6875 
L 36.8125 47.703125 
L 18.3125 47.703125 
L 18.3125 18.015625 
Q 18.3125 11.328125 20.140625 9.421875 
Q 21.96875 7.515625 27.59375 7.515625 
L 36.8125 7.515625 
L 36.8125 0 
L 27.59375 0 
Q 17.1875 0 13.234375 3.875 
Q 9.28125 7.765625 9.28125 18.015625 
L 9.28125 47.703125 
L 2.6875 47.703125 
L 2.6875 54.6875 
L 9.28125 54.6875 
L 9.28125 70.21875 
z
" id="DejaVuSans-116"/>
     <path d="M 54.890625 33.015625 
L 54.890625 0 
L 45.90625 0 
L 45.90625 32.71875 
Q 45.90625 40.484375 42.875 44.328125 
Q 39.84375 48.1875 33.796875 48.1875 
Q 26.515625 48.1875 22.3125 43.546875 
Q 18.109375 38.921875 18.109375 30.90625 
L 18.109375 0 
L 9.078125 0 
L 9.078125 75.984375 
L 18.109375 75.984375 
L 18.109375 46.1875 
Q 21.34375 51.125 25.703125 53.5625 
Q 30.078125 56 35.796875 56 
Q 45.21875 56 50.046875 50.171875 
Q 54.890625 44.34375 54.890625 33.015625 
z
" id="DejaVuSans-104"/>
     <path d="M 9.8125 72.90625 
L 19.671875 72.90625 
L 19.671875 8.296875 
L 55.171875 8.296875 
L 55.171875 0 
L 9.8125 0 
z
" id="DejaVuSans-76"/>
    </defs>
    <g transform="translate(128.063047 23.156719)scale(0.21 -0.21)">
     <use xlink:href="#DejaVuSans-68"/>
     <use x="77.001953" xlink:href="#DejaVuSans-101"/>
     <use x="138.525391" xlink:href="#DejaVuSans-102"/>
     <use x="173.730469" xlink:href="#DejaVuSans-101"/>
     <use x="235.253906" xlink:href="#DejaVuSans-110"/>
     <use x="298.632812" xlink:href="#DejaVuSans-100"/>
     <use x="362.109375" xlink:href="#DejaVuSans-32"/>
     <use x="393.896484" xlink:href="#DejaVuSans-116"/>
     <use x="433.105469" xlink:href="#DejaVuSans-104"/>
     <use x="496.484375" xlink:href="#DejaVuSans-101"/>
     <use x="558.007812" xlink:href="#DejaVuSans-32"/>
     <use x="589.794922" xlink:href="#DejaVuSans-76"/>
     <use x="645.507812" xlink:href="#DejaVuSans-105"/>
     <use x="673.291016" xlink:href="#DejaVuSans-110"/>
     <use x="736.669922" xlink:href="#DejaVuSans-101"/>
    </g>
   </g>
   <g id="legend_1">
    <g id="patch_7">
     <path d="M 54.274375 163.652969 
L 188.674375 163.652969 
Q 191.474375 163.652969 191.474375 160.852969 
L 191.474375 38.956719 
Q 191.474375 36.156719 188.674375 36.156719 
L 54.274375 36.156719 
Q 51.474375 36.156719 51.474375 38.956719 
L 51.474375 160.852969 
Q 51.474375 163.652969 54.274375 163.652969 
z
" style="fill:#ffffff;opacity:0.8;stroke:#cccccc;stroke-linejoin:miter;"/>
    </g>
    <g id="line2d_39">
     <path d="M 57.074375 47.494531 
L 85.074375 47.494531 
" style="fill:none;stroke:#1f77b4;stroke-linecap:square;stroke-width:1.5;"/>
    </g>
    <g id="line2d_40"/>
    <g id="text_21">
     <!-- A3C, $\alpha$=1e-2 -->
     <defs>
      <path d="M 64.40625 67.28125 
L 64.40625 56.890625 
Q 59.421875 61.53125 53.78125 63.8125 
Q 48.140625 66.109375 41.796875 66.109375 
Q 29.296875 66.109375 22.65625 58.46875 
Q 16.015625 50.828125 16.015625 36.375 
Q 16.015625 21.96875 22.65625 14.328125 
Q 29.296875 6.6875 41.796875 6.6875 
Q 48.140625 6.6875 53.78125 8.984375 
Q 59.421875 11.28125 64.40625 15.921875 
L 64.40625 5.609375 
Q 59.234375 2.09375 53.4375 0.328125 
Q 47.65625 -1.421875 41.21875 -1.421875 
Q 24.65625 -1.421875 15.125 8.703125 
Q 5.609375 18.84375 5.609375 36.375 
Q 5.609375 53.953125 15.125 64.078125 
Q 24.65625 74.21875 41.21875 74.21875 
Q 47.75 74.21875 53.53125 72.484375 
Q 59.328125 70.75 64.40625 67.28125 
z
" id="DejaVuSans-67"/>
      <path d="M 11.71875 12.40625 
L 22.015625 12.40625 
L 22.015625 4 
L 14.015625 -11.625 
L 7.71875 -11.625 
L 11.71875 4 
z
" id="DejaVuSans-44"/>
      <path d="M 40.921875 25.4375 
L 40.96875 36.71875 
Q 41.015625 48.25 32.328125 48.296875 
Q 25.828125 48.34375 21.78125 42.921875 
Q 16.703125 36.234375 14.984375 27.296875 
Q 12.890625 16.546875 15.53125 11.421875 
Q 18.265625 6.203125 24.171875 6.203125 
Q 30.71875 6.203125 36.234375 16.609375 
z
M 33.84375 55.90625 
Q 49.078125 56.15625 48.875 40.375 
Q 48.875 40.375 56.5 54.6875 
L 64.5 54.6875 
L 48.734375 25.046875 
L 48.578125 14.359375 
Q 48.578125 11.96875 49.90625 9.96875 
Q 51.421875 7.625 52.984375 7.625 
L 57.328125 7.625 
L 55.859375 0 
L 50.4375 0 
Q 45.84375 0 42.53125 4.109375 
Q 40.96875 6.15625 40.921875 10.453125 
Q 37.75 5.21875 32.28125 0.78125 
Q 29.6875 -1.265625 22.703125 -1.21875 
Q 11.28125 -1.125 7.125 6.203125 
Q 2.875 13.8125 5.515625 27.296875 
Q 8.34375 41.796875 15.765625 48.390625 
Q 24.125 55.765625 33.84375 55.90625 
z
" id="DejaVuSans-Oblique-945"/>
      <path d="M 10.59375 45.40625 
L 73.1875 45.40625 
L 73.1875 37.203125 
L 10.59375 37.203125 
z
M 10.59375 25.484375 
L 73.1875 25.484375 
L 73.1875 17.1875 
L 10.59375 17.1875 
z
" id="DejaVuSans-61"/>
      <path d="M 4.890625 31.390625 
L 31.203125 31.390625 
L 31.203125 23.390625 
L 4.890625 23.390625 
z
" id="DejaVuSans-45"/>
     </defs>
     <g transform="translate(96.274375 52.394531)scale(0.14 -0.14)">
      <use transform="translate(0 0.78125)" xlink:href="#DejaVuSans-65"/>
      <use transform="translate(68.408203 0.78125)" xlink:href="#DejaVuSans-51"/>
      <use transform="translate(132.03125 0.78125)" xlink:href="#DejaVuSans-67"/>
      <use transform="translate(201.855469 0.78125)" xlink:href="#DejaVuSans-44"/>
      <use transform="translate(233.642578 0.78125)" xlink:href="#DejaVuSans-32"/>
      <use transform="translate(265.429688 0.78125)" xlink:href="#DejaVuSans-Oblique-945"/>
      <use transform="translate(331.347656 0.78125)" xlink:href="#DejaVuSans-61"/>
      <use transform="translate(415.136719 0.78125)" xlink:href="#DejaVuSans-49"/>
      <use transform="translate(478.759766 0.78125)" xlink:href="#DejaVuSans-101"/>
      <use transform="translate(540.283203 0.78125)" xlink:href="#DejaVuSans-45"/>
      <use transform="translate(576.367188 0.78125)" xlink:href="#DejaVuSans-50"/>
     </g>
    </g>
    <g id="line2d_41">
     <path d="M 57.074375 68.043906 
L 85.074375 68.043906 
" style="fill:none;stroke:#ff7f0e;stroke-linecap:square;stroke-width:1.5;"/>
    </g>
    <g id="line2d_42"/>
    <g id="text_22">
     <!-- A3C, $\alpha$=1e-4 -->
     <defs>
      <path d="M 37.796875 64.3125 
L 12.890625 25.390625 
L 37.796875 25.390625 
z
M 35.203125 72.90625 
L 47.609375 72.90625 
L 47.609375 25.390625 
L 58.015625 25.390625 
L 58.015625 17.1875 
L 47.609375 17.1875 
L 47.609375 0 
L 37.796875 0 
L 37.796875 17.1875 
L 4.890625 17.1875 
L 4.890625 26.703125 
z
" id="DejaVuSans-52"/>
     </defs>
     <g transform="translate(96.274375 72.943906)scale(0.14 -0.14)">
      <use transform="translate(0 0.78125)" xlink:href="#DejaVuSans-65"/>
      <use transform="translate(68.408203 0.78125)" xlink:href="#DejaVuSans-51"/>
      <use transform="translate(132.03125 0.78125)" xlink:href="#DejaVuSans-67"/>
      <use transform="translate(201.855469 0.78125)" xlink:href="#DejaVuSans-44"/>
      <use transform="translate(233.642578 0.78125)" xlink:href="#DejaVuSans-32"/>
      <use transform="translate(265.429688 0.78125)" xlink:href="#DejaVuSans-Oblique-945"/>
      <use transform="translate(331.347656 0.78125)" xlink:href="#DejaVuSans-61"/>
      <use transform="translate(415.136719 0.78125)" xlink:href="#DejaVuSans-49"/>
      <use transform="translate(478.759766 0.78125)" xlink:href="#DejaVuSans-101"/>
      <use transform="translate(540.283203 0.78125)" xlink:href="#DejaVuSans-45"/>
      <use transform="translate(576.367188 0.78125)" xlink:href="#DejaVuSans-52"/>
     </g>
    </g>
    <g id="line2d_43">
     <path d="M 57.074375 88.593281 
L 85.074375 88.593281 
" style="fill:none;stroke:#2ca02c;stroke-linecap:square;stroke-width:1.5;"/>
    </g>
    <g id="line2d_44"/>
    <g id="text_23">
     <!-- A3C, $\alpha$=1e-6 -->
     <g transform="translate(96.274375 93.493281)scale(0.14 -0.14)">
      <use transform="translate(0 0.78125)" xlink:href="#DejaVuSans-65"/>
      <use transform="translate(68.408203 0.78125)" xlink:href="#DejaVuSans-51"/>
      <use transform="translate(132.03125 0.78125)" xlink:href="#DejaVuSans-67"/>
      <use transform="translate(201.855469 0.78125)" xlink:href="#DejaVuSans-44"/>
      <use transform="translate(233.642578 0.78125)" xlink:href="#DejaVuSans-32"/>
      <use transform="translate(265.429688 0.78125)" xlink:href="#DejaVuSans-Oblique-945"/>
      <use transform="translate(331.347656 0.78125)" xlink:href="#DejaVuSans-61"/>
      <use transform="translate(415.136719 0.78125)" xlink:href="#DejaVuSans-49"/>
      <use transform="translate(478.759766 0.78125)" xlink:href="#DejaVuSans-101"/>
      <use transform="translate(540.283203 0.78125)" xlink:href="#DejaVuSans-45"/>
      <use transform="translate(576.367188 0.78125)" xlink:href="#DejaVuSans-54"/>
     </g>
    </g>
    <g id="line2d_45">
     <path d="M 57.074375 109.142656 
L 85.074375 109.142656 
" style="fill:none;stroke:#d62728;stroke-linecap:square;stroke-width:1.5;"/>
    </g>
    <g id="line2d_46"/>
    <g id="text_24">
     <!-- A3C, $\alpha$=1e-8 -->
     <defs>
      <path d="M 31.78125 34.625 
Q 24.75 34.625 20.71875 30.859375 
Q 16.703125 27.09375 16.703125 20.515625 
Q 16.703125 13.921875 20.71875 10.15625 
Q 24.75 6.390625 31.78125 6.390625 
Q 38.8125 6.390625 42.859375 10.171875 
Q 46.921875 13.96875 46.921875 20.515625 
Q 46.921875 27.09375 42.890625 30.859375 
Q 38.875 34.625 31.78125 34.625 
z
M 21.921875 38.8125 
Q 15.578125 40.375 12.03125 44.71875 
Q 8.5 49.078125 8.5 55.328125 
Q 8.5 64.0625 14.71875 69.140625 
Q 20.953125 74.21875 31.78125 74.21875 
Q 42.671875 74.21875 48.875 69.140625 
Q 55.078125 64.0625 55.078125 55.328125 
Q 55.078125 49.078125 51.53125 44.71875 
Q 48 40.375 41.703125 38.8125 
Q 48.828125 37.15625 52.796875 32.3125 
Q 56.78125 27.484375 56.78125 20.515625 
Q 56.78125 9.90625 50.3125 4.234375 
Q 43.84375 -1.421875 31.78125 -1.421875 
Q 19.734375 -1.421875 13.25 4.234375 
Q 6.78125 9.90625 6.78125 20.515625 
Q 6.78125 27.484375 10.78125 32.3125 
Q 14.796875 37.15625 21.921875 38.8125 
z
M 18.3125 54.390625 
Q 18.3125 48.734375 21.84375 45.5625 
Q 25.390625 42.390625 31.78125 42.390625 
Q 38.140625 42.390625 41.71875 45.5625 
Q 45.3125 48.734375 45.3125 54.390625 
Q 45.3125 60.0625 41.71875 63.234375 
Q 38.140625 66.40625 31.78125 66.40625 
Q 25.390625 66.40625 21.84375 63.234375 
Q 18.3125 60.0625 18.3125 54.390625 
z
" id="DejaVuSans-56"/>
     </defs>
     <g transform="translate(96.274375 114.042656)scale(0.14 -0.14)">
      <use transform="translate(0 0.78125)" xlink:href="#DejaVuSans-65"/>
      <use transform="translate(68.408203 0.78125)" xlink:href="#DejaVuSans-51"/>
      <use transform="translate(132.03125 0.78125)" xlink:href="#DejaVuSans-67"/>
      <use transform="translate(201.855469 0.78125)" xlink:href="#DejaVuSans-44"/>
      <use transform="translate(233.642578 0.78125)" xlink:href="#DejaVuSans-32"/>
      <use transform="translate(265.429688 0.78125)" xlink:href="#DejaVuSans-Oblique-945"/>
      <use transform="translate(331.347656 0.78125)" xlink:href="#DejaVuSans-61"/>
      <use transform="translate(415.136719 0.78125)" xlink:href="#DejaVuSans-49"/>
      <use transform="translate(478.759766 0.78125)" xlink:href="#DejaVuSans-101"/>
      <use transform="translate(540.283203 0.78125)" xlink:href="#DejaVuSans-45"/>
      <use transform="translate(576.367188 0.78125)" xlink:href="#DejaVuSans-56"/>
     </g>
    </g>
    <g id="line2d_47">
     <path d="M 57.074375 129.692031 
L 85.074375 129.692031 
" style="fill:none;stroke:#9467bd;stroke-linecap:square;stroke-width:1.5;"/>
    </g>
    <g id="line2d_48"/>
    <g id="text_25">
     <!-- A2C, $\alpha$=1e-4 -->
     <g transform="translate(96.274375 134.592031)scale(0.14 -0.14)">
      <use transform="translate(0 0.78125)" xlink:href="#DejaVuSans-65"/>
      <use transform="translate(68.408203 0.78125)" xlink:href="#DejaVuSans-50"/>
      <use transform="translate(132.03125 0.78125)" xlink:href="#DejaVuSans-67"/>
      <use transform="translate(201.855469 0.78125)" xlink:href="#DejaVuSans-44"/>
      <use transform="translate(233.642578 0.78125)" xlink:href="#DejaVuSans-32"/>
      <use transform="translate(265.429688 0.78125)" xlink:href="#DejaVuSans-Oblique-945"/>
      <use transform="translate(331.347656 0.78125)" xlink:href="#DejaVuSans-61"/>
      <use transform="translate(415.136719 0.78125)" xlink:href="#DejaVuSans-49"/>
      <use transform="translate(478.759766 0.78125)" xlink:href="#DejaVuSans-101"/>
      <use transform="translate(540.283203 0.78125)" xlink:href="#DejaVuSans-45"/>
      <use transform="translate(576.367188 0.78125)" xlink:href="#DejaVuSans-52"/>
     </g>
    </g>
    <g id="line2d_49">
     <path d="M 57.074375 150.241406 
L 85.074375 150.241406 
" style="fill:none;stroke:#000000;stroke-linecap:square;stroke-width:1.5;"/>
    </g>
    <g id="line2d_50"/>
    <g id="text_26">
     <!-- Baseline -->
     <defs>
      <path d="M 19.671875 34.8125 
L 19.671875 8.109375 
L 35.5 8.109375 
Q 43.453125 8.109375 47.28125 11.40625 
Q 51.125 14.703125 51.125 21.484375 
Q 51.125 28.328125 47.28125 31.5625 
Q 43.453125 34.8125 35.5 34.8125 
z
M 19.671875 64.796875 
L 19.671875 42.828125 
L 34.28125 42.828125 
Q 41.5 42.828125 45.03125 45.53125 
Q 48.578125 48.25 48.578125 53.8125 
Q 48.578125 59.328125 45.03125 62.0625 
Q 41.5 64.796875 34.28125 64.796875 
z
M 9.8125 72.90625 
L 35.015625 72.90625 
Q 46.296875 72.90625 52.390625 68.21875 
Q 58.5 63.53125 58.5 54.890625 
Q 58.5 48.1875 55.375 44.234375 
Q 52.25 40.28125 46.1875 39.3125 
Q 53.46875 37.75 57.5 32.78125 
Q 61.53125 27.828125 61.53125 20.40625 
Q 61.53125 10.640625 54.890625 5.3125 
Q 48.25 0 35.984375 0 
L 9.8125 0 
z
" id="DejaVuSans-66"/>
     </defs>
     <g transform="translate(96.274375 155.141406)scale(0.14 -0.14)">
      <use xlink:href="#DejaVuSans-66"/>
      <use x="68.603516" xlink:href="#DejaVuSans-97"/>
      <use x="129.882812" xlink:href="#DejaVuSans-115"/>
      <use x="181.982422" xlink:href="#DejaVuSans-101"/>
      <use x="243.505859" xlink:href="#DejaVuSans-108"/>
      <use x="271.289062" xlink:href="#DejaVuSans-105"/>
      <use x="299.072266" xlink:href="#DejaVuSans-110"/>
      <use x="362.451172" xlink:href="#DejaVuSans-101"/>
     </g>
    </g>
   </g>
  </g>
 </g>
 <defs>
  <clipPath id="p6ddc98eb5c">
   <rect height="217.44" width="334.8" x="44.474375" y="29.156719"/>
  </clipPath>
 </defs>
</svg>
