<?xml version="1.0" encoding="utf-8" standalone="no"?>
<!DOCTYPE svg PUBLIC "-//W3C//DTD SVG 1.1//EN"
  "http://www.w3.org/Graphics/SVG/1.1/DTD/svg11.dtd">
<!-- Created with matplotlib (http://matplotlib.org/) -->
<svg height="288.024219pt" version="1.1" viewBox="0 0 396.336875 288.024219" width="396.336875pt" xmlns="http://www.w3.org/2000/svg" xmlns:xlink="http://www.w3.org/1999/xlink">
 <defs>
  <style type="text/css">
*{stroke-linecap:butt;stroke-linejoin:round;}
  </style>
 </defs>
 <g id="figure_1">
  <g id="patch_1">
   <path d="M 0 288.024219 
L 396.336875 288.024219 
L 396.336875 0 
L 0 0 
z
" style="fill:#ffffff;"/>
  </g>
  <g id="axes_1">
   <g id="patch_2">
    <path d="M 50.836875 246.596719 
L 385.636875 246.596719 
L 385.636875 29.156719 
L 50.836875 29.156719 
z
" style="fill:#ffffff;"/>
   </g>
   <g id="PolyCollection_1">
    <path clip-path="url(#p2c59430396)" d="M 55.913673 124.485977 
L 55.913673 100.038672 
L 66.517354 79.601841 
L 77.495229 88.103782 
L 88.639864 80.024038 
L 99.310098 97.588802 
L 108.6372 111.253995 
L 118.292754 105.433359 
L 128.58722 88.637106 
L 139.398466 88.246483 
L 149.919176 88.449728 
L 160.917606 87.307965 
L 171.494483 88.669921 
L 182.185303 99.441551 
L 192.418356 87.946734 
L 203.216647 82.403052 
L 214.139052 89.926445 
L 223.943374 109.514696 
L 233.868189 93.35658 
L 244.554688 94.852543 
L 254.76312 93.472115 
L 264.808186 97.047508 
L 275.2788 91.124956 
L 286.420567 86.028189 
L 296.576544 99.394701 
L 306.314916 104.259492 
L 316.245609 91.135215 
L 326.879423 93.19424 
L 337.026359 100.130775 
L 347.430456 87.087811 
L 358.060267 86.789614 
L 368.819574 96.583554 
L 378.729877 88.598118 
L 389.43179 86.581555 
L 400.153028 93.217992 
L 410.011701 107.821767 
L 420.236158 92.883179 
L 430.52643 89.726988 
L 440.832505 101.315725 
L 451.447645 84.977728 
L 462.346583 85.781492 
L 462.346583 112.798608 
L 462.346583 112.798608 
L 451.447645 107.932306 
L 440.832505 122.979326 
L 430.52643 114.193756 
L 420.236158 118.594326 
L 410.011701 131.330591 
L 400.153028 119.813459 
L 389.43179 110.677525 
L 378.729877 118.197589 
L 368.819574 122.287667 
L 358.060267 116.688571 
L 347.430456 114.979512 
L 337.026359 121.349208 
L 326.879423 113.751205 
L 316.245609 119.360678 
L 306.314916 132.596887 
L 296.576544 126.464277 
L 286.420567 111.893065 
L 275.2788 112.576173 
L 264.808186 121.261364 
L 254.76312 119.183328 
L 244.554688 118.678035 
L 233.868189 119.325482 
L 223.943374 130.945372 
L 214.139052 112.92617 
L 203.216647 112.443589 
L 192.418356 113.112357 
L 182.185303 123.106561 
L 171.494483 111.693721 
L 160.917606 110.144111 
L 149.919176 113.707438 
L 139.398466 110.057433 
L 128.58722 113.779605 
L 118.292754 128.178703 
L 108.6372 134.566681 
L 99.310098 123.06596 
L 88.639864 109.501924 
L 77.495229 112.193311 
L 66.517354 104.942847 
L 55.913673 124.485977 
z
" style="fill:#1f77b4;fill-opacity:0.3;"/>
   </g>
   <g id="PolyCollection_2">
    <path clip-path="url(#p2c59430396)" d="M 57.15302 98.873969 
L 57.15302 73.55195 
L 67.40042 114.321134 
L 74.446596 164.933757 
L 79.754015 189.181734 
L 82.855859 222.056665 
L 85.218023 223.615387 
L 87.549708 224.720288 
L 89.837517 225.251233 
L 92.070323 227.374523 
L 94.201381 228.058033 
L 96.332494 227.521698 
L 98.419198 227.551943 
L 100.559951 228.889389 
L 102.569314 230.090176 
L 104.549096 230.52317 
L 106.491378 230.299617 
L 108.390841 232.437146 
L 110.240365 232.697784 
L 112.066898 232.141094 
L 113.925141 232.31592 
L 115.800788 231.652004 
L 117.63295 232.522049 
L 119.439201 232.93849 
L 121.284598 231.413744 
L 123.181303 231.123256 
L 125.033552 232.233645 
L 126.859297 232.863225 
L 128.671373 232.920981 
L 130.473869 233.302066 
L 132.269542 232.711104 
L 134.052647 233.35579 
L 135.815748 233.618952 
L 137.599041 232.901052 
L 139.395946 233.320445 
L 141.184804 233.076324 
L 142.962418 233.57432 
L 144.684487 235.04512 
L 146.389326 234.174962 
L 148.122921 233.724902 
L 149.857381 234.18063 
L 149.857381 235.950422 
L 149.857381 235.950422 
L 148.122921 235.371297 
L 146.389326 235.773078 
L 144.684487 236.713082 
L 142.962418 235.298937 
L 141.184804 234.569084 
L 139.395946 235.353161 
L 137.599041 234.914058 
L 135.815748 235.443972 
L 134.052647 235.191371 
L 132.269542 234.797876 
L 130.473869 235.338265 
L 128.671373 234.664531 
L 126.859297 234.645755 
L 125.033552 234.589869 
L 123.181303 233.697101 
L 121.284598 234.291729 
L 119.439201 234.680297 
L 117.63295 234.947001 
L 115.800788 233.77063 
L 113.925141 234.234738 
L 112.066898 234.126727 
L 110.240365 234.29876 
L 108.390841 234.233303 
L 106.491378 232.537547 
L 104.549096 232.86636 
L 102.569314 232.098124 
L 100.559951 231.545317 
L 98.419198 230.320585 
L 96.332494 230.141197 
L 94.201381 230.752851 
L 92.070323 230.108687 
L 89.837517 227.823034 
L 87.549708 228.334014 
L 85.218023 226.813515 
L 82.855859 226.412336 
L 79.754015 205.471544 
L 74.446596 186.718186 
L 67.40042 137.332656 
L 57.15302 98.873969 
z
" style="fill:#ff7f0e;fill-opacity:0.3;"/>
   </g>
   <g id="PolyCollection_3">
    <path clip-path="url(#p2c59430396)" d="M 58.00568 71.227787 
L 58.00568 39.040355 
L 70.710438 70.059531 
L 81.489603 100.939009 
L 91.613008 90.269777 
L 102.187095 92.5787 
L 112.160658 106.826081 
L 122.05019 99.880823 
L 131.941311 101.065778 
L 141.904816 94.586616 
L 152.137931 104.906804 
L 161.417616 107.477673 
L 170.486998 114.573777 
L 179.955263 103.765135 
L 189.614037 108.294193 
L 199.053862 103.570271 
L 208.433935 115.658115 
L 217.421974 114.387593 
L 226.634925 109.253733 
L 236.126757 116.165915 
L 244.851225 126.684104 
L 251.229245 185.158373 
L 254.825837 209.380944 
L 257.983614 213.730278 
L 260.87203 214.811151 
L 263.798459 216.683235 
L 266.617999 216.300311 
L 269.43031 218.267474 
L 272.079554 217.874731 
L 274.694668 221.649163 
L 277.21804 221.13528 
L 279.775856 221.958001 
L 282.171185 223.987699 
L 284.599788 223.339204 
L 286.984292 222.011262 
L 289.453216 223.655656 
L 291.841195 223.774307 
L 294.160158 224.805476 
L 296.460621 224.878108 
L 298.821922 224.904707 
L 301.123822 224.712619 
L 301.123822 227.619614 
L 301.123822 227.619614 
L 298.821922 227.380942 
L 296.460621 227.989853 
L 294.160158 227.766338 
L 291.841195 226.697852 
L 289.453216 226.929638 
L 286.984292 225.046878 
L 284.599788 226.760274 
L 282.171185 226.850486 
L 279.775856 224.933763 
L 277.21804 224.731613 
L 274.694668 224.743476 
L 272.079554 223.303709 
L 269.43031 222.272086 
L 266.617999 220.638888 
L 263.798459 220.405702 
L 260.87203 219.349583 
L 257.983614 218.520468 
L 254.825837 215.44614 
L 251.229245 199.768611 
L 244.851225 148.385333 
L 236.126757 140.319413 
L 226.634925 129.046783 
L 217.421974 135.123284 
L 208.433935 137.832456 
L 199.053862 129.123401 
L 189.614037 133.789695 
L 179.955263 126.426254 
L 170.486998 136.640782 
L 161.417616 132.593076 
L 152.137931 133.157459 
L 141.904816 122.93031 
L 131.941311 124.160975 
L 122.05019 124.460814 
L 112.160658 130.955345 
L 102.187095 115.830846 
L 91.613008 120.063068 
L 81.489603 123.259545 
L 70.710438 99.215241 
L 58.00568 71.227787 
z
" style="fill:#2ca02c;fill-opacity:0.3;"/>
   </g>
   <g id="matplotlib.axis_1">
    <g id="xtick_1">
     <g id="line2d_1">
      <path clip-path="url(#p2c59430396)" d="M 50.836875 246.596719 
L 50.836875 29.156719 
" style="fill:none;stroke:#b0b0b0;stroke-linecap:square;stroke-width:0.8;"/>
     </g>
     <g id="line2d_2">
      <defs>
       <path d="M 0 0 
L 0 3.5 
" id="mf25d06addc" style="stroke:#000000;stroke-width:0.8;"/>
      </defs>
      <g>
       <use style="stroke:#000000;stroke-width:0.8;" x="50.836875" xlink:href="#mf25d06addc" y="246.596719"/>
      </g>
     </g>
     <g id="text_1">
      <!-- 0 -->
      <defs>
       <path d="M 31.78125 66.40625 
Q 24.171875 66.40625 20.328125 58.90625 
Q 16.5 51.421875 16.5 36.375 
Q 16.5 21.390625 20.328125 13.890625 
Q 24.171875 6.390625 31.78125 6.390625 
Q 39.453125 6.390625 43.28125 13.890625 
Q 47.125 21.390625 47.125 36.375 
Q 47.125 51.421875 43.28125 58.90625 
Q 39.453125 66.40625 31.78125 66.40625 
z
M 31.78125 74.21875 
Q 44.046875 74.21875 50.515625 64.515625 
Q 56.984375 54.828125 56.984375 36.375 
Q 56.984375 17.96875 50.515625 8.265625 
Q 44.046875 -1.421875 31.78125 -1.421875 
Q 19.53125 -1.421875 13.0625 8.265625 
Q 6.59375 17.96875 6.59375 36.375 
Q 6.59375 54.828125 13.0625 64.515625 
Q 19.53125 74.21875 31.78125 74.21875 
z
" id="DejaVuSans-30"/>
      </defs>
      <g transform="translate(47.655625 261.195156)scale(0.1 -0.1)">
       <use xlink:href="#DejaVuSans-30"/>
      </g>
     </g>
    </g>
    <g id="xtick_2">
     <g id="line2d_3">
      <path clip-path="url(#p2c59430396)" d="M 106.636875 246.596719 
L 106.636875 29.156719 
" style="fill:none;stroke:#b0b0b0;stroke-linecap:square;stroke-width:0.8;"/>
     </g>
     <g id="line2d_4">
      <g>
       <use style="stroke:#000000;stroke-width:0.8;" x="106.636875" xlink:href="#mf25d06addc" y="246.596719"/>
      </g>
     </g>
     <g id="text_2">
      <!-- 1 -->
      <defs>
       <path d="M 12.40625 8.296875 
L 28.515625 8.296875 
L 28.515625 63.921875 
L 10.984375 60.40625 
L 10.984375 69.390625 
L 28.421875 72.90625 
L 38.28125 72.90625 
L 38.28125 8.296875 
L 54.390625 8.296875 
L 54.390625 0 
L 12.40625 0 
z
" id="DejaVuSans-31"/>
      </defs>
      <g transform="translate(103.455625 261.195156)scale(0.1 -0.1)">
       <use xlink:href="#DejaVuSans-31"/>
      </g>
     </g>
    </g>
    <g id="xtick_3">
     <g id="line2d_5">
      <path clip-path="url(#p2c59430396)" d="M 162.436875 246.596719 
L 162.436875 29.156719 
" style="fill:none;stroke:#b0b0b0;stroke-linecap:square;stroke-width:0.8;"/>
     </g>
     <g id="line2d_6">
      <g>
       <use style="stroke:#000000;stroke-width:0.8;" x="162.436875" xlink:href="#mf25d06addc" y="246.596719"/>
      </g>
     </g>
     <g id="text_3">
      <!-- 2 -->
      <defs>
       <path d="M 19.1875 8.296875 
L 53.609375 8.296875 
L 53.609375 0 
L 7.328125 0 
L 7.328125 8.296875 
Q 12.9375 14.109375 22.625 23.890625 
Q 32.328125 33.6875 34.8125 36.53125 
Q 39.546875 41.84375 41.421875 45.53125 
Q 43.3125 49.21875 43.3125 52.78125 
Q 43.3125 58.59375 39.234375 62.25 
Q 35.15625 65.921875 28.609375 65.921875 
Q 23.96875 65.921875 18.8125 64.3125 
Q 13.671875 62.703125 7.8125 59.421875 
L 7.8125 69.390625 
Q 13.765625 71.78125 18.9375 73 
Q 24.125 74.21875 28.421875 74.21875 
Q 39.75 74.21875 46.484375 68.546875 
Q 53.21875 62.890625 53.21875 53.421875 
Q 53.21875 48.921875 51.53125 44.890625 
Q 49.859375 40.875 45.40625 35.40625 
Q 44.1875 33.984375 37.640625 27.21875 
Q 31.109375 20.453125 19.1875 8.296875 
z
" id="DejaVuSans-32"/>
      </defs>
      <g transform="translate(159.255625 261.195156)scale(0.1 -0.1)">
       <use xlink:href="#DejaVuSans-32"/>
      </g>
     </g>
    </g>
    <g id="xtick_4">
     <g id="line2d_7">
      <path clip-path="url(#p2c59430396)" d="M 218.236875 246.596719 
L 218.236875 29.156719 
" style="fill:none;stroke:#b0b0b0;stroke-linecap:square;stroke-width:0.8;"/>
     </g>
     <g id="line2d_8">
      <g>
       <use style="stroke:#000000;stroke-width:0.8;" x="218.236875" xlink:href="#mf25d06addc" y="246.596719"/>
      </g>
     </g>
     <g id="text_4">
      <!-- 3 -->
      <defs>
       <path d="M 40.578125 39.3125 
Q 47.65625 37.796875 51.625 33 
Q 55.609375 28.21875 55.609375 21.1875 
Q 55.609375 10.40625 48.1875 4.484375 
Q 40.765625 -1.421875 27.09375 -1.421875 
Q 22.515625 -1.421875 17.65625 -0.515625 
Q 12.796875 0.390625 7.625 2.203125 
L 7.625 11.71875 
Q 11.71875 9.328125 16.59375 8.109375 
Q 21.484375 6.890625 26.8125 6.890625 
Q 36.078125 6.890625 40.9375 10.546875 
Q 45.796875 14.203125 45.796875 21.1875 
Q 45.796875 27.640625 41.28125 31.265625 
Q 36.765625 34.90625 28.71875 34.90625 
L 20.21875 34.90625 
L 20.21875 43.015625 
L 29.109375 43.015625 
Q 36.375 43.015625 40.234375 45.921875 
Q 44.09375 48.828125 44.09375 54.296875 
Q 44.09375 59.90625 40.109375 62.90625 
Q 36.140625 65.921875 28.71875 65.921875 
Q 24.65625 65.921875 20.015625 65.03125 
Q 15.375 64.15625 9.8125 62.3125 
L 9.8125 71.09375 
Q 15.4375 72.65625 20.34375 73.4375 
Q 25.25 74.21875 29.59375 74.21875 
Q 40.828125 74.21875 47.359375 69.109375 
Q 53.90625 64.015625 53.90625 55.328125 
Q 53.90625 49.265625 50.4375 45.09375 
Q 46.96875 40.921875 40.578125 39.3125 
z
" id="DejaVuSans-33"/>
      </defs>
      <g transform="translate(215.055625 261.195156)scale(0.1 -0.1)">
       <use xlink:href="#DejaVuSans-33"/>
      </g>
     </g>
    </g>
    <g id="xtick_5">
     <g id="line2d_9">
      <path clip-path="url(#p2c59430396)" d="M 274.036875 246.596719 
L 274.036875 29.156719 
" style="fill:none;stroke:#b0b0b0;stroke-linecap:square;stroke-width:0.8;"/>
     </g>
     <g id="line2d_10">
      <g>
       <use style="stroke:#000000;stroke-width:0.8;" x="274.036875" xlink:href="#mf25d06addc" y="246.596719"/>
      </g>
     </g>
     <g id="text_5">
      <!-- 4 -->
      <defs>
       <path d="M 37.796875 64.3125 
L 12.890625 25.390625 
L 37.796875 25.390625 
z
M 35.203125 72.90625 
L 47.609375 72.90625 
L 47.609375 25.390625 
L 58.015625 25.390625 
L 58.015625 17.1875 
L 47.609375 17.1875 
L 47.609375 0 
L 37.796875 0 
L 37.796875 17.1875 
L 4.890625 17.1875 
L 4.890625 26.703125 
z
" id="DejaVuSans-34"/>
      </defs>
      <g transform="translate(270.855625 261.195156)scale(0.1 -0.1)">
       <use xlink:href="#DejaVuSans-34"/>
      </g>
     </g>
    </g>
    <g id="xtick_6">
     <g id="line2d_11">
      <path clip-path="url(#p2c59430396)" d="M 329.836875 246.596719 
L 329.836875 29.156719 
" style="fill:none;stroke:#b0b0b0;stroke-linecap:square;stroke-width:0.8;"/>
     </g>
     <g id="line2d_12">
      <g>
       <use style="stroke:#000000;stroke-width:0.8;" x="329.836875" xlink:href="#mf25d06addc" y="246.596719"/>
      </g>
     </g>
     <g id="text_6">
      <!-- 5 -->
      <defs>
       <path d="M 10.796875 72.90625 
L 49.515625 72.90625 
L 49.515625 64.59375 
L 19.828125 64.59375 
L 19.828125 46.734375 
Q 21.96875 47.46875 24.109375 47.828125 
Q 26.265625 48.1875 28.421875 48.1875 
Q 40.625 48.1875 47.75 41.5 
Q 54.890625 34.8125 54.890625 23.390625 
Q 54.890625 11.625 47.5625 5.09375 
Q 40.234375 -1.421875 26.90625 -1.421875 
Q 22.3125 -1.421875 17.546875 -0.640625 
Q 12.796875 0.140625 7.71875 1.703125 
L 7.71875 11.625 
Q 12.109375 9.234375 16.796875 8.0625 
Q 21.484375 6.890625 26.703125 6.890625 
Q 35.15625 6.890625 40.078125 11.328125 
Q 45.015625 15.765625 45.015625 23.390625 
Q 45.015625 31 40.078125 35.4375 
Q 35.15625 39.890625 26.703125 39.890625 
Q 22.75 39.890625 18.8125 39.015625 
Q 14.890625 38.140625 10.796875 36.28125 
z
" id="DejaVuSans-35"/>
      </defs>
      <g transform="translate(326.655625 261.195156)scale(0.1 -0.1)">
       <use xlink:href="#DejaVuSans-35"/>
      </g>
     </g>
    </g>
    <g id="xtick_7">
     <g id="line2d_13">
      <path clip-path="url(#p2c59430396)" d="M 385.636875 246.596719 
L 385.636875 29.156719 
" style="fill:none;stroke:#b0b0b0;stroke-linecap:square;stroke-width:0.8;"/>
     </g>
     <g id="line2d_14">
      <g>
       <use style="stroke:#000000;stroke-width:0.8;" x="385.636875" xlink:href="#mf25d06addc" y="246.596719"/>
      </g>
     </g>
     <g id="text_7">
      <!-- 6 -->
      <defs>
       <path d="M 33.015625 40.375 
Q 26.375 40.375 22.484375 35.828125 
Q 18.609375 31.296875 18.609375 23.390625 
Q 18.609375 15.53125 22.484375 10.953125 
Q 26.375 6.390625 33.015625 6.390625 
Q 39.65625 6.390625 43.53125 10.953125 
Q 47.40625 15.53125 47.40625 23.390625 
Q 47.40625 31.296875 43.53125 35.828125 
Q 39.65625 40.375 33.015625 40.375 
z
M 52.59375 71.296875 
L 52.59375 62.3125 
Q 48.875 64.0625 45.09375 64.984375 
Q 41.3125 65.921875 37.59375 65.921875 
Q 27.828125 65.921875 22.671875 59.328125 
Q 17.53125 52.734375 16.796875 39.40625 
Q 19.671875 43.65625 24.015625 45.921875 
Q 28.375 48.1875 33.59375 48.1875 
Q 44.578125 48.1875 50.953125 41.515625 
Q 57.328125 34.859375 57.328125 23.390625 
Q 57.328125 12.15625 50.6875 5.359375 
Q 44.046875 -1.421875 33.015625 -1.421875 
Q 20.359375 -1.421875 13.671875 8.265625 
Q 6.984375 17.96875 6.984375 36.375 
Q 6.984375 53.65625 15.1875 63.9375 
Q 23.390625 74.21875 37.203125 74.21875 
Q 40.921875 74.21875 44.703125 73.484375 
Q 48.484375 72.75 52.59375 71.296875 
z
" id="DejaVuSans-36"/>
      </defs>
      <g transform="translate(382.455625 261.195156)scale(0.1 -0.1)">
       <use xlink:href="#DejaVuSans-36"/>
      </g>
     </g>
    </g>
    <g id="text_8">
     <!-- Rendered frames -->
     <defs>
      <path d="M 44.390625 34.1875 
Q 47.5625 33.109375 50.5625 29.59375 
Q 53.5625 26.078125 56.59375 19.921875 
L 66.609375 0 
L 56 0 
L 46.6875 18.703125 
Q 43.0625 26.03125 39.671875 28.421875 
Q 36.28125 30.8125 30.421875 30.8125 
L 19.671875 30.8125 
L 19.671875 0 
L 9.8125 0 
L 9.8125 72.90625 
L 32.078125 72.90625 
Q 44.578125 72.90625 50.734375 67.671875 
Q 56.890625 62.453125 56.890625 51.90625 
Q 56.890625 45.015625 53.6875 40.46875 
Q 50.484375 35.9375 44.390625 34.1875 
z
M 19.671875 64.796875 
L 19.671875 38.921875 
L 32.078125 38.921875 
Q 39.203125 38.921875 42.84375 42.21875 
Q 46.484375 45.515625 46.484375 51.90625 
Q 46.484375 58.296875 42.84375 61.546875 
Q 39.203125 64.796875 32.078125 64.796875 
z
" id="DejaVuSans-52"/>
      <path d="M 56.203125 29.59375 
L 56.203125 25.203125 
L 14.890625 25.203125 
Q 15.484375 15.921875 20.484375 11.0625 
Q 25.484375 6.203125 34.421875 6.203125 
Q 39.59375 6.203125 44.453125 7.46875 
Q 49.3125 8.734375 54.109375 11.28125 
L 54.109375 2.78125 
Q 49.265625 0.734375 44.1875 -0.34375 
Q 39.109375 -1.421875 33.890625 -1.421875 
Q 20.796875 -1.421875 13.15625 6.1875 
Q 5.515625 13.8125 5.515625 26.8125 
Q 5.515625 40.234375 12.765625 48.109375 
Q 20.015625 56 32.328125 56 
Q 43.359375 56 49.78125 48.890625 
Q 56.203125 41.796875 56.203125 29.59375 
z
M 47.21875 32.234375 
Q 47.125 39.59375 43.09375 43.984375 
Q 39.0625 48.390625 32.421875 48.390625 
Q 24.90625 48.390625 20.390625 44.140625 
Q 15.875 39.890625 15.1875 32.171875 
z
" id="DejaVuSans-65"/>
      <path d="M 54.890625 33.015625 
L 54.890625 0 
L 45.90625 0 
L 45.90625 32.71875 
Q 45.90625 40.484375 42.875 44.328125 
Q 39.84375 48.1875 33.796875 48.1875 
Q 26.515625 48.1875 22.3125 43.546875 
Q 18.109375 38.921875 18.109375 30.90625 
L 18.109375 0 
L 9.078125 0 
L 9.078125 54.6875 
L 18.109375 54.6875 
L 18.109375 46.1875 
Q 21.34375 51.125 25.703125 53.5625 
Q 30.078125 56 35.796875 56 
Q 45.21875 56 50.046875 50.171875 
Q 54.890625 44.34375 54.890625 33.015625 
z
" id="DejaVuSans-6e"/>
      <path d="M 45.40625 46.390625 
L 45.40625 75.984375 
L 54.390625 75.984375 
L 54.390625 0 
L 45.40625 0 
L 45.40625 8.203125 
Q 42.578125 3.328125 38.25 0.953125 
Q 33.9375 -1.421875 27.875 -1.421875 
Q 17.96875 -1.421875 11.734375 6.484375 
Q 5.515625 14.40625 5.515625 27.296875 
Q 5.515625 40.1875 11.734375 48.09375 
Q 17.96875 56 27.875 56 
Q 33.9375 56 38.25 53.625 
Q 42.578125 51.265625 45.40625 46.390625 
z
M 14.796875 27.296875 
Q 14.796875 17.390625 18.875 11.75 
Q 22.953125 6.109375 30.078125 6.109375 
Q 37.203125 6.109375 41.296875 11.75 
Q 45.40625 17.390625 45.40625 27.296875 
Q 45.40625 37.203125 41.296875 42.84375 
Q 37.203125 48.484375 30.078125 48.484375 
Q 22.953125 48.484375 18.875 42.84375 
Q 14.796875 37.203125 14.796875 27.296875 
z
" id="DejaVuSans-64"/>
      <path d="M 41.109375 46.296875 
Q 39.59375 47.171875 37.8125 47.578125 
Q 36.03125 48 33.890625 48 
Q 26.265625 48 22.1875 43.046875 
Q 18.109375 38.09375 18.109375 28.8125 
L 18.109375 0 
L 9.078125 0 
L 9.078125 54.6875 
L 18.109375 54.6875 
L 18.109375 46.1875 
Q 20.953125 51.171875 25.484375 53.578125 
Q 30.03125 56 36.53125 56 
Q 37.453125 56 38.578125 55.875 
Q 39.703125 55.765625 41.0625 55.515625 
z
" id="DejaVuSans-72"/>
      <path id="DejaVuSans-20"/>
      <path d="M 37.109375 75.984375 
L 37.109375 68.5 
L 28.515625 68.5 
Q 23.6875 68.5 21.796875 66.546875 
Q 19.921875 64.59375 19.921875 59.515625 
L 19.921875 54.6875 
L 34.71875 54.6875 
L 34.71875 47.703125 
L 19.921875 47.703125 
L 19.921875 0 
L 10.890625 0 
L 10.890625 47.703125 
L 2.296875 47.703125 
L 2.296875 54.6875 
L 10.890625 54.6875 
L 10.890625 58.5 
Q 10.890625 67.625 15.140625 71.796875 
Q 19.390625 75.984375 28.609375 75.984375 
z
" id="DejaVuSans-66"/>
      <path d="M 34.28125 27.484375 
Q 23.390625 27.484375 19.1875 25 
Q 14.984375 22.515625 14.984375 16.5 
Q 14.984375 11.71875 18.140625 8.90625 
Q 21.296875 6.109375 26.703125 6.109375 
Q 34.1875 6.109375 38.703125 11.40625 
Q 43.21875 16.703125 43.21875 25.484375 
L 43.21875 27.484375 
z
M 52.203125 31.203125 
L 52.203125 0 
L 43.21875 0 
L 43.21875 8.296875 
Q 40.140625 3.328125 35.546875 0.953125 
Q 30.953125 -1.421875 24.3125 -1.421875 
Q 15.921875 -1.421875 10.953125 3.296875 
Q 6 8.015625 6 15.921875 
Q 6 25.140625 12.171875 29.828125 
Q 18.359375 34.515625 30.609375 34.515625 
L 43.21875 34.515625 
L 43.21875 35.40625 
Q 43.21875 41.609375 39.140625 45 
Q 35.0625 48.390625 27.6875 48.390625 
Q 23 48.390625 18.546875 47.265625 
Q 14.109375 46.140625 10.015625 43.890625 
L 10.015625 52.203125 
Q 14.9375 54.109375 19.578125 55.046875 
Q 24.21875 56 28.609375 56 
Q 40.484375 56 46.34375 49.84375 
Q 52.203125 43.703125 52.203125 31.203125 
z
" id="DejaVuSans-61"/>
      <path d="M 52 44.1875 
Q 55.375 50.25 60.0625 53.125 
Q 64.75 56 71.09375 56 
Q 79.640625 56 84.28125 50.015625 
Q 88.921875 44.046875 88.921875 33.015625 
L 88.921875 0 
L 79.890625 0 
L 79.890625 32.71875 
Q 79.890625 40.578125 77.09375 44.375 
Q 74.3125 48.1875 68.609375 48.1875 
Q 61.625 48.1875 57.5625 43.546875 
Q 53.515625 38.921875 53.515625 30.90625 
L 53.515625 0 
L 44.484375 0 
L 44.484375 32.71875 
Q 44.484375 40.625 41.703125 44.40625 
Q 38.921875 48.1875 33.109375 48.1875 
Q 26.21875 48.1875 22.15625 43.53125 
Q 18.109375 38.875 18.109375 30.90625 
L 18.109375 0 
L 9.078125 0 
L 9.078125 54.6875 
L 18.109375 54.6875 
L 18.109375 46.1875 
Q 21.1875 51.21875 25.484375 53.609375 
Q 29.78125 56 35.6875 56 
Q 41.65625 56 45.828125 52.96875 
Q 50 49.953125 52 44.1875 
z
" id="DejaVuSans-6d"/>
      <path d="M 44.28125 53.078125 
L 44.28125 44.578125 
Q 40.484375 46.53125 36.375 47.5 
Q 32.28125 48.484375 27.875 48.484375 
Q 21.1875 48.484375 17.84375 46.4375 
Q 14.5 44.390625 14.5 40.28125 
Q 14.5 37.15625 16.890625 35.375 
Q 19.28125 33.59375 26.515625 31.984375 
L 29.59375 31.296875 
Q 39.15625 29.25 43.1875 25.515625 
Q 47.21875 21.78125 47.21875 15.09375 
Q 47.21875 7.46875 41.1875 3.015625 
Q 35.15625 -1.421875 24.609375 -1.421875 
Q 20.21875 -1.421875 15.453125 -0.5625 
Q 10.6875 0.296875 5.421875 2 
L 5.421875 11.28125 
Q 10.40625 8.6875 15.234375 7.390625 
Q 20.0625 6.109375 24.8125 6.109375 
Q 31.15625 6.109375 34.5625 8.28125 
Q 37.984375 10.453125 37.984375 14.40625 
Q 37.984375 18.0625 35.515625 20.015625 
Q 33.0625 21.96875 24.703125 23.78125 
L 21.578125 24.515625 
Q 13.234375 26.265625 9.515625 29.90625 
Q 5.8125 33.546875 5.8125 39.890625 
Q 5.8125 47.609375 11.28125 51.796875 
Q 16.75 56 26.8125 56 
Q 31.78125 56 36.171875 55.265625 
Q 40.578125 54.546875 44.28125 53.078125 
z
" id="DejaVuSans-73"/>
     </defs>
     <g transform="translate(157.627813 277.912656)scale(0.14 -0.14)">
      <use xlink:href="#DejaVuSans-52"/>
      <use x="69.419922" xlink:href="#DejaVuSans-65"/>
      <use x="130.943359" xlink:href="#DejaVuSans-6e"/>
      <use x="194.322266" xlink:href="#DejaVuSans-64"/>
      <use x="257.798828" xlink:href="#DejaVuSans-65"/>
      <use x="319.322266" xlink:href="#DejaVuSans-72"/>
      <use x="360.404297" xlink:href="#DejaVuSans-65"/>
      <use x="421.927734" xlink:href="#DejaVuSans-64"/>
      <use x="485.404297" xlink:href="#DejaVuSans-20"/>
      <use x="517.191406" xlink:href="#DejaVuSans-66"/>
      <use x="552.396484" xlink:href="#DejaVuSans-72"/>
      <use x="593.509766" xlink:href="#DejaVuSans-61"/>
      <use x="654.789062" xlink:href="#DejaVuSans-6d"/>
      <use x="752.201172" xlink:href="#DejaVuSans-65"/>
      <use x="813.724609" xlink:href="#DejaVuSans-73"/>
     </g>
    </g>
    <g id="text_9">
     <!-- 1e5 -->
     <g transform="translate(366.75875 273.873281)scale(0.1 -0.1)">
      <use xlink:href="#DejaVuSans-31"/>
      <use x="63.623047" xlink:href="#DejaVuSans-65"/>
      <use x="125.146484" xlink:href="#DejaVuSans-35"/>
     </g>
    </g>
   </g>
   <g id="matplotlib.axis_2">
    <g id="ytick_1">
     <g id="line2d_15">
      <path clip-path="url(#p2c59430396)" d="M 50.836875 227.490463 
L 385.636875 227.490463 
" style="fill:none;stroke:#b0b0b0;stroke-linecap:square;stroke-width:0.8;"/>
     </g>
     <g id="line2d_16">
      <defs>
       <path d="M 0 0 
L -3.5 0 
" id="m2621d3cd60" style="stroke:#000000;stroke-width:0.8;"/>
      </defs>
      <g>
       <use style="stroke:#000000;stroke-width:0.8;" x="50.836875" xlink:href="#m2621d3cd60" y="227.490463"/>
      </g>
     </g>
     <g id="text_10">
      <!-- 20 -->
      <g transform="translate(31.111875 231.289682)scale(0.1 -0.1)">
       <use xlink:href="#DejaVuSans-32"/>
       <use x="63.623047" xlink:href="#DejaVuSans-30"/>
      </g>
     </g>
    </g>
    <g id="ytick_2">
     <g id="line2d_17">
      <path clip-path="url(#p2c59430396)" d="M 50.836875 194.215423 
L 385.636875 194.215423 
" style="fill:none;stroke:#b0b0b0;stroke-linecap:square;stroke-width:0.8;"/>
     </g>
     <g id="line2d_18">
      <g>
       <use style="stroke:#000000;stroke-width:0.8;" x="50.836875" xlink:href="#m2621d3cd60" y="194.215423"/>
      </g>
     </g>
     <g id="text_11">
      <!-- 40 -->
      <g transform="translate(31.111875 198.014641)scale(0.1 -0.1)">
       <use xlink:href="#DejaVuSans-34"/>
       <use x="63.623047" xlink:href="#DejaVuSans-30"/>
      </g>
     </g>
    </g>
    <g id="ytick_3">
     <g id="line2d_19">
      <path clip-path="url(#p2c59430396)" d="M 50.836875 160.940382 
L 385.636875 160.940382 
" style="fill:none;stroke:#b0b0b0;stroke-linecap:square;stroke-width:0.8;"/>
     </g>
     <g id="line2d_20">
      <g>
       <use style="stroke:#000000;stroke-width:0.8;" x="50.836875" xlink:href="#m2621d3cd60" y="160.940382"/>
      </g>
     </g>
     <g id="text_12">
      <!-- 60 -->
      <g transform="translate(31.111875 164.739601)scale(0.1 -0.1)">
       <use xlink:href="#DejaVuSans-36"/>
       <use x="63.623047" xlink:href="#DejaVuSans-30"/>
      </g>
     </g>
    </g>
    <g id="ytick_4">
     <g id="line2d_21">
      <path clip-path="url(#p2c59430396)" d="M 50.836875 127.665341 
L 385.636875 127.665341 
" style="fill:none;stroke:#b0b0b0;stroke-linecap:square;stroke-width:0.8;"/>
     </g>
     <g id="line2d_22">
      <g>
       <use style="stroke:#000000;stroke-width:0.8;" x="50.836875" xlink:href="#m2621d3cd60" y="127.665341"/>
      </g>
     </g>
     <g id="text_13">
      <!-- 80 -->
      <defs>
       <path d="M 31.78125 34.625 
Q 24.75 34.625 20.71875 30.859375 
Q 16.703125 27.09375 16.703125 20.515625 
Q 16.703125 13.921875 20.71875 10.15625 
Q 24.75 6.390625 31.78125 6.390625 
Q 38.8125 6.390625 42.859375 10.171875 
Q 46.921875 13.96875 46.921875 20.515625 
Q 46.921875 27.09375 42.890625 30.859375 
Q 38.875 34.625 31.78125 34.625 
z
M 21.921875 38.8125 
Q 15.578125 40.375 12.03125 44.71875 
Q 8.5 49.078125 8.5 55.328125 
Q 8.5 64.0625 14.71875 69.140625 
Q 20.953125 74.21875 31.78125 74.21875 
Q 42.671875 74.21875 48.875 69.140625 
Q 55.078125 64.0625 55.078125 55.328125 
Q 55.078125 49.078125 51.53125 44.71875 
Q 48 40.375 41.703125 38.8125 
Q 48.828125 37.15625 52.796875 32.3125 
Q 56.78125 27.484375 56.78125 20.515625 
Q 56.78125 9.90625 50.3125 4.234375 
Q 43.84375 -1.421875 31.78125 -1.421875 
Q 19.734375 -1.421875 13.25 4.234375 
Q 6.78125 9.90625 6.78125 20.515625 
Q 6.78125 27.484375 10.78125 32.3125 
Q 14.796875 37.15625 21.921875 38.8125 
z
M 18.3125 54.390625 
Q 18.3125 48.734375 21.84375 45.5625 
Q 25.390625 42.390625 31.78125 42.390625 
Q 38.140625 42.390625 41.71875 45.5625 
Q 45.3125 48.734375 45.3125 54.390625 
Q 45.3125 60.0625 41.71875 63.234375 
Q 38.140625 66.40625 31.78125 66.40625 
Q 25.390625 66.40625 21.84375 63.234375 
Q 18.3125 60.0625 18.3125 54.390625 
z
" id="DejaVuSans-38"/>
      </defs>
      <g transform="translate(31.111875 131.46456)scale(0.1 -0.1)">
       <use xlink:href="#DejaVuSans-38"/>
       <use x="63.623047" xlink:href="#DejaVuSans-30"/>
      </g>
     </g>
    </g>
    <g id="ytick_5">
     <g id="line2d_23">
      <path clip-path="url(#p2c59430396)" d="M 50.836875 94.3903 
L 385.636875 94.3903 
" style="fill:none;stroke:#b0b0b0;stroke-linecap:square;stroke-width:0.8;"/>
     </g>
     <g id="line2d_24">
      <g>
       <use style="stroke:#000000;stroke-width:0.8;" x="50.836875" xlink:href="#m2621d3cd60" y="94.3903"/>
      </g>
     </g>
     <g id="text_14">
      <!-- 100 -->
      <g transform="translate(24.749375 98.189519)scale(0.1 -0.1)">
       <use xlink:href="#DejaVuSans-31"/>
       <use x="63.623047" xlink:href="#DejaVuSans-30"/>
       <use x="127.246094" xlink:href="#DejaVuSans-30"/>
      </g>
     </g>
    </g>
    <g id="ytick_6">
     <g id="line2d_25">
      <path clip-path="url(#p2c59430396)" d="M 50.836875 61.115259 
L 385.636875 61.115259 
" style="fill:none;stroke:#b0b0b0;stroke-linecap:square;stroke-width:0.8;"/>
     </g>
     <g id="line2d_26">
      <g>
       <use style="stroke:#000000;stroke-width:0.8;" x="50.836875" xlink:href="#m2621d3cd60" y="61.115259"/>
      </g>
     </g>
     <g id="text_15">
      <!-- 120 -->
      <g transform="translate(24.749375 64.914478)scale(0.1 -0.1)">
       <use xlink:href="#DejaVuSans-31"/>
       <use x="63.623047" xlink:href="#DejaVuSans-32"/>
       <use x="127.246094" xlink:href="#DejaVuSans-30"/>
      </g>
     </g>
    </g>
    <g id="text_16">
     <!-- Average time alive (frames) -->
     <defs>
      <path d="M 34.1875 63.1875 
L 20.796875 26.90625 
L 47.609375 26.90625 
z
M 28.609375 72.90625 
L 39.796875 72.90625 
L 67.578125 0 
L 57.328125 0 
L 50.6875 18.703125 
L 17.828125 18.703125 
L 11.1875 0 
L 0.78125 0 
z
" id="DejaVuSans-41"/>
      <path d="M 2.984375 54.6875 
L 12.5 54.6875 
L 29.59375 8.796875 
L 46.6875 54.6875 
L 56.203125 54.6875 
L 35.6875 0 
L 23.484375 0 
z
" id="DejaVuSans-76"/>
      <path d="M 45.40625 27.984375 
Q 45.40625 37.75 41.375 43.109375 
Q 37.359375 48.484375 30.078125 48.484375 
Q 22.859375 48.484375 18.828125 43.109375 
Q 14.796875 37.75 14.796875 27.984375 
Q 14.796875 18.265625 18.828125 12.890625 
Q 22.859375 7.515625 30.078125 7.515625 
Q 37.359375 7.515625 41.375 12.890625 
Q 45.40625 18.265625 45.40625 27.984375 
z
M 54.390625 6.78125 
Q 54.390625 -7.171875 48.1875 -13.984375 
Q 42 -20.796875 29.203125 -20.796875 
Q 24.46875 -20.796875 20.265625 -20.09375 
Q 16.0625 -19.390625 12.109375 -17.921875 
L 12.109375 -9.1875 
Q 16.0625 -11.328125 19.921875 -12.34375 
Q 23.78125 -13.375 27.78125 -13.375 
Q 36.625 -13.375 41.015625 -8.765625 
Q 45.40625 -4.15625 45.40625 5.171875 
L 45.40625 9.625 
Q 42.625 4.78125 38.28125 2.390625 
Q 33.9375 0 27.875 0 
Q 17.828125 0 11.671875 7.65625 
Q 5.515625 15.328125 5.515625 27.984375 
Q 5.515625 40.671875 11.671875 48.328125 
Q 17.828125 56 27.875 56 
Q 33.9375 56 38.28125 53.609375 
Q 42.625 51.21875 45.40625 46.390625 
L 45.40625 54.6875 
L 54.390625 54.6875 
z
" id="DejaVuSans-67"/>
      <path d="M 18.3125 70.21875 
L 18.3125 54.6875 
L 36.8125 54.6875 
L 36.8125 47.703125 
L 18.3125 47.703125 
L 18.3125 18.015625 
Q 18.3125 11.328125 20.140625 9.421875 
Q 21.96875 7.515625 27.59375 7.515625 
L 36.8125 7.515625 
L 36.8125 0 
L 27.59375 0 
Q 17.1875 0 13.234375 3.875 
Q 9.28125 7.765625 9.28125 18.015625 
L 9.28125 47.703125 
L 2.6875 47.703125 
L 2.6875 54.6875 
L 9.28125 54.6875 
L 9.28125 70.21875 
z
" id="DejaVuSans-74"/>
      <path d="M 9.421875 54.6875 
L 18.40625 54.6875 
L 18.40625 0 
L 9.421875 0 
z
M 9.421875 75.984375 
L 18.40625 75.984375 
L 18.40625 64.59375 
L 9.421875 64.59375 
z
" id="DejaVuSans-69"/>
      <path d="M 9.421875 75.984375 
L 18.40625 75.984375 
L 18.40625 0 
L 9.421875 0 
z
" id="DejaVuSans-6c"/>
      <path d="M 31 75.875 
Q 24.46875 64.65625 21.28125 53.65625 
Q 18.109375 42.671875 18.109375 31.390625 
Q 18.109375 20.125 21.3125 9.0625 
Q 24.515625 -2 31 -13.1875 
L 23.1875 -13.1875 
Q 15.875 -1.703125 12.234375 9.375 
Q 8.59375 20.453125 8.59375 31.390625 
Q 8.59375 42.28125 12.203125 53.3125 
Q 15.828125 64.359375 23.1875 75.875 
z
" id="DejaVuSans-28"/>
      <path d="M 8.015625 75.875 
L 15.828125 75.875 
Q 23.140625 64.359375 26.78125 53.3125 
Q 30.421875 42.28125 30.421875 31.390625 
Q 30.421875 20.453125 26.78125 9.375 
Q 23.140625 -1.703125 15.828125 -13.1875 
L 8.015625 -13.1875 
Q 14.5 -2 17.703125 9.0625 
Q 20.90625 20.125 20.90625 31.390625 
Q 20.90625 42.671875 17.703125 53.65625 
Q 14.5 64.65625 8.015625 75.875 
z
" id="DejaVuSans-29"/>
     </defs>
     <g transform="translate(17.837812 236.012344)rotate(-90)scale(0.14 -0.14)">
      <use xlink:href="#DejaVuSans-41"/>
      <use x="68.330078" xlink:href="#DejaVuSans-76"/>
      <use x="127.509766" xlink:href="#DejaVuSans-65"/>
      <use x="189.033203" xlink:href="#DejaVuSans-72"/>
      <use x="230.146484" xlink:href="#DejaVuSans-61"/>
      <use x="291.425781" xlink:href="#DejaVuSans-67"/>
      <use x="354.902344" xlink:href="#DejaVuSans-65"/>
      <use x="416.425781" xlink:href="#DejaVuSans-20"/>
      <use x="448.212891" xlink:href="#DejaVuSans-74"/>
      <use x="487.421875" xlink:href="#DejaVuSans-69"/>
      <use x="515.205078" xlink:href="#DejaVuSans-6d"/>
      <use x="612.617188" xlink:href="#DejaVuSans-65"/>
      <use x="674.140625" xlink:href="#DejaVuSans-20"/>
      <use x="705.927734" xlink:href="#DejaVuSans-61"/>
      <use x="767.207031" xlink:href="#DejaVuSans-6c"/>
      <use x="794.990234" xlink:href="#DejaVuSans-69"/>
      <use x="822.773438" xlink:href="#DejaVuSans-76"/>
      <use x="881.953125" xlink:href="#DejaVuSans-65"/>
      <use x="943.476562" xlink:href="#DejaVuSans-20"/>
      <use x="975.263672" xlink:href="#DejaVuSans-28"/>
      <use x="1014.277344" xlink:href="#DejaVuSans-66"/>
      <use x="1049.482422" xlink:href="#DejaVuSans-72"/>
      <use x="1090.595703" xlink:href="#DejaVuSans-61"/>
      <use x="1151.875" xlink:href="#DejaVuSans-6d"/>
      <use x="1249.287109" xlink:href="#DejaVuSans-65"/>
      <use x="1310.810547" xlink:href="#DejaVuSans-73"/>
      <use x="1362.910156" xlink:href="#DejaVuSans-29"/>
     </g>
    </g>
   </g>
   <g id="line2d_27">
    <path clip-path="url(#p2c59430396)" d="M 55.913673 112.262324 
L 66.517354 92.272344 
L 77.495229 100.148547 
L 88.639864 94.762981 
L 99.310098 110.327381 
L 108.6372 122.910338 
L 118.292754 116.806031 
L 128.58722 101.208356 
L 139.398466 99.151958 
L 149.919176 101.078583 
L 160.917606 98.726038 
L 171.494483 100.181821 
L 182.185303 111.274056 
L 192.418356 100.529546 
L 203.216647 97.423321 
L 214.139052 101.426308 
L 223.943374 120.230034 
L 233.868189 106.341031 
L 244.554688 106.765289 
L 254.76312 106.327721 
L 264.808186 109.154436 
L 275.2788 101.850565 
L 286.420567 98.960627 
L 296.576544 112.929489 
L 306.314916 118.428189 
L 316.245609 105.247946 
L 326.879423 103.472723 
L 337.026359 110.739991 
L 347.430456 101.033662 
L 358.060267 101.739092 
L 368.819574 109.43561 
L 378.729877 103.397854 
L 389.43179 98.62954 
L 397.336875 104.444257 
" style="fill:none;stroke:#1f77b4;stroke-linecap:square;stroke-width:1.5;"/>
   </g>
   <g id="line2d_28">
    <path clip-path="url(#p2c59430396)" d="M 57.15302 86.212959 
L 67.40042 125.826895 
L 74.446596 175.825972 
L 79.754015 197.326639 
L 82.855859 224.234501 
L 85.218023 225.214451 
L 87.549708 226.527151 
L 89.837517 226.537134 
L 92.070323 228.741605 
L 94.201381 229.405442 
L 96.332494 228.831448 
L 98.419198 228.936264 
L 100.559951 230.217353 
L 102.569314 231.09415 
L 104.549096 231.694765 
L 106.491378 231.418582 
L 108.390841 233.335224 
L 110.240365 233.498272 
L 112.066898 233.13391 
L 113.925141 233.275329 
L 115.800788 232.711317 
L 117.63295 233.734525 
L 119.439201 233.809394 
L 121.284598 232.852736 
L 123.181303 232.410178 
L 125.033552 233.411757 
L 126.859297 233.75449 
L 128.671373 233.792756 
L 130.473869 234.320166 
L 132.269542 233.75449 
L 134.052647 234.273581 
L 135.815748 234.531462 
L 137.599041 233.907555 
L 139.395946 234.336803 
L 141.184804 233.822704 
L 142.962418 234.436628 
L 144.684487 235.879101 
L 146.389326 234.97402 
L 148.122921 234.5481 
L 149.857381 235.065526 
" style="fill:none;stroke:#ff7f0e;stroke-linecap:square;stroke-width:1.5;"/>
   </g>
   <g id="line2d_29">
    <path clip-path="url(#p2c59430396)" d="M 58.00568 55.134071 
L 70.710438 84.637386 
L 81.489603 112.099277 
L 91.613008 105.166422 
L 102.187095 104.204773 
L 112.160658 118.890713 
L 122.05019 112.170818 
L 131.941311 112.613376 
L 141.904816 108.758463 
L 152.137931 119.032132 
L 161.417616 120.035374 
L 170.486998 125.607279 
L 179.955263 115.095694 
L 189.614037 121.041944 
L 199.053862 116.346836 
L 208.433935 126.745286 
L 217.421974 124.755439 
L 226.634925 119.150258 
L 236.126757 128.242664 
L 244.851225 137.534718 
L 251.229245 192.463492 
L 254.825837 212.413542 
L 257.983614 216.125373 
L 260.87203 217.080367 
L 263.798459 218.544469 
L 266.617999 218.4696 
L 269.43031 220.26978 
L 272.079554 220.58922 
L 274.694668 223.19632 
L 277.21804 222.933447 
L 279.775856 223.445882 
L 282.171185 225.419092 
L 284.599788 225.049739 
L 286.984292 223.52907 
L 289.453216 225.292647 
L 291.841195 225.236079 
L 294.160158 226.285907 
L 296.460621 226.433981 
L 298.821922 226.142824 
L 301.123822 226.166117 
" style="fill:none;stroke:#2ca02c;stroke-linecap:square;stroke-width:1.5;"/>
   </g>
   <g id="line2d_30">
    <path clip-path="url(#p2c59430396)" d="M 50.836875 84.536451 
L 385.636875 84.536451 
" style="fill:none;stroke:#000000;stroke-linecap:square;stroke-width:1.5;"/>
   </g>
   <g id="patch_3">
    <path d="M 50.836875 246.596719 
L 50.836875 29.156719 
" style="fill:none;stroke:#000000;stroke-linecap:square;stroke-linejoin:miter;stroke-width:0.8;"/>
   </g>
   <g id="patch_4">
    <path d="M 385.636875 246.596719 
L 385.636875 29.156719 
" style="fill:none;stroke:#000000;stroke-linecap:square;stroke-linejoin:miter;stroke-width:0.8;"/>
   </g>
   <g id="patch_5">
    <path d="M 50.836875 246.596719 
L 385.636875 246.596719 
" style="fill:none;stroke:#000000;stroke-linecap:square;stroke-linejoin:miter;stroke-width:0.8;"/>
   </g>
   <g id="patch_6">
    <path d="M 50.836875 29.156719 
L 385.636875 29.156719 
" style="fill:none;stroke:#000000;stroke-linecap:square;stroke-linejoin:miter;stroke-width:0.8;"/>
   </g>
   <g id="text_17">
    <!-- Basic scenario -->
    <defs>
     <path d="M 19.671875 34.8125 
L 19.671875 8.109375 
L 35.5 8.109375 
Q 43.453125 8.109375 47.28125 11.40625 
Q 51.125 14.703125 51.125 21.484375 
Q 51.125 28.328125 47.28125 31.5625 
Q 43.453125 34.8125 35.5 34.8125 
z
M 19.671875 64.796875 
L 19.671875 42.828125 
L 34.28125 42.828125 
Q 41.5 42.828125 45.03125 45.53125 
Q 48.578125 48.25 48.578125 53.8125 
Q 48.578125 59.328125 45.03125 62.0625 
Q 41.5 64.796875 34.28125 64.796875 
z
M 9.8125 72.90625 
L 35.015625 72.90625 
Q 46.296875 72.90625 52.390625 68.21875 
Q 58.5 63.53125 58.5 54.890625 
Q 58.5 48.1875 55.375 44.234375 
Q 52.25 40.28125 46.1875 39.3125 
Q 53.46875 37.75 57.5 32.78125 
Q 61.53125 27.828125 61.53125 20.40625 
Q 61.53125 10.640625 54.890625 5.3125 
Q 48.25 0 35.984375 0 
L 9.8125 0 
z
" id="DejaVuSans-42"/>
     <path d="M 48.78125 52.59375 
L 48.78125 44.1875 
Q 44.96875 46.296875 41.140625 47.34375 
Q 37.3125 48.390625 33.40625 48.390625 
Q 24.65625 48.390625 19.8125 42.84375 
Q 14.984375 37.3125 14.984375 27.296875 
Q 14.984375 17.28125 19.8125 11.734375 
Q 24.65625 6.203125 33.40625 6.203125 
Q 37.3125 6.203125 41.140625 7.25 
Q 44.96875 8.296875 48.78125 10.40625 
L 48.78125 2.09375 
Q 45.015625 0.34375 40.984375 -0.53125 
Q 36.96875 -1.421875 32.421875 -1.421875 
Q 20.0625 -1.421875 12.78125 6.34375 
Q 5.515625 14.109375 5.515625 27.296875 
Q 5.515625 40.671875 12.859375 48.328125 
Q 20.21875 56 33.015625 56 
Q 37.15625 56 41.109375 55.140625 
Q 45.0625 54.296875 48.78125 52.59375 
z
" id="DejaVuSans-63"/>
     <path d="M 30.609375 48.390625 
Q 23.390625 48.390625 19.1875 42.75 
Q 14.984375 37.109375 14.984375 27.296875 
Q 14.984375 17.484375 19.15625 11.84375 
Q 23.34375 6.203125 30.609375 6.203125 
Q 37.796875 6.203125 41.984375 11.859375 
Q 46.1875 17.53125 46.1875 27.296875 
Q 46.1875 37.015625 41.984375 42.703125 
Q 37.796875 48.390625 30.609375 48.390625 
z
M 30.609375 56 
Q 42.328125 56 49.015625 48.375 
Q 55.71875 40.765625 55.71875 27.296875 
Q 55.71875 13.875 49.015625 6.21875 
Q 42.328125 -1.421875 30.609375 -1.421875 
Q 18.84375 -1.421875 12.171875 6.21875 
Q 5.515625 13.875 5.515625 27.296875 
Q 5.515625 40.765625 12.171875 48.375 
Q 18.84375 56 30.609375 56 
z
" id="DejaVuSans-6f"/>
    </defs>
    <g transform="translate(142.65 23.156719)scale(0.21 -0.21)">
     <use xlink:href="#DejaVuSans-42"/>
     <use x="68.603516" xlink:href="#DejaVuSans-61"/>
     <use x="129.882812" xlink:href="#DejaVuSans-73"/>
     <use x="181.982422" xlink:href="#DejaVuSans-69"/>
     <use x="209.765625" xlink:href="#DejaVuSans-63"/>
     <use x="264.746094" xlink:href="#DejaVuSans-20"/>
     <use x="296.533203" xlink:href="#DejaVuSans-73"/>
     <use x="348.632812" xlink:href="#DejaVuSans-63"/>
     <use x="403.613281" xlink:href="#DejaVuSans-65"/>
     <use x="465.136719" xlink:href="#DejaVuSans-6e"/>
     <use x="528.515625" xlink:href="#DejaVuSans-61"/>
     <use x="589.794922" xlink:href="#DejaVuSans-72"/>
     <use x="630.908203" xlink:href="#DejaVuSans-69"/>
     <use x="658.691406" xlink:href="#DejaVuSans-6f"/>
    </g>
   </g>
   <g id="legend_1">
    <g id="patch_7">
     <path d="M 269.576875 239.596719 
L 375.836875 239.596719 
Q 378.636875 239.596719 378.636875 236.796719 
L 378.636875 155.999219 
Q 378.636875 153.199219 375.836875 153.199219 
L 269.576875 153.199219 
Q 266.776875 153.199219 266.776875 155.999219 
L 266.776875 236.796719 
Q 266.776875 239.596719 269.576875 239.596719 
z
" style="fill:#ffffff;opacity:0.8;stroke:#cccccc;stroke-linejoin:miter;"/>
    </g>
    <g id="line2d_31">
     <path d="M 272.376875 164.537031 
L 300.376875 164.537031 
" style="fill:none;stroke:#1f77b4;stroke-linecap:square;stroke-width:1.5;"/>
    </g>
    <g id="line2d_32"/>
    <g id="text_18">
     <!-- $\alpha$ = 1e-3 -->
     <defs>
      <path d="M 40.921875 25.4375 
L 40.96875 36.71875 
Q 41.015625 48.25 32.328125 48.296875 
Q 25.828125 48.34375 21.78125 42.921875 
Q 16.703125 36.234375 14.984375 27.296875 
Q 12.890625 16.546875 15.53125 11.421875 
Q 18.265625 6.203125 24.171875 6.203125 
Q 30.71875 6.203125 36.234375 16.609375 
z
M 33.84375 55.90625 
Q 49.078125 56.15625 48.875 40.375 
Q 48.875 40.375 56.5 54.6875 
L 64.5 54.6875 
L 48.734375 25.046875 
L 48.578125 14.359375 
Q 48.578125 11.96875 49.90625 9.96875 
Q 51.421875 7.625 52.984375 7.625 
L 57.328125 7.625 
L 55.859375 0 
L 50.4375 0 
Q 45.84375 0 42.53125 4.109375 
Q 40.96875 6.15625 40.921875 10.453125 
Q 37.75 5.21875 32.28125 0.78125 
Q 29.6875 -1.265625 22.703125 -1.21875 
Q 11.28125 -1.125 7.125 6.203125 
Q 2.875 13.8125 5.515625 27.296875 
Q 8.34375 41.796875 15.765625 48.390625 
Q 24.125 55.765625 33.84375 55.90625 
z
" id="DejaVuSans-Oblique-3b1"/>
      <path d="M 10.59375 45.40625 
L 73.1875 45.40625 
L 73.1875 37.203125 
L 10.59375 37.203125 
z
M 10.59375 25.484375 
L 73.1875 25.484375 
L 73.1875 17.1875 
L 10.59375 17.1875 
z
" id="DejaVuSans-3d"/>
      <path d="M 4.890625 31.390625 
L 31.203125 31.390625 
L 31.203125 23.390625 
L 4.890625 23.390625 
z
" id="DejaVuSans-2d"/>
     </defs>
     <g transform="translate(311.576875 169.437031)scale(0.14 -0.14)">
      <use transform="translate(0 0.78125)" xlink:href="#DejaVuSans-Oblique-3b1"/>
      <use transform="translate(65.917969 0.78125)" xlink:href="#DejaVuSans-20"/>
      <use transform="translate(97.705078 0.78125)" xlink:href="#DejaVuSans-3d"/>
      <use transform="translate(181.494141 0.78125)" xlink:href="#DejaVuSans-20"/>
      <use transform="translate(213.28125 0.78125)" xlink:href="#DejaVuSans-31"/>
      <use transform="translate(276.904297 0.78125)" xlink:href="#DejaVuSans-65"/>
      <use transform="translate(338.427734 0.78125)" xlink:href="#DejaVuSans-2d"/>
      <use transform="translate(374.511719 0.78125)" xlink:href="#DejaVuSans-33"/>
     </g>
    </g>
    <g id="line2d_33">
     <path d="M 272.376875 185.086406 
L 300.376875 185.086406 
" style="fill:none;stroke:#ff7f0e;stroke-linecap:square;stroke-width:1.5;"/>
    </g>
    <g id="line2d_34"/>
    <g id="text_19">
     <!-- $\alpha$ = 1e-4 -->
     <g transform="translate(311.576875 189.986406)scale(0.14 -0.14)">
      <use transform="translate(0 0.09375)" xlink:href="#DejaVuSans-Oblique-3b1"/>
      <use transform="translate(65.917969 0.09375)" xlink:href="#DejaVuSans-20"/>
      <use transform="translate(97.705078 0.09375)" xlink:href="#DejaVuSans-3d"/>
      <use transform="translate(181.494141 0.09375)" xlink:href="#DejaVuSans-20"/>
      <use transform="translate(213.28125 0.09375)" xlink:href="#DejaVuSans-31"/>
      <use transform="translate(276.904297 0.09375)" xlink:href="#DejaVuSans-65"/>
      <use transform="translate(338.427734 0.09375)" xlink:href="#DejaVuSans-2d"/>
      <use transform="translate(374.511719 0.09375)" xlink:href="#DejaVuSans-34"/>
     </g>
    </g>
    <g id="line2d_35">
     <path d="M 272.376875 205.635781 
L 300.376875 205.635781 
" style="fill:none;stroke:#2ca02c;stroke-linecap:square;stroke-width:1.5;"/>
    </g>
    <g id="line2d_36"/>
    <g id="text_20">
     <!-- $\alpha$ = 1e-5 -->
     <g transform="translate(311.576875 210.535781)scale(0.14 -0.14)">
      <use transform="translate(0 0.09375)" xlink:href="#DejaVuSans-Oblique-3b1"/>
      <use transform="translate(65.917969 0.09375)" xlink:href="#DejaVuSans-20"/>
      <use transform="translate(97.705078 0.09375)" xlink:href="#DejaVuSans-3d"/>
      <use transform="translate(181.494141 0.09375)" xlink:href="#DejaVuSans-20"/>
      <use transform="translate(213.28125 0.09375)" xlink:href="#DejaVuSans-31"/>
      <use transform="translate(276.904297 0.09375)" xlink:href="#DejaVuSans-65"/>
      <use transform="translate(338.427734 0.09375)" xlink:href="#DejaVuSans-2d"/>
      <use transform="translate(374.511719 0.09375)" xlink:href="#DejaVuSans-35"/>
     </g>
    </g>
    <g id="line2d_37">
     <path d="M 272.376875 226.185156 
L 300.376875 226.185156 
" style="fill:none;stroke:#000000;stroke-linecap:square;stroke-width:1.5;"/>
    </g>
    <g id="line2d_38"/>
    <g id="text_21">
     <!-- Baseline -->
     <g transform="translate(311.576875 231.085156)scale(0.14 -0.14)">
      <use xlink:href="#DejaVuSans-42"/>
      <use x="68.603516" xlink:href="#DejaVuSans-61"/>
      <use x="129.882812" xlink:href="#DejaVuSans-73"/>
      <use x="181.982422" xlink:href="#DejaVuSans-65"/>
      <use x="243.505859" xlink:href="#DejaVuSans-6c"/>
      <use x="271.289062" xlink:href="#DejaVuSans-69"/>
      <use x="299.072266" xlink:href="#DejaVuSans-6e"/>
      <use x="362.451172" xlink:href="#DejaVuSans-65"/>
     </g>
    </g>
   </g>
  </g>
 </g>
 <defs>
  <clipPath id="p2c59430396">
   <rect height="217.44" width="334.8" x="50.836875" y="29.156719"/>
  </clipPath>
 </defs>
</svg>
