<?xml version="1.0" encoding="utf-8" standalone="no"?>
<!DOCTYPE svg PUBLIC "-//W3C//DTD SVG 1.1//EN"
  "http://www.w3.org/Graphics/SVG/1.1/DTD/svg11.dtd">
<!-- Created with matplotlib (https://matplotlib.org/) -->
<svg height="288.024219pt" version="1.1" viewBox="0 0 393.1525 288.024219" width="393.1525pt" xmlns="http://www.w3.org/2000/svg" xmlns:xlink="http://www.w3.org/1999/xlink">
 <defs>
  <style type="text/css">
*{stroke-linecap:butt;stroke-linejoin:round;}
  </style>
 </defs>
 <g id="figure_1">
  <g id="patch_1">
   <path d="M 0 288.024219 
L 393.1525 288.024219 
L 393.1525 0 
L 0 0 
z
" style="fill:#ffffff;"/>
  </g>
  <g id="axes_1">
   <g id="patch_2">
    <path d="M 47.6525 246.596719 
L 382.4525 246.596719 
L 382.4525 29.156719 
L 47.6525 29.156719 
z
" style="fill:#ffffff;"/>
   </g>
   <g id="PolyCollection_1">
    <path clip-path="url(#p786f4e9b47)" d="M 50.120384 226.900268 
L 50.120384 220.36589 
L 55.079978 220.446986 
L 60.017216 217.80483 
L 65.001819 218.964829 
L 70.483122 219.260144 
L 76.45982 223.420846 
L 81.749476 221.343193 
L 86.685612 222.0436 
L 91.855527 223.419005 
L 97.709641 228.564245 
L 105.782214 234.367889 
L 114.873679 231.343889 
L 124.364701 229.950743 
L 131.36788 225.527813 
L 136.397176 218.570396 
L 140.873671 217.610539 
L 145.189383 221.105937 
L 149.405035 222.359551 
L 153.509031 224.5001 
L 157.481935 224.475552 
L 161.376285 227.951827 
L 165.255003 228.548701 
L 169.15229 230.317045 
L 173.019592 230.208648 
L 176.876711 228.873133 
L 180.72784 227.712548 
L 184.563194 229.369047 
L 188.396357 228.493151 
L 192.223436 228.290708 
L 196.071659 228.045179 
L 199.904045 227.693354 
L 199.904045 231.785529 
L 199.904045 231.785529 
L 196.071659 232.654977 
L 192.223436 232.10413 
L 188.396357 232.207004 
L 184.563194 232.857699 
L 180.72784 232.071653 
L 176.876711 233.048295 
L 173.019592 233.850007 
L 169.15229 234.046928 
L 165.255003 232.456773 
L 161.376285 232.137693 
L 157.481935 230.118241 
L 153.509031 229.483057 
L 149.405035 227.959788 
L 145.189383 226.160221 
L 140.873671 223.854575 
L 136.397176 224.726627 
L 131.36788 230.287252 
L 124.364701 233.802594 
L 114.873679 235.157311 
L 105.782214 236.713082 
L 97.709641 232.746546 
L 91.855527 228.732243 
L 86.685612 227.665103 
L 81.749476 226.838919 
L 76.45982 228.425084 
L 70.483122 224.952833 
L 65.001819 224.94283 
L 60.017216 223.965602 
L 55.079978 225.903218 
L 50.120384 226.900268 
z
" style="fill:#1f77b4;fill-opacity:0.3;"/>
   </g>
   <g id="PolyCollection_2">
    <path clip-path="url(#p786f4e9b47)" d="M 50.111131 226.497359 
L 50.111131 220.463481 
L 54.901559 214.706919 
L 59.671157 216.972419 
L 64.356582 200.991045 
L 68.840748 150.196186 
L 73.196275 84.23547 
L 77.601237 75.517329 
L 81.921937 68.956339 
L 86.145886 72.663195 
L 90.308124 70.057242 
L 94.433703 75.539694 
L 98.537735 67.221539 
L 102.647541 73.842607 
L 106.740746 70.609584 
L 110.833706 72.37576 
L 114.930694 73.334207 
L 119.00888 67.909286 
L 123.074466 70.655501 
L 127.143843 72.253584 
L 131.207331 71.155818 
L 135.2691 71.302352 
L 139.332773 70.49553 
L 143.385243 70.179077 
L 147.428959 71.916414 
L 151.457605 64.376254 
L 155.475033 61.448419 
L 159.476155 57.877868 
L 163.467043 63.909757 
L 167.460003 63.704876 
L 171.429023 65.015172 
L 175.38192 53.292672 
L 179.319967 57.537637 
L 183.272799 51.539278 
L 187.223434 54.983983 
L 191.163206 55.343678 
L 195.10447 59.465219 
L 199.049105 53.254964 
L 202.987426 57.871235 
L 206.930295 50.534078 
L 210.856963 55.869721 
L 214.785735 58.418967 
L 218.726419 57.263977 
L 222.655306 56.275926 
L 226.585113 51.238895 
L 230.498302 54.276742 
L 234.434768 60.53575 
L 238.372901 54.56862 
L 242.30644 55.13939 
L 246.229646 47.555974 
L 250.158991 53.575672 
L 254.094968 56.383241 
L 258.019547 53.80119 
L 261.943229 52.575654 
L 265.843951 47.612373 
L 269.765038 53.278428 
L 273.675658 48.177823 
L 277.591578 49.886372 
L 281.50825 52.276523 
L 285.431372 57.872313 
L 289.346859 52.130121 
L 293.261926 49.120494 
L 297.191106 49.483873 
L 301.115011 49.506569 
L 305.041563 54.214989 
L 308.9718 50.730739 
L 312.882264 50.325397 
L 316.795556 54.676914 
L 320.719167 53.380157 
L 324.643232 50.639601 
L 328.556282 51.081613 
L 332.487281 52.542581 
L 336.421589 59.923218 
L 340.353021 54.046404 
L 344.272883 56.92366 
L 348.202354 56.609762 
L 352.136816 47.092864 
L 356.067608 55.172423 
L 359.993823 50.480953 
L 363.911277 49.029314 
L 367.829792 53.151111 
L 371.741364 50.166675 
L 375.64979 50.504385 
L 379.561053 52.221828 
L 383.489533 50.190773 
L 387.415968 52.714941 
L 387.415968 66.028912 
L 387.415968 66.028912 
L 383.489533 63.973308 
L 379.561053 65.911389 
L 375.64979 63.04906 
L 371.741364 63.081451 
L 367.829792 65.89806 
L 363.911277 62.386904 
L 359.993823 63.683128 
L 356.067608 67.845884 
L 352.136816 60.354219 
L 348.202354 70.37768 
L 344.272883 69.147829 
L 340.353021 68.055949 
L 336.421589 73.475904 
L 332.487281 65.590636 
L 328.556282 64.914377 
L 324.643232 62.913845 
L 320.719167 68.111559 
L 316.795556 68.341393 
L 312.882264 64.144002 
L 308.9718 64.349296 
L 305.041563 68.803318 
L 301.115011 62.520286 
L 297.191106 62.8483 
L 293.261926 62.601041 
L 289.346859 65.39246 
L 285.431372 73.084265 
L 281.50825 65.856694 
L 277.591578 64.277709 
L 273.675658 60.79585 
L 269.765038 66.381379 
L 265.843951 61.971936 
L 261.943229 67.69479 
L 258.019547 69.522435 
L 254.094968 69.688247 
L 250.158991 67.00009 
L 246.229646 60.807062 
L 242.30644 67.573599 
L 238.372901 68.449686 
L 234.434768 73.168691 
L 230.498302 66.604337 
L 226.585113 65.673049 
L 222.655306 69.184926 
L 218.726419 70.63942 
L 214.785735 72.537611 
L 210.856963 68.980495 
L 206.930295 63.324685 
L 202.987426 71.558752 
L 199.049105 65.48889 
L 195.10447 74.849859 
L 191.163206 69.20122 
L 187.223434 68.034324 
L 183.272799 64.151393 
L 179.319967 72.808305 
L 175.38192 66.367135 
L 171.429023 76.62754 
L 167.460003 76.411246 
L 163.467043 78.954228 
L 159.476155 71.857437 
L 155.475033 75.614522 
L 151.457605 76.96114 
L 147.428959 85.602841 
L 143.385243 82.760406 
L 139.332773 83.970544 
L 135.2691 83.46904 
L 131.207331 83.920891 
L 127.143843 84.044399 
L 123.074466 84.726527 
L 119.00888 80.755743 
L 114.930694 87.848865 
L 110.833706 85.75413 
L 106.740746 84.467126 
L 102.647541 89.172374 
L 98.537735 79.9169 
L 94.433703 90.833786 
L 90.308124 82.576923 
L 86.145886 87.298605 
L 81.921937 83.06719 
L 77.601237 88.108288 
L 73.196275 98.319871 
L 68.840748 164.867223 
L 64.356582 210.247574 
L 59.671157 223.882059 
L 54.901559 222.178422 
L 50.111131 226.497359 
z
" style="fill:#ff7f0e;fill-opacity:0.3;"/>
   </g>
   <g id="PolyCollection_3">
    <path clip-path="url(#p786f4e9b47)" d="M 50.109839 223.242683 
L 50.109839 216.085203 
L 54.881506 212.359461 
L 59.451806 145.421539 
L 63.714846 80.973586 
L 67.940913 78.489083 
L 72.150531 73.722463 
L 76.35257 71.708468 
L 80.549298 76.714325 
L 84.737035 73.795362 
L 88.906065 69.254373 
L 93.064669 70.345015 
L 97.21133 73.366199 
L 101.337718 65.993348 
L 105.44792 74.30481 
L 109.533778 70.309303 
L 113.600088 58.872654 
L 117.657442 65.300189 
L 121.690162 57.983182 
L 125.715312 60.076175 
L 129.763113 61.409046 
L 133.786107 58.542455 
L 137.799966 53.599319 
L 141.799065 58.791055 
L 145.822883 56.823339 
L 149.823664 54.898822 
L 153.821937 57.771061 
L 157.826106 57.980268 
L 161.820071 58.192038 
L 165.831207 62.060615 
L 169.846782 56.612704 
L 173.884151 58.620386 
L 177.889337 54.938988 
L 181.8844 54.622237 
L 185.897114 56.656062 
L 189.909947 54.17177 
L 193.920249 48.529742 
L 197.924772 54.278279 
L 201.917763 55.080977 
L 205.888136 49.862413 
L 209.877407 46.034061 
L 213.864342 49.322918 
L 217.852228 50.628882 
L 221.858383 55.321281 
L 225.858938 46.441569 
L 229.837983 44.494197 
L 233.814987 48.528449 
L 237.792387 44.911911 
L 241.785646 51.651076 
L 245.789015 49.982409 
L 249.764771 43.816612 
L 253.742221 47.769904 
L 257.714053 42.645154 
L 261.69082 48.929576 
L 265.666283 46.882149 
L 269.643524 46.003992 
L 273.626403 49.93838 
L 277.601018 46.40291 
L 281.594711 41.109418 
L 285.585895 47.471031 
L 289.568681 45.295348 
L 293.537615 45.289572 
L 297.5174 47.438945 
L 301.500838 39.040355 
L 305.47979 46.284745 
L 309.472743 47.832782 
L 313.452344 42.659549 
L 317.408993 47.120842 
L 321.366725 48.938846 
L 325.3212 47.992441 
L 329.296948 52.658253 
L 329.296948 66.390918 
L 329.296948 66.390918 
L 325.3212 60.370596 
L 321.366725 62.172054 
L 317.408993 58.799649 
L 313.452344 55.017354 
L 309.472743 60.224937 
L 305.47979 59.025111 
L 301.500838 52.224867 
L 297.5174 59.092183 
L 293.537615 56.967102 
L 289.568681 58.487918 
L 285.585895 59.060096 
L 281.594711 55.040894 
L 277.601018 58.906945 
L 273.626403 64.225702 
L 269.643524 59.611182 
L 265.666283 60.870251 
L 261.69082 62.79196 
L 257.714053 55.642385 
L 253.742221 61.814405 
L 249.764771 57.218791 
L 245.789015 62.044445 
L 241.785646 65.260869 
L 237.792387 57.650082 
L 233.814987 61.666497 
L 229.837983 58.373114 
L 225.858938 58.562968 
L 221.858383 67.697026 
L 217.852228 63.840517 
L 213.864342 62.703936 
L 209.877407 58.359841 
L 205.888136 63.080396 
L 201.917763 67.021375 
L 197.924772 66.90812 
L 193.920249 62.27584 
L 189.909947 66.709309 
L 185.897114 70.636699 
L 181.8844 69.006707 
L 177.889337 68.384638 
L 173.884151 70.504283 
L 169.846782 70.985375 
L 165.831207 74.391688 
L 161.820071 71.23795 
L 157.826106 71.144401 
L 153.821937 70.132336 
L 149.823664 68.119485 
L 145.822883 70.77474 
L 141.799065 70.94425 
L 137.799966 66.060488 
L 133.786107 70.582214 
L 129.763113 75.653895 
L 125.715312 73.01763 
L 121.690162 70.836169 
L 117.657442 75.731887 
L 113.600088 72.999879 
L 109.533778 85.378044 
L 105.44792 87.488898 
L 101.337718 81.450408 
L 97.21133 85.984964 
L 93.064669 83.510423 
L 88.906065 84.295746 
L 84.737035 86.166437 
L 80.549298 90.880428 
L 76.35257 85.505469 
L 72.150531 88.071246 
L 67.940913 92.769488 
L 63.714846 95.475393 
L 59.451806 169.64187 
L 54.881506 219.946109 
L 50.109839 223.242683 
z
" style="fill:#2ca02c;fill-opacity:0.3;"/>
   </g>
   <g id="matplotlib.axis_1">
    <g id="xtick_1">
     <g id="line2d_1">
      <path clip-path="url(#p786f4e9b47)" d="M 47.6525 246.596719 
L 47.6525 29.156719 
" style="fill:none;stroke:#b0b0b0;stroke-linecap:square;stroke-width:0.8;"/>
     </g>
     <g id="line2d_2">
      <defs>
       <path d="M 0 0 
L 0 3.5 
" id="m20b0e41f48" style="stroke:#000000;stroke-width:0.8;"/>
      </defs>
      <g>
       <use style="stroke:#000000;stroke-width:0.8;" x="47.6525" xlink:href="#m20b0e41f48" y="246.596719"/>
      </g>
     </g>
     <g id="text_1">
      <!-- 0 -->
      <defs>
       <path d="M 31.78125 66.40625 
Q 24.171875 66.40625 20.328125 58.90625 
Q 16.5 51.421875 16.5 36.375 
Q 16.5 21.390625 20.328125 13.890625 
Q 24.171875 6.390625 31.78125 6.390625 
Q 39.453125 6.390625 43.28125 13.890625 
Q 47.125 21.390625 47.125 36.375 
Q 47.125 51.421875 43.28125 58.90625 
Q 39.453125 66.40625 31.78125 66.40625 
z
M 31.78125 74.21875 
Q 44.046875 74.21875 50.515625 64.515625 
Q 56.984375 54.828125 56.984375 36.375 
Q 56.984375 17.96875 50.515625 8.265625 
Q 44.046875 -1.421875 31.78125 -1.421875 
Q 19.53125 -1.421875 13.0625 8.265625 
Q 6.59375 17.96875 6.59375 36.375 
Q 6.59375 54.828125 13.0625 64.515625 
Q 19.53125 74.21875 31.78125 74.21875 
z
" id="DejaVuSans-48"/>
      </defs>
      <g transform="translate(44.47125 261.195156)scale(0.1 -0.1)">
       <use xlink:href="#DejaVuSans-48"/>
      </g>
     </g>
    </g>
    <g id="xtick_2">
     <g id="line2d_3">
      <path clip-path="url(#p786f4e9b47)" d="M 103.4525 246.596719 
L 103.4525 29.156719 
" style="fill:none;stroke:#b0b0b0;stroke-linecap:square;stroke-width:0.8;"/>
     </g>
     <g id="line2d_4">
      <g>
       <use style="stroke:#000000;stroke-width:0.8;" x="103.4525" xlink:href="#m20b0e41f48" y="246.596719"/>
      </g>
     </g>
     <g id="text_2">
      <!-- 1 -->
      <defs>
       <path d="M 12.40625 8.296875 
L 28.515625 8.296875 
L 28.515625 63.921875 
L 10.984375 60.40625 
L 10.984375 69.390625 
L 28.421875 72.90625 
L 38.28125 72.90625 
L 38.28125 8.296875 
L 54.390625 8.296875 
L 54.390625 0 
L 12.40625 0 
z
" id="DejaVuSans-49"/>
      </defs>
      <g transform="translate(100.27125 261.195156)scale(0.1 -0.1)">
       <use xlink:href="#DejaVuSans-49"/>
      </g>
     </g>
    </g>
    <g id="xtick_3">
     <g id="line2d_5">
      <path clip-path="url(#p786f4e9b47)" d="M 159.2525 246.596719 
L 159.2525 29.156719 
" style="fill:none;stroke:#b0b0b0;stroke-linecap:square;stroke-width:0.8;"/>
     </g>
     <g id="line2d_6">
      <g>
       <use style="stroke:#000000;stroke-width:0.8;" x="159.2525" xlink:href="#m20b0e41f48" y="246.596719"/>
      </g>
     </g>
     <g id="text_3">
      <!-- 2 -->
      <defs>
       <path d="M 19.1875 8.296875 
L 53.609375 8.296875 
L 53.609375 0 
L 7.328125 0 
L 7.328125 8.296875 
Q 12.9375 14.109375 22.625 23.890625 
Q 32.328125 33.6875 34.8125 36.53125 
Q 39.546875 41.84375 41.421875 45.53125 
Q 43.3125 49.21875 43.3125 52.78125 
Q 43.3125 58.59375 39.234375 62.25 
Q 35.15625 65.921875 28.609375 65.921875 
Q 23.96875 65.921875 18.8125 64.3125 
Q 13.671875 62.703125 7.8125 59.421875 
L 7.8125 69.390625 
Q 13.765625 71.78125 18.9375 73 
Q 24.125 74.21875 28.421875 74.21875 
Q 39.75 74.21875 46.484375 68.546875 
Q 53.21875 62.890625 53.21875 53.421875 
Q 53.21875 48.921875 51.53125 44.890625 
Q 49.859375 40.875 45.40625 35.40625 
Q 44.1875 33.984375 37.640625 27.21875 
Q 31.109375 20.453125 19.1875 8.296875 
z
" id="DejaVuSans-50"/>
      </defs>
      <g transform="translate(156.07125 261.195156)scale(0.1 -0.1)">
       <use xlink:href="#DejaVuSans-50"/>
      </g>
     </g>
    </g>
    <g id="xtick_4">
     <g id="line2d_7">
      <path clip-path="url(#p786f4e9b47)" d="M 215.0525 246.596719 
L 215.0525 29.156719 
" style="fill:none;stroke:#b0b0b0;stroke-linecap:square;stroke-width:0.8;"/>
     </g>
     <g id="line2d_8">
      <g>
       <use style="stroke:#000000;stroke-width:0.8;" x="215.0525" xlink:href="#m20b0e41f48" y="246.596719"/>
      </g>
     </g>
     <g id="text_4">
      <!-- 3 -->
      <defs>
       <path d="M 40.578125 39.3125 
Q 47.65625 37.796875 51.625 33 
Q 55.609375 28.21875 55.609375 21.1875 
Q 55.609375 10.40625 48.1875 4.484375 
Q 40.765625 -1.421875 27.09375 -1.421875 
Q 22.515625 -1.421875 17.65625 -0.515625 
Q 12.796875 0.390625 7.625 2.203125 
L 7.625 11.71875 
Q 11.71875 9.328125 16.59375 8.109375 
Q 21.484375 6.890625 26.8125 6.890625 
Q 36.078125 6.890625 40.9375 10.546875 
Q 45.796875 14.203125 45.796875 21.1875 
Q 45.796875 27.640625 41.28125 31.265625 
Q 36.765625 34.90625 28.71875 34.90625 
L 20.21875 34.90625 
L 20.21875 43.015625 
L 29.109375 43.015625 
Q 36.375 43.015625 40.234375 45.921875 
Q 44.09375 48.828125 44.09375 54.296875 
Q 44.09375 59.90625 40.109375 62.90625 
Q 36.140625 65.921875 28.71875 65.921875 
Q 24.65625 65.921875 20.015625 65.03125 
Q 15.375 64.15625 9.8125 62.3125 
L 9.8125 71.09375 
Q 15.4375 72.65625 20.34375 73.4375 
Q 25.25 74.21875 29.59375 74.21875 
Q 40.828125 74.21875 47.359375 69.109375 
Q 53.90625 64.015625 53.90625 55.328125 
Q 53.90625 49.265625 50.4375 45.09375 
Q 46.96875 40.921875 40.578125 39.3125 
z
" id="DejaVuSans-51"/>
      </defs>
      <g transform="translate(211.87125 261.195156)scale(0.1 -0.1)">
       <use xlink:href="#DejaVuSans-51"/>
      </g>
     </g>
    </g>
    <g id="xtick_5">
     <g id="line2d_9">
      <path clip-path="url(#p786f4e9b47)" d="M 270.8525 246.596719 
L 270.8525 29.156719 
" style="fill:none;stroke:#b0b0b0;stroke-linecap:square;stroke-width:0.8;"/>
     </g>
     <g id="line2d_10">
      <g>
       <use style="stroke:#000000;stroke-width:0.8;" x="270.8525" xlink:href="#m20b0e41f48" y="246.596719"/>
      </g>
     </g>
     <g id="text_5">
      <!-- 4 -->
      <defs>
       <path d="M 37.796875 64.3125 
L 12.890625 25.390625 
L 37.796875 25.390625 
z
M 35.203125 72.90625 
L 47.609375 72.90625 
L 47.609375 25.390625 
L 58.015625 25.390625 
L 58.015625 17.1875 
L 47.609375 17.1875 
L 47.609375 0 
L 37.796875 0 
L 37.796875 17.1875 
L 4.890625 17.1875 
L 4.890625 26.703125 
z
" id="DejaVuSans-52"/>
      </defs>
      <g transform="translate(267.67125 261.195156)scale(0.1 -0.1)">
       <use xlink:href="#DejaVuSans-52"/>
      </g>
     </g>
    </g>
    <g id="xtick_6">
     <g id="line2d_11">
      <path clip-path="url(#p786f4e9b47)" d="M 326.6525 246.596719 
L 326.6525 29.156719 
" style="fill:none;stroke:#b0b0b0;stroke-linecap:square;stroke-width:0.8;"/>
     </g>
     <g id="line2d_12">
      <g>
       <use style="stroke:#000000;stroke-width:0.8;" x="326.6525" xlink:href="#m20b0e41f48" y="246.596719"/>
      </g>
     </g>
     <g id="text_6">
      <!-- 5 -->
      <defs>
       <path d="M 10.796875 72.90625 
L 49.515625 72.90625 
L 49.515625 64.59375 
L 19.828125 64.59375 
L 19.828125 46.734375 
Q 21.96875 47.46875 24.109375 47.828125 
Q 26.265625 48.1875 28.421875 48.1875 
Q 40.625 48.1875 47.75 41.5 
Q 54.890625 34.8125 54.890625 23.390625 
Q 54.890625 11.625 47.5625 5.09375 
Q 40.234375 -1.421875 26.90625 -1.421875 
Q 22.3125 -1.421875 17.546875 -0.640625 
Q 12.796875 0.140625 7.71875 1.703125 
L 7.71875 11.625 
Q 12.109375 9.234375 16.796875 8.0625 
Q 21.484375 6.890625 26.703125 6.890625 
Q 35.15625 6.890625 40.078125 11.328125 
Q 45.015625 15.765625 45.015625 23.390625 
Q 45.015625 31 40.078125 35.4375 
Q 35.15625 39.890625 26.703125 39.890625 
Q 22.75 39.890625 18.8125 39.015625 
Q 14.890625 38.140625 10.796875 36.28125 
z
" id="DejaVuSans-53"/>
      </defs>
      <g transform="translate(323.47125 261.195156)scale(0.1 -0.1)">
       <use xlink:href="#DejaVuSans-53"/>
      </g>
     </g>
    </g>
    <g id="xtick_7">
     <g id="line2d_13">
      <path clip-path="url(#p786f4e9b47)" d="M 382.4525 246.596719 
L 382.4525 29.156719 
" style="fill:none;stroke:#b0b0b0;stroke-linecap:square;stroke-width:0.8;"/>
     </g>
     <g id="line2d_14">
      <g>
       <use style="stroke:#000000;stroke-width:0.8;" x="382.4525" xlink:href="#m20b0e41f48" y="246.596719"/>
      </g>
     </g>
     <g id="text_7">
      <!-- 6 -->
      <defs>
       <path d="M 33.015625 40.375 
Q 26.375 40.375 22.484375 35.828125 
Q 18.609375 31.296875 18.609375 23.390625 
Q 18.609375 15.53125 22.484375 10.953125 
Q 26.375 6.390625 33.015625 6.390625 
Q 39.65625 6.390625 43.53125 10.953125 
Q 47.40625 15.53125 47.40625 23.390625 
Q 47.40625 31.296875 43.53125 35.828125 
Q 39.65625 40.375 33.015625 40.375 
z
M 52.59375 71.296875 
L 52.59375 62.3125 
Q 48.875 64.0625 45.09375 64.984375 
Q 41.3125 65.921875 37.59375 65.921875 
Q 27.828125 65.921875 22.671875 59.328125 
Q 17.53125 52.734375 16.796875 39.40625 
Q 19.671875 43.65625 24.015625 45.921875 
Q 28.375 48.1875 33.59375 48.1875 
Q 44.578125 48.1875 50.953125 41.515625 
Q 57.328125 34.859375 57.328125 23.390625 
Q 57.328125 12.15625 50.6875 5.359375 
Q 44.046875 -1.421875 33.015625 -1.421875 
Q 20.359375 -1.421875 13.671875 8.265625 
Q 6.984375 17.96875 6.984375 36.375 
Q 6.984375 53.65625 15.1875 63.9375 
Q 23.390625 74.21875 37.203125 74.21875 
Q 40.921875 74.21875 44.703125 73.484375 
Q 48.484375 72.75 52.59375 71.296875 
z
" id="DejaVuSans-54"/>
      </defs>
      <g transform="translate(379.27125 261.195156)scale(0.1 -0.1)">
       <use xlink:href="#DejaVuSans-54"/>
      </g>
     </g>
    </g>
    <g id="text_8">
     <!-- Rendered frames -->
     <defs>
      <path d="M 44.390625 34.1875 
Q 47.5625 33.109375 50.5625 29.59375 
Q 53.5625 26.078125 56.59375 19.921875 
L 66.609375 0 
L 56 0 
L 46.6875 18.703125 
Q 43.0625 26.03125 39.671875 28.421875 
Q 36.28125 30.8125 30.421875 30.8125 
L 19.671875 30.8125 
L 19.671875 0 
L 9.8125 0 
L 9.8125 72.90625 
L 32.078125 72.90625 
Q 44.578125 72.90625 50.734375 67.671875 
Q 56.890625 62.453125 56.890625 51.90625 
Q 56.890625 45.015625 53.6875 40.46875 
Q 50.484375 35.9375 44.390625 34.1875 
z
M 19.671875 64.796875 
L 19.671875 38.921875 
L 32.078125 38.921875 
Q 39.203125 38.921875 42.84375 42.21875 
Q 46.484375 45.515625 46.484375 51.90625 
Q 46.484375 58.296875 42.84375 61.546875 
Q 39.203125 64.796875 32.078125 64.796875 
z
" id="DejaVuSans-82"/>
      <path d="M 56.203125 29.59375 
L 56.203125 25.203125 
L 14.890625 25.203125 
Q 15.484375 15.921875 20.484375 11.0625 
Q 25.484375 6.203125 34.421875 6.203125 
Q 39.59375 6.203125 44.453125 7.46875 
Q 49.3125 8.734375 54.109375 11.28125 
L 54.109375 2.78125 
Q 49.265625 0.734375 44.1875 -0.34375 
Q 39.109375 -1.421875 33.890625 -1.421875 
Q 20.796875 -1.421875 13.15625 6.1875 
Q 5.515625 13.8125 5.515625 26.8125 
Q 5.515625 40.234375 12.765625 48.109375 
Q 20.015625 56 32.328125 56 
Q 43.359375 56 49.78125 48.890625 
Q 56.203125 41.796875 56.203125 29.59375 
z
M 47.21875 32.234375 
Q 47.125 39.59375 43.09375 43.984375 
Q 39.0625 48.390625 32.421875 48.390625 
Q 24.90625 48.390625 20.390625 44.140625 
Q 15.875 39.890625 15.1875 32.171875 
z
" id="DejaVuSans-101"/>
      <path d="M 54.890625 33.015625 
L 54.890625 0 
L 45.90625 0 
L 45.90625 32.71875 
Q 45.90625 40.484375 42.875 44.328125 
Q 39.84375 48.1875 33.796875 48.1875 
Q 26.515625 48.1875 22.3125 43.546875 
Q 18.109375 38.921875 18.109375 30.90625 
L 18.109375 0 
L 9.078125 0 
L 9.078125 54.6875 
L 18.109375 54.6875 
L 18.109375 46.1875 
Q 21.34375 51.125 25.703125 53.5625 
Q 30.078125 56 35.796875 56 
Q 45.21875 56 50.046875 50.171875 
Q 54.890625 44.34375 54.890625 33.015625 
z
" id="DejaVuSans-110"/>
      <path d="M 45.40625 46.390625 
L 45.40625 75.984375 
L 54.390625 75.984375 
L 54.390625 0 
L 45.40625 0 
L 45.40625 8.203125 
Q 42.578125 3.328125 38.25 0.953125 
Q 33.9375 -1.421875 27.875 -1.421875 
Q 17.96875 -1.421875 11.734375 6.484375 
Q 5.515625 14.40625 5.515625 27.296875 
Q 5.515625 40.1875 11.734375 48.09375 
Q 17.96875 56 27.875 56 
Q 33.9375 56 38.25 53.625 
Q 42.578125 51.265625 45.40625 46.390625 
z
M 14.796875 27.296875 
Q 14.796875 17.390625 18.875 11.75 
Q 22.953125 6.109375 30.078125 6.109375 
Q 37.203125 6.109375 41.296875 11.75 
Q 45.40625 17.390625 45.40625 27.296875 
Q 45.40625 37.203125 41.296875 42.84375 
Q 37.203125 48.484375 30.078125 48.484375 
Q 22.953125 48.484375 18.875 42.84375 
Q 14.796875 37.203125 14.796875 27.296875 
z
" id="DejaVuSans-100"/>
      <path d="M 41.109375 46.296875 
Q 39.59375 47.171875 37.8125 47.578125 
Q 36.03125 48 33.890625 48 
Q 26.265625 48 22.1875 43.046875 
Q 18.109375 38.09375 18.109375 28.8125 
L 18.109375 0 
L 9.078125 0 
L 9.078125 54.6875 
L 18.109375 54.6875 
L 18.109375 46.1875 
Q 20.953125 51.171875 25.484375 53.578125 
Q 30.03125 56 36.53125 56 
Q 37.453125 56 38.578125 55.875 
Q 39.703125 55.765625 41.0625 55.515625 
z
" id="DejaVuSans-114"/>
      <path id="DejaVuSans-32"/>
      <path d="M 37.109375 75.984375 
L 37.109375 68.5 
L 28.515625 68.5 
Q 23.6875 68.5 21.796875 66.546875 
Q 19.921875 64.59375 19.921875 59.515625 
L 19.921875 54.6875 
L 34.71875 54.6875 
L 34.71875 47.703125 
L 19.921875 47.703125 
L 19.921875 0 
L 10.890625 0 
L 10.890625 47.703125 
L 2.296875 47.703125 
L 2.296875 54.6875 
L 10.890625 54.6875 
L 10.890625 58.5 
Q 10.890625 67.625 15.140625 71.796875 
Q 19.390625 75.984375 28.609375 75.984375 
z
" id="DejaVuSans-102"/>
      <path d="M 34.28125 27.484375 
Q 23.390625 27.484375 19.1875 25 
Q 14.984375 22.515625 14.984375 16.5 
Q 14.984375 11.71875 18.140625 8.90625 
Q 21.296875 6.109375 26.703125 6.109375 
Q 34.1875 6.109375 38.703125 11.40625 
Q 43.21875 16.703125 43.21875 25.484375 
L 43.21875 27.484375 
z
M 52.203125 31.203125 
L 52.203125 0 
L 43.21875 0 
L 43.21875 8.296875 
Q 40.140625 3.328125 35.546875 0.953125 
Q 30.953125 -1.421875 24.3125 -1.421875 
Q 15.921875 -1.421875 10.953125 3.296875 
Q 6 8.015625 6 15.921875 
Q 6 25.140625 12.171875 29.828125 
Q 18.359375 34.515625 30.609375 34.515625 
L 43.21875 34.515625 
L 43.21875 35.40625 
Q 43.21875 41.609375 39.140625 45 
Q 35.0625 48.390625 27.6875 48.390625 
Q 23 48.390625 18.546875 47.265625 
Q 14.109375 46.140625 10.015625 43.890625 
L 10.015625 52.203125 
Q 14.9375 54.109375 19.578125 55.046875 
Q 24.21875 56 28.609375 56 
Q 40.484375 56 46.34375 49.84375 
Q 52.203125 43.703125 52.203125 31.203125 
z
" id="DejaVuSans-97"/>
      <path d="M 52 44.1875 
Q 55.375 50.25 60.0625 53.125 
Q 64.75 56 71.09375 56 
Q 79.640625 56 84.28125 50.015625 
Q 88.921875 44.046875 88.921875 33.015625 
L 88.921875 0 
L 79.890625 0 
L 79.890625 32.71875 
Q 79.890625 40.578125 77.09375 44.375 
Q 74.3125 48.1875 68.609375 48.1875 
Q 61.625 48.1875 57.5625 43.546875 
Q 53.515625 38.921875 53.515625 30.90625 
L 53.515625 0 
L 44.484375 0 
L 44.484375 32.71875 
Q 44.484375 40.625 41.703125 44.40625 
Q 38.921875 48.1875 33.109375 48.1875 
Q 26.21875 48.1875 22.15625 43.53125 
Q 18.109375 38.875 18.109375 30.90625 
L 18.109375 0 
L 9.078125 0 
L 9.078125 54.6875 
L 18.109375 54.6875 
L 18.109375 46.1875 
Q 21.1875 51.21875 25.484375 53.609375 
Q 29.78125 56 35.6875 56 
Q 41.65625 56 45.828125 52.96875 
Q 50 49.953125 52 44.1875 
z
" id="DejaVuSans-109"/>
      <path d="M 44.28125 53.078125 
L 44.28125 44.578125 
Q 40.484375 46.53125 36.375 47.5 
Q 32.28125 48.484375 27.875 48.484375 
Q 21.1875 48.484375 17.84375 46.4375 
Q 14.5 44.390625 14.5 40.28125 
Q 14.5 37.15625 16.890625 35.375 
Q 19.28125 33.59375 26.515625 31.984375 
L 29.59375 31.296875 
Q 39.15625 29.25 43.1875 25.515625 
Q 47.21875 21.78125 47.21875 15.09375 
Q 47.21875 7.46875 41.1875 3.015625 
Q 35.15625 -1.421875 24.609375 -1.421875 
Q 20.21875 -1.421875 15.453125 -0.5625 
Q 10.6875 0.296875 5.421875 2 
L 5.421875 11.28125 
Q 10.40625 8.6875 15.234375 7.390625 
Q 20.0625 6.109375 24.8125 6.109375 
Q 31.15625 6.109375 34.5625 8.28125 
Q 37.984375 10.453125 37.984375 14.40625 
Q 37.984375 18.0625 35.515625 20.015625 
Q 33.0625 21.96875 24.703125 23.78125 
L 21.578125 24.515625 
Q 13.234375 26.265625 9.515625 29.90625 
Q 5.8125 33.546875 5.8125 39.890625 
Q 5.8125 47.609375 11.28125 51.796875 
Q 16.75 56 26.8125 56 
Q 31.78125 56 36.171875 55.265625 
Q 40.578125 54.546875 44.28125 53.078125 
z
" id="DejaVuSans-115"/>
     </defs>
     <g transform="translate(154.443438 277.912656)scale(0.14 -0.14)">
      <use xlink:href="#DejaVuSans-82"/>
      <use x="69.419922" xlink:href="#DejaVuSans-101"/>
      <use x="130.943359" xlink:href="#DejaVuSans-110"/>
      <use x="194.322266" xlink:href="#DejaVuSans-100"/>
      <use x="257.798828" xlink:href="#DejaVuSans-101"/>
      <use x="319.322266" xlink:href="#DejaVuSans-114"/>
      <use x="360.404297" xlink:href="#DejaVuSans-101"/>
      <use x="421.927734" xlink:href="#DejaVuSans-100"/>
      <use x="485.404297" xlink:href="#DejaVuSans-32"/>
      <use x="517.191406" xlink:href="#DejaVuSans-102"/>
      <use x="552.396484" xlink:href="#DejaVuSans-114"/>
      <use x="593.509766" xlink:href="#DejaVuSans-97"/>
      <use x="654.789062" xlink:href="#DejaVuSans-109"/>
      <use x="752.201172" xlink:href="#DejaVuSans-101"/>
      <use x="813.724609" xlink:href="#DejaVuSans-115"/>
     </g>
    </g>
    <g id="text_9">
     <!-- 1e5 -->
     <g transform="translate(363.574375 273.873281)scale(0.1 -0.1)">
      <use xlink:href="#DejaVuSans-49"/>
      <use x="63.623047" xlink:href="#DejaVuSans-101"/>
      <use x="125.146484" xlink:href="#DejaVuSans-53"/>
     </g>
    </g>
   </g>
   <g id="matplotlib.axis_2">
    <g id="ytick_1">
     <g id="line2d_15">
      <path clip-path="url(#p786f4e9b47)" d="M 47.6525 237.830372 
L 382.4525 237.830372 
" style="fill:none;stroke:#b0b0b0;stroke-linecap:square;stroke-width:0.8;"/>
     </g>
     <g id="line2d_16">
      <defs>
       <path d="M 0 0 
L -3.5 0 
" id="m134d01f91c" style="stroke:#000000;stroke-width:0.8;"/>
      </defs>
      <g>
       <use style="stroke:#000000;stroke-width:0.8;" x="47.6525" xlink:href="#m134d01f91c" y="237.830372"/>
      </g>
     </g>
     <g id="text_10">
      <!-- 0.0 -->
      <defs>
       <path d="M 10.6875 12.40625 
L 21 12.40625 
L 21 0 
L 10.6875 0 
z
" id="DejaVuSans-46"/>
      </defs>
      <g transform="translate(24.749375 241.629591)scale(0.1 -0.1)">
       <use xlink:href="#DejaVuSans-48"/>
       <use x="63.623047" xlink:href="#DejaVuSans-46"/>
       <use x="95.410156" xlink:href="#DejaVuSans-48"/>
      </g>
     </g>
    </g>
    <g id="ytick_2">
     <g id="line2d_17">
      <path clip-path="url(#p786f4e9b47)" d="M 47.6525 207.29856 
L 382.4525 207.29856 
" style="fill:none;stroke:#b0b0b0;stroke-linecap:square;stroke-width:0.8;"/>
     </g>
     <g id="line2d_18">
      <g>
       <use style="stroke:#000000;stroke-width:0.8;" x="47.6525" xlink:href="#m134d01f91c" y="207.29856"/>
      </g>
     </g>
     <g id="text_11">
      <!-- 0.1 -->
      <g transform="translate(24.749375 211.097779)scale(0.1 -0.1)">
       <use xlink:href="#DejaVuSans-48"/>
       <use x="63.623047" xlink:href="#DejaVuSans-46"/>
       <use x="95.410156" xlink:href="#DejaVuSans-49"/>
      </g>
     </g>
    </g>
    <g id="ytick_3">
     <g id="line2d_19">
      <path clip-path="url(#p786f4e9b47)" d="M 47.6525 176.766748 
L 382.4525 176.766748 
" style="fill:none;stroke:#b0b0b0;stroke-linecap:square;stroke-width:0.8;"/>
     </g>
     <g id="line2d_20">
      <g>
       <use style="stroke:#000000;stroke-width:0.8;" x="47.6525" xlink:href="#m134d01f91c" y="176.766748"/>
      </g>
     </g>
     <g id="text_12">
      <!-- 0.2 -->
      <g transform="translate(24.749375 180.565966)scale(0.1 -0.1)">
       <use xlink:href="#DejaVuSans-48"/>
       <use x="63.623047" xlink:href="#DejaVuSans-46"/>
       <use x="95.410156" xlink:href="#DejaVuSans-50"/>
      </g>
     </g>
    </g>
    <g id="ytick_4">
     <g id="line2d_21">
      <path clip-path="url(#p786f4e9b47)" d="M 47.6525 146.234936 
L 382.4525 146.234936 
" style="fill:none;stroke:#b0b0b0;stroke-linecap:square;stroke-width:0.8;"/>
     </g>
     <g id="line2d_22">
      <g>
       <use style="stroke:#000000;stroke-width:0.8;" x="47.6525" xlink:href="#m134d01f91c" y="146.234936"/>
      </g>
     </g>
     <g id="text_13">
      <!-- 0.3 -->
      <g transform="translate(24.749375 150.034154)scale(0.1 -0.1)">
       <use xlink:href="#DejaVuSans-48"/>
       <use x="63.623047" xlink:href="#DejaVuSans-46"/>
       <use x="95.410156" xlink:href="#DejaVuSans-51"/>
      </g>
     </g>
    </g>
    <g id="ytick_5">
     <g id="line2d_23">
      <path clip-path="url(#p786f4e9b47)" d="M 47.6525 115.703124 
L 382.4525 115.703124 
" style="fill:none;stroke:#b0b0b0;stroke-linecap:square;stroke-width:0.8;"/>
     </g>
     <g id="line2d_24">
      <g>
       <use style="stroke:#000000;stroke-width:0.8;" x="47.6525" xlink:href="#m134d01f91c" y="115.703124"/>
      </g>
     </g>
     <g id="text_14">
      <!-- 0.4 -->
      <g transform="translate(24.749375 119.502342)scale(0.1 -0.1)">
       <use xlink:href="#DejaVuSans-48"/>
       <use x="63.623047" xlink:href="#DejaVuSans-46"/>
       <use x="95.410156" xlink:href="#DejaVuSans-52"/>
      </g>
     </g>
    </g>
    <g id="ytick_6">
     <g id="line2d_25">
      <path clip-path="url(#p786f4e9b47)" d="M 47.6525 85.171312 
L 382.4525 85.171312 
" style="fill:none;stroke:#b0b0b0;stroke-linecap:square;stroke-width:0.8;"/>
     </g>
     <g id="line2d_26">
      <g>
       <use style="stroke:#000000;stroke-width:0.8;" x="47.6525" xlink:href="#m134d01f91c" y="85.171312"/>
      </g>
     </g>
     <g id="text_15">
      <!-- 0.5 -->
      <g transform="translate(24.749375 88.97053)scale(0.1 -0.1)">
       <use xlink:href="#DejaVuSans-48"/>
       <use x="63.623047" xlink:href="#DejaVuSans-46"/>
       <use x="95.410156" xlink:href="#DejaVuSans-53"/>
      </g>
     </g>
    </g>
    <g id="ytick_7">
     <g id="line2d_27">
      <path clip-path="url(#p786f4e9b47)" d="M 47.6525 54.6395 
L 382.4525 54.6395 
" style="fill:none;stroke:#b0b0b0;stroke-linecap:square;stroke-width:0.8;"/>
     </g>
     <g id="line2d_28">
      <g>
       <use style="stroke:#000000;stroke-width:0.8;" x="47.6525" xlink:href="#m134d01f91c" y="54.6395"/>
      </g>
     </g>
     <g id="text_16">
      <!-- 0.6 -->
      <g transform="translate(24.749375 58.438718)scale(0.1 -0.1)">
       <use xlink:href="#DejaVuSans-48"/>
       <use x="63.623047" xlink:href="#DejaVuSans-46"/>
       <use x="95.410156" xlink:href="#DejaVuSans-54"/>
      </g>
     </g>
    </g>
    <g id="text_17">
     <!-- Average kills -->
     <defs>
      <path d="M 34.1875 63.1875 
L 20.796875 26.90625 
L 47.609375 26.90625 
z
M 28.609375 72.90625 
L 39.796875 72.90625 
L 67.578125 0 
L 57.328125 0 
L 50.6875 18.703125 
L 17.828125 18.703125 
L 11.1875 0 
L 0.78125 0 
z
" id="DejaVuSans-65"/>
      <path d="M 2.984375 54.6875 
L 12.5 54.6875 
L 29.59375 8.796875 
L 46.6875 54.6875 
L 56.203125 54.6875 
L 35.6875 0 
L 23.484375 0 
z
" id="DejaVuSans-118"/>
      <path d="M 45.40625 27.984375 
Q 45.40625 37.75 41.375 43.109375 
Q 37.359375 48.484375 30.078125 48.484375 
Q 22.859375 48.484375 18.828125 43.109375 
Q 14.796875 37.75 14.796875 27.984375 
Q 14.796875 18.265625 18.828125 12.890625 
Q 22.859375 7.515625 30.078125 7.515625 
Q 37.359375 7.515625 41.375 12.890625 
Q 45.40625 18.265625 45.40625 27.984375 
z
M 54.390625 6.78125 
Q 54.390625 -7.171875 48.1875 -13.984375 
Q 42 -20.796875 29.203125 -20.796875 
Q 24.46875 -20.796875 20.265625 -20.09375 
Q 16.0625 -19.390625 12.109375 -17.921875 
L 12.109375 -9.1875 
Q 16.0625 -11.328125 19.921875 -12.34375 
Q 23.78125 -13.375 27.78125 -13.375 
Q 36.625 -13.375 41.015625 -8.765625 
Q 45.40625 -4.15625 45.40625 5.171875 
L 45.40625 9.625 
Q 42.625 4.78125 38.28125 2.390625 
Q 33.9375 0 27.875 0 
Q 17.828125 0 11.671875 7.65625 
Q 5.515625 15.328125 5.515625 27.984375 
Q 5.515625 40.671875 11.671875 48.328125 
Q 17.828125 56 27.875 56 
Q 33.9375 56 38.28125 53.609375 
Q 42.625 51.21875 45.40625 46.390625 
L 45.40625 54.6875 
L 54.390625 54.6875 
z
" id="DejaVuSans-103"/>
      <path d="M 9.078125 75.984375 
L 18.109375 75.984375 
L 18.109375 31.109375 
L 44.921875 54.6875 
L 56.390625 54.6875 
L 27.390625 29.109375 
L 57.625 0 
L 45.90625 0 
L 18.109375 26.703125 
L 18.109375 0 
L 9.078125 0 
z
" id="DejaVuSans-107"/>
      <path d="M 9.421875 54.6875 
L 18.40625 54.6875 
L 18.40625 0 
L 9.421875 0 
z
M 9.421875 75.984375 
L 18.40625 75.984375 
L 18.40625 64.59375 
L 9.421875 64.59375 
z
" id="DejaVuSans-105"/>
      <path d="M 9.421875 75.984375 
L 18.40625 75.984375 
L 18.40625 0 
L 9.421875 0 
z
" id="DejaVuSans-108"/>
     </defs>
     <g transform="translate(17.837813 182.787187)rotate(-90)scale(0.14 -0.14)">
      <use xlink:href="#DejaVuSans-65"/>
      <use x="68.330078" xlink:href="#DejaVuSans-118"/>
      <use x="127.509766" xlink:href="#DejaVuSans-101"/>
      <use x="189.033203" xlink:href="#DejaVuSans-114"/>
      <use x="230.146484" xlink:href="#DejaVuSans-97"/>
      <use x="291.425781" xlink:href="#DejaVuSans-103"/>
      <use x="354.902344" xlink:href="#DejaVuSans-101"/>
      <use x="416.425781" xlink:href="#DejaVuSans-32"/>
      <use x="448.212891" xlink:href="#DejaVuSans-107"/>
      <use x="506.123047" xlink:href="#DejaVuSans-105"/>
      <use x="533.90625" xlink:href="#DejaVuSans-108"/>
      <use x="561.689453" xlink:href="#DejaVuSans-108"/>
      <use x="589.472656" xlink:href="#DejaVuSans-115"/>
     </g>
    </g>
   </g>
   <g id="line2d_29">
    <path clip-path="url(#p786f4e9b47)" d="M 50.120384 223.633079 
L 55.079978 223.175102 
L 60.017216 220.885216 
L 65.001819 221.953829 
L 70.483122 222.106488 
L 76.45982 225.922965 
L 81.749476 224.091056 
L 86.685612 224.854351 
L 91.855527 226.075624 
L 97.709641 230.655396 
L 105.782214 235.540486 
L 114.873679 233.2506 
L 124.364701 231.876668 
L 131.36788 227.907533 
L 136.397176 221.648511 
L 140.873671 220.732557 
L 145.189383 223.633079 
L 149.405035 225.15967 
L 153.509031 226.991578 
L 157.481935 227.296897 
L 161.376285 230.04476 
L 165.255003 230.502737 
L 169.15229 232.181987 
L 173.019592 232.029327 
L 176.876711 230.960714 
L 180.72784 229.892101 
L 184.563194 231.113373 
L 188.396357 230.350078 
L 192.223436 230.197419 
L 196.071659 230.350078 
L 199.904045 229.739442 
" style="fill:none;stroke:#1f77b4;stroke-linecap:square;stroke-width:1.5;"/>
   </g>
   <g id="line2d_30">
    <path clip-path="url(#p786f4e9b47)" d="M 50.111131 223.48042 
L 54.901559 218.442671 
L 59.671157 220.427239 
L 64.356582 205.619309 
L 68.840748 157.531704 
L 73.196275 91.277671 
L 77.601237 81.812808 
L 81.921937 76.011764 
L 86.145886 79.9809 
L 90.308124 76.317082 
L 94.433703 83.18674 
L 98.537735 73.569219 
L 102.647541 81.50749 
L 106.740746 77.538355 
L 110.833706 79.064945 
L 114.930694 80.591536 
L 119.00888 74.332515 
L 123.074466 77.691014 
L 127.143843 78.148991 
L 131.207331 77.538355 
L 135.2691 77.385696 
L 139.332773 77.233037 
L 143.385243 76.469742 
L 147.428959 78.759627 
L 151.457605 70.668697 
L 155.475033 68.53147 
L 159.476155 64.867653 
L 163.467043 71.431992 
L 167.460003 70.058061 
L 171.429023 70.821356 
L 175.38192 59.829904 
L 179.319967 65.172971 
L 183.272799 57.845336 
L 187.223434 61.509153 
L 191.163206 62.272449 
L 195.10447 67.157539 
L 199.049105 59.371927 
L 202.987426 64.714994 
L 206.930295 56.929382 
L 210.856963 62.425108 
L 214.785735 65.478289 
L 218.726419 63.951698 
L 222.655306 62.730426 
L 226.585113 58.455972 
L 230.498302 60.44054 
L 234.434768 66.852221 
L 238.372901 61.509153 
L 242.30644 61.356494 
L 246.229646 54.181518 
L 250.158991 60.287881 
L 254.094968 63.035744 
L 258.019547 61.661813 
L 261.943229 60.135222 
L 265.843951 54.792155 
L 269.765038 59.829903 
L 273.675658 54.486837 
L 277.591578 57.082041 
L 281.50825 59.066608 
L 285.431372 65.478289 
L 289.346859 58.76129 
L 293.261926 55.860768 
L 297.191106 56.166086 
L 301.115011 56.013427 
L 305.041563 61.509153 
L 308.9718 57.540018 
L 312.882264 57.2347 
L 316.795556 61.509153 
L 320.719167 60.745858 
L 324.643232 56.776723 
L 328.556282 57.997995 
L 332.487281 59.066608 
L 336.421589 66.699561 
L 340.353021 61.051176 
L 344.272883 63.035744 
L 348.202354 63.493721 
L 352.136816 53.723541 
L 356.067608 61.509153 
L 359.993823 57.082041 
L 363.911277 55.708109 
L 367.829792 59.524585 
L 371.741364 56.624063 
L 375.64979 56.776722 
L 379.561053 59.066608 
L 383.489533 57.082041 
L 387.415968 59.371926 
" style="fill:none;stroke:#ff7f0e;stroke-linecap:square;stroke-width:1.5;"/>
   </g>
   <g id="line2d_31">
    <path clip-path="url(#p786f4e9b47)" d="M 50.109839 219.663943 
L 54.881506 216.152785 
L 59.451806 157.531704 
L 63.714846 88.22449 
L 67.940913 85.629285 
L 72.150531 80.896854 
L 76.35257 78.606968 
L 80.549298 83.797376 
L 84.737035 79.9809 
L 88.906065 76.77506 
L 93.064669 76.927719 
L 97.21133 79.675582 
L 101.337718 73.721878 
L 105.44792 80.896854 
L 109.533778 77.843673 
L 113.600088 65.936266 
L 117.657442 70.516038 
L 121.690162 64.409675 
L 125.715312 66.546902 
L 129.763113 68.53147 
L 133.786107 64.562335 
L 137.799966 59.829904 
L 141.799065 64.867653 
L 145.822883 63.799039 
L 149.823664 61.509153 
L 153.821937 63.951698 
L 157.826106 64.562335 
L 161.820071 64.714994 
L 165.831207 68.226152 
L 169.846782 63.799039 
L 173.884151 64.562334 
L 177.889337 61.661813 
L 181.8844 61.814472 
L 185.897114 63.64638 
L 189.909947 60.44054 
L 193.920249 55.402791 
L 197.924772 60.593199 
L 201.917763 61.051176 
L 205.888136 56.471404 
L 209.877407 52.196951 
L 213.864342 56.013427 
L 217.852228 57.2347 
L 221.858383 61.509153 
L 225.858938 52.502269 
L 229.837983 51.433655 
L 233.814987 55.097473 
L 237.792387 51.280996 
L 241.785646 58.455972 
L 245.789015 56.013427 
L 249.764771 50.517701 
L 253.742221 54.792155 
L 257.714053 49.143769 
L 261.69082 55.860768 
L 265.666283 53.8762 
L 269.643524 52.807587 
L 273.626403 57.082041 
L 277.601018 52.654928 
L 281.594711 48.075156 
L 285.585895 53.265564 
L 289.568681 51.891633 
L 293.537615 51.128337 
L 297.5174 53.265564 
L 301.500838 45.632611 
L 305.47979 52.654928 
L 309.472743 54.028859 
L 313.452344 48.838451 
L 317.408993 52.960246 
L 321.366725 55.55545 
L 325.3212 54.181518 
L 329.296948 59.524585 
" style="fill:none;stroke:#2ca02c;stroke-linecap:square;stroke-width:1.5;"/>
   </g>
   <g id="line2d_32">
    <path clip-path="url(#p786f4e9b47)" d="M 50.111131 223.149659 
L 54.901559 223.149659 
L 59.671157 223.149659 
L 64.356582 223.149659 
L 68.840748 223.149659 
L 73.196275 223.149659 
L 77.601237 223.149659 
L 81.921937 223.149659 
L 86.145886 223.149659 
L 90.308124 223.149659 
L 94.433703 223.149659 
L 98.537735 223.149659 
L 102.647541 223.149659 
L 106.740746 223.149659 
L 110.833706 223.149659 
L 114.930694 223.149659 
L 119.00888 223.149659 
L 123.074466 223.149659 
L 127.143843 223.149659 
L 131.207331 223.149659 
L 135.2691 223.149659 
L 139.332773 223.149659 
L 143.385243 223.149659 
L 147.428959 223.149659 
L 151.457605 223.149659 
L 155.475033 223.149659 
L 159.476155 223.149659 
L 163.467043 223.149659 
L 167.460003 223.149659 
L 171.429023 223.149659 
L 175.38192 223.149659 
L 179.319967 223.149659 
L 183.272799 223.149659 
L 187.223434 223.149659 
L 191.163206 223.149659 
L 195.10447 223.149659 
L 199.049105 223.149659 
L 202.987426 223.149659 
L 206.930295 223.149659 
L 210.856963 223.149659 
L 214.785735 223.149659 
L 218.726419 223.149659 
L 222.655306 223.149659 
L 226.585113 223.149659 
L 230.498302 223.149659 
L 234.434768 223.149659 
L 238.372901 223.149659 
L 242.30644 223.149659 
L 246.229646 223.149659 
L 250.158991 223.149659 
L 254.094968 223.149659 
L 258.019547 223.149659 
L 261.943229 223.149659 
L 265.843951 223.149659 
L 269.765038 223.149659 
L 273.675658 223.149659 
L 277.591578 223.149659 
L 281.50825 223.149659 
L 285.431372 223.149659 
L 289.346859 223.149659 
L 293.261926 223.149659 
L 297.191106 223.149659 
L 301.115011 223.149659 
L 305.041563 223.149659 
L 308.9718 223.149659 
L 312.882264 223.149659 
L 316.795556 223.149659 
L 320.719167 223.149659 
L 324.643232 223.149659 
L 328.556282 223.149659 
L 332.487281 223.149659 
L 336.421589 223.149659 
L 340.353021 223.149659 
L 344.272883 223.149659 
L 348.202354 223.149659 
L 352.136816 223.149659 
L 356.067608 223.149659 
L 359.993823 223.149659 
L 363.911277 223.149659 
L 367.829792 223.149659 
L 371.741364 223.149659 
L 375.64979 223.149659 
L 379.561053 223.149659 
L 383.489533 223.149659 
L 387.415968 223.149659 
" style="fill:none;stroke:#000000;stroke-linecap:square;stroke-width:1.5;"/>
   </g>
   <g id="patch_3">
    <path d="M 47.6525 246.596719 
L 47.6525 29.156719 
" style="fill:none;stroke:#000000;stroke-linecap:square;stroke-linejoin:miter;stroke-width:0.8;"/>
   </g>
   <g id="patch_4">
    <path d="M 382.4525 246.596719 
L 382.4525 29.156719 
" style="fill:none;stroke:#000000;stroke-linecap:square;stroke-linejoin:miter;stroke-width:0.8;"/>
   </g>
   <g id="patch_5">
    <path d="M 47.6525 246.596719 
L 382.4525 246.596719 
" style="fill:none;stroke:#000000;stroke-linecap:square;stroke-linejoin:miter;stroke-width:0.8;"/>
   </g>
   <g id="patch_6">
    <path d="M 47.6525 29.156719 
L 382.4525 29.156719 
" style="fill:none;stroke:#000000;stroke-linecap:square;stroke-linejoin:miter;stroke-width:0.8;"/>
   </g>
   <g id="text_18">
    <!-- Predict Position -->
    <defs>
     <path d="M 19.671875 64.796875 
L 19.671875 37.40625 
L 32.078125 37.40625 
Q 38.96875 37.40625 42.71875 40.96875 
Q 46.484375 44.53125 46.484375 51.125 
Q 46.484375 57.671875 42.71875 61.234375 
Q 38.96875 64.796875 32.078125 64.796875 
z
M 9.8125 72.90625 
L 32.078125 72.90625 
Q 44.34375 72.90625 50.609375 67.359375 
Q 56.890625 61.8125 56.890625 51.125 
Q 56.890625 40.328125 50.609375 34.8125 
Q 44.34375 29.296875 32.078125 29.296875 
L 19.671875 29.296875 
L 19.671875 0 
L 9.8125 0 
z
" id="DejaVuSans-80"/>
     <path d="M 48.78125 52.59375 
L 48.78125 44.1875 
Q 44.96875 46.296875 41.140625 47.34375 
Q 37.3125 48.390625 33.40625 48.390625 
Q 24.65625 48.390625 19.8125 42.84375 
Q 14.984375 37.3125 14.984375 27.296875 
Q 14.984375 17.28125 19.8125 11.734375 
Q 24.65625 6.203125 33.40625 6.203125 
Q 37.3125 6.203125 41.140625 7.25 
Q 44.96875 8.296875 48.78125 10.40625 
L 48.78125 2.09375 
Q 45.015625 0.34375 40.984375 -0.53125 
Q 36.96875 -1.421875 32.421875 -1.421875 
Q 20.0625 -1.421875 12.78125 6.34375 
Q 5.515625 14.109375 5.515625 27.296875 
Q 5.515625 40.671875 12.859375 48.328125 
Q 20.21875 56 33.015625 56 
Q 37.15625 56 41.109375 55.140625 
Q 45.0625 54.296875 48.78125 52.59375 
z
" id="DejaVuSans-99"/>
     <path d="M 18.3125 70.21875 
L 18.3125 54.6875 
L 36.8125 54.6875 
L 36.8125 47.703125 
L 18.3125 47.703125 
L 18.3125 18.015625 
Q 18.3125 11.328125 20.140625 9.421875 
Q 21.96875 7.515625 27.59375 7.515625 
L 36.8125 7.515625 
L 36.8125 0 
L 27.59375 0 
Q 17.1875 0 13.234375 3.875 
Q 9.28125 7.765625 9.28125 18.015625 
L 9.28125 47.703125 
L 2.6875 47.703125 
L 2.6875 54.6875 
L 9.28125 54.6875 
L 9.28125 70.21875 
z
" id="DejaVuSans-116"/>
     <path d="M 30.609375 48.390625 
Q 23.390625 48.390625 19.1875 42.75 
Q 14.984375 37.109375 14.984375 27.296875 
Q 14.984375 17.484375 19.15625 11.84375 
Q 23.34375 6.203125 30.609375 6.203125 
Q 37.796875 6.203125 41.984375 11.859375 
Q 46.1875 17.53125 46.1875 27.296875 
Q 46.1875 37.015625 41.984375 42.703125 
Q 37.796875 48.390625 30.609375 48.390625 
z
M 30.609375 56 
Q 42.328125 56 49.015625 48.375 
Q 55.71875 40.765625 55.71875 27.296875 
Q 55.71875 13.875 49.015625 6.21875 
Q 42.328125 -1.421875 30.609375 -1.421875 
Q 18.84375 -1.421875 12.171875 6.21875 
Q 5.515625 13.875 5.515625 27.296875 
Q 5.515625 40.765625 12.171875 48.375 
Q 18.84375 56 30.609375 56 
z
" id="DejaVuSans-111"/>
    </defs>
    <g transform="translate(133.889141 23.156719)scale(0.21 -0.21)">
     <use xlink:href="#DejaVuSans-80"/>
     <use x="60.287109" xlink:href="#DejaVuSans-114"/>
     <use x="101.369141" xlink:href="#DejaVuSans-101"/>
     <use x="162.892578" xlink:href="#DejaVuSans-100"/>
     <use x="226.369141" xlink:href="#DejaVuSans-105"/>
     <use x="254.152344" xlink:href="#DejaVuSans-99"/>
     <use x="309.132812" xlink:href="#DejaVuSans-116"/>
     <use x="348.341797" xlink:href="#DejaVuSans-32"/>
     <use x="380.128906" xlink:href="#DejaVuSans-80"/>
     <use x="440.384766" xlink:href="#DejaVuSans-111"/>
     <use x="501.566406" xlink:href="#DejaVuSans-115"/>
     <use x="553.666016" xlink:href="#DejaVuSans-105"/>
     <use x="581.449219" xlink:href="#DejaVuSans-116"/>
     <use x="620.658203" xlink:href="#DejaVuSans-105"/>
     <use x="648.441406" xlink:href="#DejaVuSans-111"/>
     <use x="709.623047" xlink:href="#DejaVuSans-110"/>
    </g>
   </g>
   <g id="legend_1">
    <g id="patch_7">
     <path d="M 224.843125 239.596719 
L 372.6525 239.596719 
Q 375.4525 239.596719 375.4525 236.796719 
L 375.4525 155.999219 
Q 375.4525 153.199219 372.6525 153.199219 
L 224.843125 153.199219 
Q 222.043125 153.199219 222.043125 155.999219 
L 222.043125 236.796719 
Q 222.043125 239.596719 224.843125 239.596719 
z
" style="fill:#ffffff;opacity:0.8;stroke:#cccccc;stroke-linejoin:miter;"/>
    </g>
    <g id="line2d_33">
     <path d="M 227.643125 164.537031 
L 255.643125 164.537031 
" style="fill:none;stroke:#1f77b4;stroke-linecap:square;stroke-width:1.5;"/>
    </g>
    <g id="line2d_34"/>
    <g id="text_19">
     <!-- Batch size 10 -->
     <defs>
      <path d="M 19.671875 34.8125 
L 19.671875 8.109375 
L 35.5 8.109375 
Q 43.453125 8.109375 47.28125 11.40625 
Q 51.125 14.703125 51.125 21.484375 
Q 51.125 28.328125 47.28125 31.5625 
Q 43.453125 34.8125 35.5 34.8125 
z
M 19.671875 64.796875 
L 19.671875 42.828125 
L 34.28125 42.828125 
Q 41.5 42.828125 45.03125 45.53125 
Q 48.578125 48.25 48.578125 53.8125 
Q 48.578125 59.328125 45.03125 62.0625 
Q 41.5 64.796875 34.28125 64.796875 
z
M 9.8125 72.90625 
L 35.015625 72.90625 
Q 46.296875 72.90625 52.390625 68.21875 
Q 58.5 63.53125 58.5 54.890625 
Q 58.5 48.1875 55.375 44.234375 
Q 52.25 40.28125 46.1875 39.3125 
Q 53.46875 37.75 57.5 32.78125 
Q 61.53125 27.828125 61.53125 20.40625 
Q 61.53125 10.640625 54.890625 5.3125 
Q 48.25 0 35.984375 0 
L 9.8125 0 
z
" id="DejaVuSans-66"/>
      <path d="M 54.890625 33.015625 
L 54.890625 0 
L 45.90625 0 
L 45.90625 32.71875 
Q 45.90625 40.484375 42.875 44.328125 
Q 39.84375 48.1875 33.796875 48.1875 
Q 26.515625 48.1875 22.3125 43.546875 
Q 18.109375 38.921875 18.109375 30.90625 
L 18.109375 0 
L 9.078125 0 
L 9.078125 75.984375 
L 18.109375 75.984375 
L 18.109375 46.1875 
Q 21.34375 51.125 25.703125 53.5625 
Q 30.078125 56 35.796875 56 
Q 45.21875 56 50.046875 50.171875 
Q 54.890625 44.34375 54.890625 33.015625 
z
" id="DejaVuSans-104"/>
      <path d="M 5.515625 54.6875 
L 48.1875 54.6875 
L 48.1875 46.484375 
L 14.40625 7.171875 
L 48.1875 7.171875 
L 48.1875 0 
L 4.296875 0 
L 4.296875 8.203125 
L 38.09375 47.515625 
L 5.515625 47.515625 
z
" id="DejaVuSans-122"/>
     </defs>
     <g transform="translate(266.843125 169.437031)scale(0.14 -0.14)">
      <use xlink:href="#DejaVuSans-66"/>
      <use x="68.603516" xlink:href="#DejaVuSans-97"/>
      <use x="129.882812" xlink:href="#DejaVuSans-116"/>
      <use x="169.091797" xlink:href="#DejaVuSans-99"/>
      <use x="224.072266" xlink:href="#DejaVuSans-104"/>
      <use x="287.451172" xlink:href="#DejaVuSans-32"/>
      <use x="319.238281" xlink:href="#DejaVuSans-115"/>
      <use x="371.337891" xlink:href="#DejaVuSans-105"/>
      <use x="399.121094" xlink:href="#DejaVuSans-122"/>
      <use x="451.611328" xlink:href="#DejaVuSans-101"/>
      <use x="513.134766" xlink:href="#DejaVuSans-32"/>
      <use x="544.921875" xlink:href="#DejaVuSans-49"/>
      <use x="608.544922" xlink:href="#DejaVuSans-48"/>
     </g>
    </g>
    <g id="line2d_35">
     <path d="M 227.643125 185.086406 
L 255.643125 185.086406 
" style="fill:none;stroke:#ff7f0e;stroke-linecap:square;stroke-width:1.5;"/>
    </g>
    <g id="line2d_36"/>
    <g id="text_20">
     <!-- Batch size 20 -->
     <g transform="translate(266.843125 189.986406)scale(0.14 -0.14)">
      <use xlink:href="#DejaVuSans-66"/>
      <use x="68.603516" xlink:href="#DejaVuSans-97"/>
      <use x="129.882812" xlink:href="#DejaVuSans-116"/>
      <use x="169.091797" xlink:href="#DejaVuSans-99"/>
      <use x="224.072266" xlink:href="#DejaVuSans-104"/>
      <use x="287.451172" xlink:href="#DejaVuSans-32"/>
      <use x="319.238281" xlink:href="#DejaVuSans-115"/>
      <use x="371.337891" xlink:href="#DejaVuSans-105"/>
      <use x="399.121094" xlink:href="#DejaVuSans-122"/>
      <use x="451.611328" xlink:href="#DejaVuSans-101"/>
      <use x="513.134766" xlink:href="#DejaVuSans-32"/>
      <use x="544.921875" xlink:href="#DejaVuSans-50"/>
      <use x="608.544922" xlink:href="#DejaVuSans-48"/>
     </g>
    </g>
    <g id="line2d_37">
     <path d="M 227.643125 205.635781 
L 255.643125 205.635781 
" style="fill:none;stroke:#2ca02c;stroke-linecap:square;stroke-width:1.5;"/>
    </g>
    <g id="line2d_38"/>
    <g id="text_21">
     <!-- Batch size 100 -->
     <g transform="translate(266.843125 210.535781)scale(0.14 -0.14)">
      <use xlink:href="#DejaVuSans-66"/>
      <use x="68.603516" xlink:href="#DejaVuSans-97"/>
      <use x="129.882812" xlink:href="#DejaVuSans-116"/>
      <use x="169.091797" xlink:href="#DejaVuSans-99"/>
      <use x="224.072266" xlink:href="#DejaVuSans-104"/>
      <use x="287.451172" xlink:href="#DejaVuSans-32"/>
      <use x="319.238281" xlink:href="#DejaVuSans-115"/>
      <use x="371.337891" xlink:href="#DejaVuSans-105"/>
      <use x="399.121094" xlink:href="#DejaVuSans-122"/>
      <use x="451.611328" xlink:href="#DejaVuSans-101"/>
      <use x="513.134766" xlink:href="#DejaVuSans-32"/>
      <use x="544.921875" xlink:href="#DejaVuSans-49"/>
      <use x="608.544922" xlink:href="#DejaVuSans-48"/>
      <use x="672.167969" xlink:href="#DejaVuSans-48"/>
     </g>
    </g>
    <g id="line2d_39">
     <path d="M 227.643125 226.185156 
L 255.643125 226.185156 
" style="fill:none;stroke:#000000;stroke-linecap:square;stroke-width:1.5;"/>
    </g>
    <g id="line2d_40"/>
    <g id="text_22">
     <!-- Baseline -->
     <g transform="translate(266.843125 231.085156)scale(0.14 -0.14)">
      <use xlink:href="#DejaVuSans-66"/>
      <use x="68.603516" xlink:href="#DejaVuSans-97"/>
      <use x="129.882812" xlink:href="#DejaVuSans-115"/>
      <use x="181.982422" xlink:href="#DejaVuSans-101"/>
      <use x="243.505859" xlink:href="#DejaVuSans-108"/>
      <use x="271.289062" xlink:href="#DejaVuSans-105"/>
      <use x="299.072266" xlink:href="#DejaVuSans-110"/>
      <use x="362.451172" xlink:href="#DejaVuSans-101"/>
     </g>
    </g>
   </g>
  </g>
 </g>
 <defs>
  <clipPath id="p786f4e9b47">
   <rect height="217.44" width="334.8" x="47.6525" y="29.156719"/>
  </clipPath>
 </defs>
</svg>
